<?xml version="1.0" encoding="UTF-8" standalone="no"?>
<!-- Created with Inkscape (http://www.inkscape.org/) -->

<svg
   xmlns:dc="http://purl.org/dc/elements/1.1/"
   xmlns:cc="http://creativecommons.org/ns#"
   xmlns:rdf="http://www.w3.org/1999/02/22-rdf-syntax-ns#"
   xmlns:svg="http://www.w3.org/2000/svg"
   xmlns="http://www.w3.org/2000/svg"
   xmlns:sodipodi="http://sodipodi.sourceforge.net/DTD/sodipodi-0.dtd"
   xmlns:inkscape="http://www.inkscape.org/namespaces/inkscape"
   width="542"
   height="301"
   viewBox="0 0 143.40436 79.639595"
   version="1.1"
   id="svg6772"
   inkscape:version="0.92.1 r15371"
   sodipodi:docname="grid-and-transform.svg">
  <defs
     id="defs6766">
    <marker
       inkscape:stockid="TriangleOutL"
       orient="auto"
       refY="0"
       refX="0"
       id="TriangleOutL"
       style="overflow:visible"
       inkscape:isstock="true">
      <path
         id="path7692"
         d="M 5.77,0 -2.88,5 V -5 Z"
         style="fill:#000000;fill-opacity:1;fill-rule:evenodd;stroke:#000000;stroke-width:1.00000003pt;stroke-opacity:1"
         transform="scale(0.8)"
         inkscape:connector-curvature="0" />
    </marker>
    <marker
       inkscape:stockid="Arrow1Lend"
       orient="auto"
       refY="0"
       refX="0"
       id="Arrow1Lend"
       style="overflow:visible"
       inkscape:isstock="true">
      <path
         id="path7553"
         d="M 0,0 5,-5 -12.5,0 5,5 Z"
         style="fill:#000000;fill-opacity:1;fill-rule:evenodd;stroke:#000000;stroke-width:1.00000003pt;stroke-opacity:1"
         transform="matrix(-0.8,0,0,-0.8,-10,0)"
         inkscape:connector-curvature="0" />
    </marker>
  </defs>
  <sodipodi:namedview
     id="base"
     pagecolor="#ffffff"
     bordercolor="#666666"
     borderopacity="1.0"
     inkscape:pageopacity="0.0"
     inkscape:pageshadow="2"
     inkscape:zoom="5.6"
     inkscape:cx="448.95007"
     inkscape:cy="167.44657"
     inkscape:document-units="px"
     inkscape:current-layer="g6205"
     showgrid="false"
     units="px"
     inkscape:window-width="1914"
     inkscape:window-height="1004"
     inkscape:window-x="0"
     inkscape:window-y="48"
     inkscape:window-maximized="0" />
  <metadata
     id="metadata6769">
    <rdf:RDF>
      <cc:Work
         rdf:about="">
        <dc:format>image/svg+xml</dc:format>
        <dc:type
           rdf:resource="http://purl.org/dc/dcmitype/StillImage" />
        <dc:title />
      </cc:Work>
    </rdf:RDF>
  </metadata>
  <g
     inkscape:label="Layer 1"
     inkscape:groupmode="layer"
     id="layer1"
     transform="translate(0,-217.3603)">
    <g
       transform="matrix(0.1098032,0,0,0.1098032,92.484763,240.53185)"
       id="g6205">
      <path
         style="fill:none;stroke:#000000;stroke-width:1.73989916;stroke-miterlimit:4;stroke-dasharray:none"
         inkscape:connector-curvature="0"
         class="grid-line"
         d="m -150,200 8.8212,3 8.4684,3 8.1228,3 7.7844,3 7.4532,3 7.1292,3 6.8124,3 6.5028,3 6.2004,3 5.9052,3 5.6172,3 5.3364,3 5.0628,3 4.7964,3 4.5372,3 4.2852,3 4.0404,3 3.8028,3 3.5724,3 3.3492,3 3.1332,3 2.9244,3 2.7228,3 2.5284,3 2.3412,3 2.1612,3 1.9884,3 1.8228,3 1.6644,3 1.5132,3 1.3692,3 1.2324,3 1.1028,3 0.9804,3 0.8652,3 0.7572,3 0.6564,3 0.5628,3 0.4764,3 0.3972,3 0.3252,3 0.2604,3 0.2028,3 0.1524,3 0.1092,3 0.0732,3 0.0444,3 0.0228,3 0.0084,3 0.0012,3 0.0012,3 0.0084,3 0.0228,3 0.0444,3 0.0732,3 0.1092,3 0.1524,3 0.2028,3 0.2604,3 0.3252,3 0.3972,3 0.4764,3 0.5628,3 0.6564,3 0.7572,3 0.8652,3 0.9804,3 1.1028,3 1.2324,3 1.3692,3 1.5132,3 1.6644,3 1.8228,3 1.9884,3 2.1612,3 2.3412,3 2.5284,3 2.7228,3 2.9244,3 3.1332,3 3.3492,3 3.5724,3 3.8028,3 4.0404,3 4.2852,3 4.5372,3 4.7964,3 5.0628,3 5.3364,3 5.6172,3 5.9052,3 6.2004,3 6.5028,3 6.8124,3 7.1292,3 7.4532,3 7.7844,3 8.1228,3 8.4684,3 8.8212,3"
         id="path6159" />
      <path
         style="fill:none;stroke:#000000;stroke-width:1.73989916;stroke-miterlimit:4;stroke-dasharray:none"
         inkscape:connector-curvature="0"
         class="grid-line"
         d="m -76.8,102.4 8.8212,3 8.4684,3 8.1228,3 7.7844,3 7.4532,3 7.1292,3 6.8124,3 6.5028,3 6.2004,3 5.9052,3 5.6172,3 5.3364,3 5.0628,3 4.7964,3 4.5372,3 4.2852,3 4.0404,3 3.8028,3 3.5724,3 3.3492,3 3.1332,3 2.9244,3 2.7228,3 2.5284,3 2.3412,3 2.1612,3 1.9884,3 1.8228,3 1.6644,3 1.5132,3 1.3692,3 1.2324,3 1.1028,3 0.9804,3 0.8652,3 0.7572,3 0.6564,3 0.5628,3 0.4764,3 0.3972,3 0.3252,3 0.2604,3 0.2028,3 0.1524,3 0.1092,3 0.0732,3 0.0444,3 0.0228,3 0.0084,3 0.0012,3 0.0012,3 0.0084,3 0.0228,3 0.0444,3 0.0732,3 0.1092,3 0.1524,3 0.2028,3 0.2604,3 0.3252,3 0.3972,3 0.4764,3 0.5628,3 0.6564,3 0.7572,3 0.8652,3 0.9804,3 1.1028,3 1.2324,3 1.3692,3 1.5132,3 1.6644,3 1.8228,3 1.9884,3 2.1612,3 2.3412,3 2.5284,3 2.7228,3 2.9244,3 3.1332,3 3.3492,3 3.5724,3 3.8028,3 4.0404,3 4.2852,3 4.5372,3 4.7964,3 5.0628,3 5.3364,3 5.6172,3 5.9052,3 6.2004,3 6.5028,3 6.8124,3 7.1292,3 7.4532,3 7.7844,3 8.1228,3 8.4684,3 8.8212,3"
         id="path6161" />
      <path
         style="fill:none;stroke:#000000;stroke-width:1.73989916;stroke-miterlimit:4;stroke-dasharray:none"
         inkscape:connector-curvature="0"
         class="grid-line"
         d="m -32.4,43.2 8.8212,3 8.4684,3 8.1228,3 7.7844,3 7.4532,3 7.1292,3 6.8124,3 6.5028,3 6.2004,3 5.9052,3 5.6172,3 5.3364,3 5.0628,3 4.7964,3 4.5372,3 4.2852,3 4.0404,3 3.8028,3 3.5724,3 3.3492,3 3.1332,3 2.9244,3 2.7228,3 2.5284,3 2.3412,3 2.1612,3 1.9884,3 1.8228,3 1.6644,3 1.5132,3 1.3692,3 1.2324,3 1.1028,3 0.9804,3 0.8652,3 0.7572,3 0.6564,3 0.5628,3 0.4764,3 0.3972,3 0.3252,3 0.2604,3 0.2028,3 0.1524,3 0.1092,3 0.0732,3 0.0444,3 0.0228,3 0.008,3 0.001,3 10e-4,3 0.008,3 0.0228,3 0.0444,3 0.0732,3 0.1092,3 0.1524,3 0.2028,3 0.2604,3 0.3252,3 0.3972,3 0.4764,3 0.5628,3 0.6564,3 0.7572,3 0.8652,3 0.9804,3 1.1028,3 1.2324,3 1.3692,3 1.5132,3 1.6644,3 1.8228,3 1.9884,3 2.1612,3 2.3412,3 2.5284,3 2.7228,3 2.9244,3 3.1332,3 3.3492,3 3.5724,3 3.8028,3 4.0404,3 4.2852,3 4.5372,3 4.7964,3 5.0628,3 5.3364,3 5.6172,3 5.9052,3 6.2004,3 6.5028,3 6.8124,3 7.1292,3 7.4532,3 7.7844,3 8.1228,3 8.4684,3 8.8212,3"
         id="path6163" />
      <path
         style="fill:none;stroke:#000000;stroke-width:1.73989916;stroke-miterlimit:4;stroke-dasharray:none"
         inkscape:connector-curvature="0"
         class="grid-line"
         d="m -9.6,12.8 8.8212,3 8.4684,3 8.1228,3 7.7844,3 7.4532,3 7.1292,3 6.8124,3 6.5028,3 6.2004,3 5.9052,3 5.6172,3 5.3364,3 5.0628,3 4.7964,3 4.5372,3 4.2852,3 4.0404,3 3.8028,3 3.5724,3 3.3492,3 3.1332,3 2.9244,3 2.7228,3 2.5284,3 2.3412,3 2.1612,3 1.9884,3 1.8228,3 1.6644,3 1.5132,3 1.3692,3 1.2324,3 1.1028,3 0.9804,3 0.8652,3 0.7572,3 0.6564,3 0.5628,3 0.4764,3 0.3972,3 0.3252,3 0.2604,3 0.2028,3 0.1524,3 0.1092,3 0.0732,3 0.0444,3 0.0228,3 0.008,3 0.001,3 10e-4,3 0.008,3 0.0228,3 0.0444,3 0.0732,3 0.1092,3 0.1524,3 0.2028,3 0.2604,3 0.3252,3 0.3972,3 0.4764,3 0.5628,3 0.6564,3 0.7572,3 0.8652,3 0.9804,3 1.1028,3 1.2324,3 1.3692,3 1.5132,3 1.6644,3 1.8228,3 1.9884,3 2.1612,3 2.3412,3 2.5284,3 2.7228,3 2.9244,3 3.1332,3 3.3492,3 3.5724,3 3.8028,3 4.0404,3 4.2852,3 4.5372,3 4.7964,3 5.0628,3 5.3364,3 5.6172,3 5.9052,3 6.2004,3 6.5028,3 6.8124,3 7.1292,3 7.4532,3 7.7844,3 8.1228,3 8.4684,3 8.8212,3"
         id="path6165" />
      <path
         style="fill:none;stroke:#000000;stroke-width:1.73989916;stroke-miterlimit:4;stroke-dasharray:none"
         inkscape:connector-curvature="0"
         class="grid-line"
         d="m -1.2,1.6 8.8212,3 8.4684,3 8.1228,3 7.7844,3 7.4532,3 7.1292,3 6.8124,3 6.5028,3 6.2004,3 5.9052,3 5.6172,3 5.3364,3 5.0628,3 4.7964,3 4.5372,3 4.2852,3 4.0404,3 3.8028,3 3.5724,3 3.3492,3 3.1332,3 2.9244,3 2.7228,3 2.5284,3 2.3412,3 2.1612,3 1.9884,3 1.8228,3 1.6644,3 1.5132,3 1.3692,3 1.2324,3 1.1028,3 0.9804,3 0.8652,3 0.7572,3 0.6564,3 0.5628,3 0.4764,3 0.3972,3 0.3252,3 0.2604,3 0.2028,3 0.1524,3 0.1092,3 0.0732,3 0.0444,3 0.0228,3 0.008,3 0.001,3 0.001,3 0.008,3 0.0228,3 0.0444,3 0.0732,3 0.1092,3 0.1524,3 0.2028,3 0.2604,3 0.3252,3 0.3972,3 0.4764,3 0.5628,3 0.6564,3 0.7572,3 0.8652,3 0.9804,3 1.1028,3 1.2324,3 1.3692,3 1.5132,3 1.6644,3 1.8228,3 1.9884,3 2.1612,3 2.3412,3 2.5284,3 2.7228,3 2.9244,3 3.1332,3 3.3492,3 3.5724,3 3.8028,3 4.0404,3 4.2852,3 4.5372,3 4.7964,3 5.0628,3 5.3364,3 5.6172,3 5.9052,3 6.2004,3 6.5028,3 6.8124,3 7.1292,3 7.4532,3 7.7844,3 8.1228,3 8.4684,3 8.8212,3"
         id="path6167" />
      <path
         style="fill:none;stroke:#000000;stroke-width:1.73989916;stroke-miterlimit:4;stroke-dasharray:none"
         inkscape:connector-curvature="0"
         class="grid-line"
         d="m 0,0 8.8212,3 8.4684,3 8.1228,3 7.7844,3 7.4532,3 7.1292,3 6.8124,3 6.5028,3 6.2004,3 5.9052,3 5.6172,3 5.3364,3 5.0628,3 4.7964,3 4.5372,3 4.2852,3 4.0404,3 3.8028,3 3.5724,3 3.3492,3 3.1332,3 2.9244,3 2.7228,3 2.5284,3 2.3412,3 2.1612,3 1.9884,3 1.8228,3 1.6644,3 1.5132,3 1.3692,3 1.2324,3 1.1028,3 0.9804,3 0.8652,3 0.7572,3 0.6564,3 0.5628,3 0.4764,3 0.3972,3 0.3252,3 0.2604,3 0.2028,3 0.1524,3 0.1092,3 0.0732,3 0.0444,3 0.0228,3 0.008,3 0.001,3 0.001,3 0.008,3 0.0228,3 0.0444,3 0.0732,3 0.1092,3 0.1524,3 0.2028,3 0.2604,3 0.3252,3 0.3972,3 0.4764,3 0.5628,3 0.6564,3 0.7572,3 0.8652,3 0.9804,3 1.1028,3 1.2324,3 1.3692,3 1.5132,3 1.6644,3 1.8228,3 1.9884,3 2.1612,3 2.3412,3 2.5284,3 2.7228,3 2.9244,3 3.1332,3 3.3492,3 3.5724,3 3.8028,3 4.0404,3 4.2852,3 4.5372,3 4.7964,3 5.0628,3 5.3364,3 5.6172,3 5.9052,3 6.2004,3 6.5028,3 6.8124,3 7.1292,3 7.4532,3 7.7844,3 8.1228,3 8.4684,3 8.8212,3"
         id="path6169" />
      <path
         style="fill:none;stroke:#000000;stroke-width:1.73989916;stroke-miterlimit:4;stroke-dasharray:none"
         inkscape:connector-curvature="0"
         class="grid-line"
         d="m 1.2,-1.6 8.8212,3 8.4684,3 8.1228,3 7.7844,3 7.4532,3 7.1292,3 6.8124,3 6.5028,3 6.2004,3 5.9052,3 5.6172,3 5.3364,3 5.0628,3 4.7964,3 4.5372,3 4.2852,3 4.0404,3 3.8028,3 3.5724,3 3.3492,3 3.1332,3 2.9244,3 2.7228,3 2.5284,3 2.3412,3 2.1612,3 1.9884,3 1.8228,3 1.6644,3 1.5132,3 1.3692,3 1.2324,3 1.1028,3 0.9804,3 0.8652,3 0.7572,3 0.6564,3 0.5628,3 0.4764,3 0.3972,3 0.3252,3 0.2604,3 0.2028,3 0.1524,3 0.1092,3 0.0732,3 0.0444,3 0.0228,3 0.008,3 0.001,3 0.001,3 0.008,3 0.0228,3 0.0444,3 0.0732,3 0.1092,3 0.1524,3 0.2028,3 0.2604,3 0.3252,3 0.3972,3 0.4764,3 0.5628,3 0.6564,3 0.7572,3 0.8652,3 0.9804,3 1.1028,3 1.2324,3 1.3692,3 1.5132,3 1.6644,3 1.8228,3 1.9884,3 2.1612,3 2.3412,3 2.5284,3 2.7228,3 2.9244,3 3.1332,3 3.3492,3 3.5724,3 3.8028,3 4.0404,3 4.2852,3 4.5372,3 4.7964,3 5.0628,3 5.3364,3 5.6172,3 5.9052,3 6.2004,3 6.5028,3 6.8124,3 7.1292,3 7.4532,3 7.7844,3 8.1228,3 8.4684,3 8.8212,3"
         id="path6171" />
      <path
         style="fill:none;stroke:#000000;stroke-width:1.73989916;stroke-miterlimit:4;stroke-dasharray:none"
         inkscape:connector-curvature="0"
         class="grid-line"
         d="m 9.6,-12.8 8.8212,3 8.4684,3 8.1228,3 7.7844,3 7.4532,3 7.1292,3 6.8124,3 6.5028,3 6.2004,3 5.9052,3 5.6172,3 5.3364,3 5.0628,3 4.7964,3 4.5372,3 4.2852,3 4.0404,3 3.8028,3 3.5724,3 3.3492,3 3.1332,3 2.9244,3 2.7228,3 2.5284,3 2.3412,3 2.1612,3 1.9884,3 1.8228,3 1.6644,3 1.5132,3 1.3692,3 1.2324,3 1.1028,3 0.9804,3 0.8652,3 0.7572,3 0.6564,3 0.5628,3 0.4764,3 0.3972,3 0.3252,3 0.2604,3 0.2028,3 0.1524,3 0.1092,3 0.0732,3 0.0444,3 0.0228,3 0.008,3 0.001,3 0.001,3 0.008,3 0.0228,3 0.0444,3 0.0732,3 0.1092,3 0.1524,3 0.2028,3 0.2604,3 0.3252,3 0.3972,3 0.4764,3 0.5628,3 0.6564,3 0.7572,3 0.8652,3 0.9804,3 1.1028,3 1.2324,3 1.3692,3 1.5132,3 1.6644,3 1.8228,3 1.9884,3 2.1612,3 2.3412,3 2.5284,3 2.7228,3 2.9244,3 3.1332,3 3.3492,3 3.5724,3 3.8028,3 4.0404,3 4.2852,3 4.5372,3 4.7964,3 5.0628,3 5.3364,3 5.6172,3 5.9052,3 6.2004,3 6.5028,3 6.8124,3 7.1292,3 7.4532,3 7.7844,3 8.1228,3 8.4684,3 8.8212,3"
         id="path6173" />
      <path
         style="fill:none;stroke:#000000;stroke-width:1.73989916;stroke-miterlimit:4;stroke-dasharray:none"
         inkscape:connector-curvature="0"
         class="grid-line"
         d="m 32.4,-43.2 8.8212,3 8.4684,3 8.1228,3 7.7844,3 7.4532,3 7.1292,3 6.8124,3 6.5028,3 6.2004,3 5.9052,3 5.6172,3 5.3364,3 5.0628,3 4.7964,3 4.5372,3 4.2852,3 4.0404,3 3.8028,3 3.5724,3 3.3492,3 3.1332,3 2.9244,3 2.7228,3 2.5284,3 2.3412,3 2.1612,3 1.9884,3 1.8228,3 1.6644,3 1.5132,3 1.3692,3 1.2324,3 1.1028,3 0.9804,3 0.8652,3 0.7572,3 0.6564,3 0.5628,3 0.4764,3 0.3972,3 0.3252,3 0.2604,3 0.2028,3 0.1524,3 0.1092,3 0.0732,3 0.0444,3 0.0228,3 0.008,3 0.001,3 10e-4,3 0.008,3 0.0228,3 0.0444,3 0.0732,3 0.1092,3 0.1524,3 0.2028,3 0.2604,3 0.3252,3 0.3972,3 0.4764,3 0.5628,3 0.6564,3 0.7572,3 0.8652,3 0.9804,3 1.1028,3 1.2324,3 1.3692,3 1.5132,3 1.6644,3 1.8228,3 1.9884,3 2.1612,3 2.3412,3 2.5284,3 2.7228,3 2.9244,3 3.1332,3 3.3492,3 3.5724,3 3.8028,3 4.0404,3 4.2852,3 4.5372,3 4.7964,3 5.0628,3 5.3364,3 5.6172,3 5.9052,3 6.2004,3 6.5028,3 6.8124,3 7.1292,3 7.4532,3 7.7844,3 8.1228,3 8.4684,3 8.8212,3"
         id="path6175" />
      <path
         style="fill:none;stroke:#000000;stroke-width:1.73989916;stroke-miterlimit:4;stroke-dasharray:none"
         inkscape:connector-curvature="0"
         class="grid-line"
         d="m 76.8,-102.4 8.8212,3 8.4684,3 8.1228,3 7.7844,3 7.4532,3 7.1292,3 6.8124,3 6.5028,3 6.2004,3 5.9052,3 5.6172,3 5.3364,3 5.0628,3 4.7964,3 4.5372,3 4.2852,3 4.0404,3 3.8028,3 3.5724,3 3.3492,3 3.1332,3 2.9244,3 2.7228,3 2.5284,3 2.3412,3 2.1612,3 1.9884,3 1.8228,3 1.6644,3 1.5132,3 1.3692,3 1.2324,3 1.1028,3 0.9804,3 0.8652,3 0.7572,3 0.6564,3 0.5628,3 0.4764,3 0.3972,3 0.3252,3 0.2604,3 0.2028,3 0.1524,3 0.1092,3 0.0732,3 0.0444,3 0.0228,3 0.008,3 0.001,3 0.001,3 0.008,3 0.0228,3 0.0444,3 0.0732,3 0.1092,3 0.1524,3 0.2028,3 0.2604,3 0.3252,3 0.3972,3 0.4764,3 0.5628,3 0.6564,3 0.7572,3 0.8652,3 0.9804,3 1.1028,3 1.2324,3 1.3692,3 1.5132,3 1.6644,3 1.8228,3 1.9884,3 2.1612,3 2.3412,3 2.5284,3 2.7228,3 2.9244,3 3.1332,3 3.3492,3 3.5724,3 3.8028,3 4.0404,3 4.2852,3 4.5372,3 4.7964,3 5.0628,3 5.3364,3 5.6172,3 5.9052,3 6.2004,3 6.5028,3 6.8124,3 7.1292,3 7.4532,3 7.7844,3 8.1228,3 8.4684,3 8.8212,3"
         id="path6177" />
      <path
         style="fill:none;stroke:#000000;stroke-width:1.73989916;stroke-miterlimit:4;stroke-dasharray:none"
         inkscape:connector-curvature="0"
         class="grid-line"
         d="m 150,-200 8.8212,3 8.4684,3 8.1228,3 7.7844,3 7.4532,3 7.1292,3 6.8124,3 6.5028,3 6.2004,3 5.9052,3 5.6172,3 5.3364,3 5.0628,3 4.7964,3 4.5372,3 4.2852,3 4.0404,3 3.8028,3 3.5724,3 3.3492,3 3.1332,3 2.9244,3 2.7228,3 2.5284,3 2.3412,3 2.1612,3 1.9884,3 1.8228,3 1.6644,3 1.5132,3 1.3692,3 1.2324,3 1.1028,3 0.9804,3 0.8652,3 0.7572,3 0.6564,3 0.5628,3 0.4764,3 0.3972,3 0.3252,3 0.2604,3 0.2028,3 0.1524,3 0.1092,3 0.0732,3 0.0444,3 0.0228,3 0.008,3 10e-4,3 0.001,3 0.008,3 0.0228,3 0.0444,3 0.0732,3 0.1092,3 0.1524,3 0.2028,3 0.2604,3 0.3252,3 0.3972,3 0.4764,3 0.5628,3 0.6564,3 0.7572,3 0.8652,3 0.9804,3 1.1028,3 1.2324,3 1.3692,3 1.5132,3 1.6644,3 1.8228,3 1.9884,3 2.1612,3 2.3412,3 2.5284,3 2.7228,3 2.9244,3 3.1332,3 3.3492,3 3.5724,3 3.8028,3 4.0404,3 4.2852,3 4.5372,3 4.7964,3 5.0628,3 5.3364,3 5.6172,3 5.9052,3 6.2004,3 6.5028,3 6.8124,3 7.1292,3 7.4532,3 7.7844,3 8.1228,3 8.4684,3 8.8212,3"
         id="path6179" />
      <path
         style="fill:none;stroke:#000000;stroke-width:1.73989916;stroke-miterlimit:4;stroke-dasharray:none"
         inkscape:connector-curvature="0"
         class="grid-line"
         d="m -150,200 8.8212,-11.7616 8.4684,-11.2912 8.1228,-10.8304 7.7844,-10.3792 7.4532,-9.9376 7.1292,-9.5056 6.8124,-9.0832 6.5028,-8.6704 6.2004,-8.2672 5.9052,-7.8736 5.6172,-7.4896 5.3364,-7.1152 5.0628,-6.7504 4.7964,-6.3952 4.5372,-6.0496 4.2852,-5.7136 4.0404,-5.3872 3.8028,-5.0704 3.5724,-4.7632 3.3492,-4.4656 3.1332,-4.1776 2.9244,-3.8992 2.7228,-3.6304 2.5284,-3.3712 L -18.75,25 l 2.1612,-2.8816 1.9884,-2.6512 1.8228,-2.4304 1.6644,-2.2192 L -9.6,12.8 -8.2308,10.9744 -6.9984,9.3312 -5.8956,7.8608 -4.9152,6.5536 -4.05,5.4 -3.2928,4.3904 -2.6364,3.5152 -2.0736,2.7648 -1.5972,2.1296 -1.2,1.6 -0.8748,1.1664 -0.6144,0.8192 -0.4116,0.5488 -0.2592,0.3456 -0.15,0.2 -0.0768,0.1024 -0.0324,0.0432 -0.0096,0.0128 -0.0012,0.0016 0,0 0.0012,-0.0016 0.0096,-0.0128 0.0324,-0.0432 0.0768,-0.1024 0.15,-0.2 0.2592,-0.3456 0.4116,-0.5488 0.6144,-0.8192 0.8748,-1.1664 1.2,-1.6 1.5972,-2.1296 2.0736,-2.7648 2.6364,-3.5152 3.2928,-4.3904 4.05,-5.4 4.9152,-6.5536 5.8956,-7.8608 6.9984,-9.3312 8.2308,-10.9744 9.6,-12.8 l 1.5132,-2.0176 1.6644,-2.2192 1.8228,-2.4304 1.9884,-2.6512 L 18.75,-25 l 2.3412,-3.1216 2.5284,-3.3712 2.7228,-3.6304 2.9244,-3.8992 3.1332,-4.1776 3.3492,-4.4656 3.5724,-4.7632 3.8028,-5.0704 4.0404,-5.3872 4.2852,-5.7136 4.5372,-6.0496 4.7964,-6.3952 5.0628,-6.7504 5.3364,-7.1152 5.6172,-7.4896 5.9052,-7.8736 6.2004,-8.2672 6.5028,-8.6704 6.8124,-9.0832 7.1292,-9.5056 7.4532,-9.9376 7.7844,-10.3792 8.1228,-10.8304 8.4684,-11.2912 L 150,-200"
         id="path6181" />
      <path
         style="fill:none;stroke:#000000;stroke-width:1.73989916;stroke-miterlimit:4;stroke-dasharray:none"
         inkscape:connector-curvature="0"
         class="grid-line"
         d="m -76.8,230 8.8212,-11.7616 8.4684,-11.2912 8.1228,-10.8304 7.7844,-10.3792 7.4532,-9.9376 7.1292,-9.5056 6.8124,-9.0832 6.5028,-8.6704 6.2004,-8.2672 5.9052,-7.8736 5.6172,-7.4896 5.3364,-7.1152 5.0628,-6.7504 4.7964,-6.3952 L 21.75,98.6 26.0352,92.8864 30.0756,87.4992 33.8784,82.4288 37.4508,77.6656 40.8,73.2 43.9332,69.0224 46.8576,65.1232 49.5804,61.4928 52.1088,58.1216 54.45,55 56.6112,52.1184 58.5996,49.4672 60.4224,47.0368 62.0868,44.8176 63.6,42.8 64.9692,40.9744 66.2016,39.3312 67.3044,37.8608 68.2848,36.5536 69.15,35.4 69.9072,34.3904 70.5636,33.5152 71.1264,32.7648 71.6028,32.1296 72,31.6 72.3252,31.1664 72.5856,30.8192 72.7884,30.5488 72.9408,30.3456 73.05,30.2 73.1232,30.1024 73.1676,30.0432 73.1904,30.0128 73.1988,30.0016 73.2,30 73.2012,29.9984 73.2096,29.9872 73.2324,29.9568 73.2768,29.8976 73.35,29.8 73.4592,29.6544 73.6116,29.4512 73.8144,29.1808 74.0748,28.8336 74.4,28.4 74.7972,27.8704 75.2736,27.2352 75.8364,26.4848 76.4928,25.6096 77.25,24.6 78.1152,23.4464 79.0956,22.1392 80.1984,20.6688 81.4308,19.0256 82.8,17.2 84.3132,15.1824 85.9776,12.9632 87.8004,10.5328 89.7888,7.8816 91.95,5 l 2.3412,-3.1216 2.5284,-3.3712 2.7228,-3.6304 2.9244,-3.8992 3.1332,-4.1776 3.3492,-4.4656 3.5724,-4.7632 3.8028,-5.0704 4.0404,-5.3872 4.2852,-5.7136 4.5372,-6.0496 4.7964,-6.3952 5.0628,-6.7504 5.3364,-7.1152 L 150,-72.4 l 5.9052,-7.8736 6.2004,-8.2672 6.5028,-8.6704 6.8124,-9.0832 7.1292,-9.5056 7.4532,-9.9376 7.7844,-10.3792 8.1228,-10.8304 8.4684,-11.2912 L 223.2,-170"
         id="path6183" />
      <path
         style="fill:none;stroke:#000000;stroke-width:1.73989916;stroke-miterlimit:4;stroke-dasharray:none"
         inkscape:connector-curvature="0"
         class="grid-line"
         d="m -32.4,260 8.8212,-11.7616 8.4684,-11.2912 8.1228,-10.8304 7.7844,-10.3792 7.4532,-9.9376 7.1292,-9.5056 6.8124,-9.0832 6.5028,-8.6704 6.2004,-8.2672 5.9052,-7.8736 5.6172,-7.4896 5.3364,-7.1152 5.0628,-6.7504 4.7964,-6.3952 4.5372,-6.0496 4.2852,-5.7136 4.0404,-5.3872 3.8028,-5.0704 3.5724,-4.7632 L 85.2,103.2 88.3332,99.0224 91.2576,95.1232 93.9804,91.4928 96.5088,88.1216 98.85,85 l 2.1612,-2.8816 1.9884,-2.6512 1.8228,-2.4304 1.6644,-2.2192 L 108,72.8 l 1.3692,-1.8256 1.2324,-1.6432 1.1028,-1.4704 0.9804,-1.3072 0.8652,-1.1536 0.7572,-1.0096 0.6564,-0.8752 0.5628,-0.7504 0.4764,-0.6352 0.3972,-0.5296 0.3252,-0.4336 0.2604,-0.3472 0.2028,-0.2704 0.1524,-0.2032 0.1092,-0.1456 0.0732,-0.0976 0.0444,-0.0592 0.0228,-0.0304 0.008,-0.0112 L 117.6,60 l 0.001,-0.0016 0.008,-0.0112 0.0228,-0.0304 0.0444,-0.0592 0.0732,-0.0976 0.1092,-0.1456 0.1524,-0.2032 0.2028,-0.2704 0.2604,-0.3472 0.3252,-0.4336 0.3972,-0.5296 0.4764,-0.6352 0.5628,-0.7504 0.6564,-0.8752 0.7572,-1.0096 0.8652,-1.1536 0.9804,-1.3072 1.1028,-1.4704 1.2324,-1.6432 1.3692,-1.8256 1.5132,-2.0176 1.6644,-2.2192 1.8228,-2.4304 1.9884,-2.6512 L 136.35,35 l 2.3412,-3.1216 2.5284,-3.3712 2.7228,-3.6304 2.9244,-3.8992 L 150,16.8 l 3.3492,-4.4656 3.5724,-4.7632 3.8028,-5.0704 4.0404,-5.3872 4.2852,-5.7136 4.5372,-6.0496 4.7964,-6.3952 5.0628,-6.7504 5.3364,-7.1152 5.6172,-7.4896 5.9052,-7.8736 6.2004,-8.2672 6.5028,-8.6704 6.8124,-9.0832 7.1292,-9.5056 7.4532,-9.9376 7.7844,-10.3792 8.1228,-10.8304 8.4684,-11.2912 L 267.6,-140"
         id="path6185" />
      <path
         style="fill:none;stroke:#000000;stroke-width:1.73989916;stroke-miterlimit:4;stroke-dasharray:none"
         inkscape:connector-curvature="0"
         class="grid-line"
         d="m -9.6,290 8.8212,-11.7616 8.4684,-11.2912 8.1228,-10.8304 7.7844,-10.3792 7.4532,-9.9376 7.1292,-9.5056 6.8124,-9.0832 6.5028,-8.6704 6.2004,-8.2672 5.9052,-7.8736 5.6172,-7.4896 5.3364,-7.1152 5.0628,-6.7504 4.7964,-6.3952 4.5372,-6.0496 4.2852,-5.7136 4.0404,-5.3872 3.8028,-5.0704 3.5724,-4.7632 L 108,133.2 l 3.1332,-4.1776 2.9244,-3.8992 2.7228,-3.6304 2.5284,-3.3712 2.3412,-3.1216 2.1612,-2.8816 1.9884,-2.6512 1.8228,-2.4304 1.6644,-2.2192 1.5132,-2.0176 1.3692,-1.8256 1.2324,-1.6432 1.1028,-1.4704 0.9804,-1.3072 0.8652,-1.1536 0.7572,-1.0096 0.6564,-0.8752 0.5628,-0.7504 0.4764,-0.6352 0.3972,-0.5296 0.3252,-0.4336 0.2604,-0.3472 0.2028,-0.2704 0.1524,-0.2032 0.1092,-0.1456 0.0732,-0.0976 0.0444,-0.0592 0.0228,-0.0304 0.008,-0.0112 L 140.4,90 l 0.001,-0.0016 0.008,-0.0112 0.0228,-0.0304 0.0444,-0.0592 0.0732,-0.0976 0.1092,-0.1456 0.1524,-0.2032 0.2028,-0.2704 0.2604,-0.3472 0.3252,-0.4336 0.3972,-0.5296 0.4764,-0.6352 0.5628,-0.7504 0.6564,-0.8752 0.7572,-1.0096 0.8652,-1.1536 0.9804,-1.3072 1.1028,-1.4704 1.2324,-1.6432 L 150,77.2 l 1.5132,-2.0176 1.6644,-2.2192 1.8228,-2.4304 1.9884,-2.6512 L 159.15,65 l 2.3412,-3.1216 2.5284,-3.3712 2.7228,-3.6304 2.9244,-3.8992 3.1332,-4.1776 3.3492,-4.4656 3.5724,-4.7632 3.8028,-5.0704 4.0404,-5.3872 4.2852,-5.7136 4.5372,-6.0496 4.7964,-6.3952 5.0628,-6.7504 5.3364,-7.1152 5.6172,-7.4896 5.9052,-7.8736 6.2004,-8.2672 6.5028,-8.6704 6.8124,-9.0832 7.1292,-9.5056 7.4532,-9.9376 7.7844,-10.3792 8.1228,-10.8304 8.4684,-11.2912 L 290.4,-110"
         id="path6187" />
      <path
         style="fill:none;stroke:#000000;stroke-width:1.73989916;stroke-miterlimit:4;stroke-dasharray:none"
         inkscape:connector-curvature="0"
         class="grid-line"
         d="m -1.2,320 8.8212,-11.7616 8.4684,-11.2912 8.1228,-10.8304 7.7844,-10.3792 7.4532,-9.9376 7.1292,-9.5056 6.8124,-9.0832 6.5028,-8.6704 6.2004,-8.2672 L 72,222.4 l 5.6172,-7.4896 5.3364,-7.1152 5.0628,-6.7504 4.7964,-6.3952 4.5372,-6.0496 4.2852,-5.7136 4.0404,-5.3872 3.8028,-5.0704 3.5724,-4.7632 3.3492,-4.4656 3.1332,-4.1776 2.9244,-3.8992 2.7228,-3.6304 2.5284,-3.3712 2.3412,-3.1216 2.1612,-2.8816 1.9884,-2.6512 1.8228,-2.4304 1.6644,-2.2192 1.5132,-2.0176 1.3692,-1.8256 1.2324,-1.6432 1.1028,-1.4704 0.9804,-1.3072 0.8652,-1.1536 0.7572,-1.0096 0.6564,-0.8752 0.5628,-0.7504 0.4764,-0.6352 0.3972,-0.5296 0.3252,-0.4336 0.2604,-0.3472 0.2028,-0.2704 0.1524,-0.2032 0.1092,-0.1456 0.0732,-0.0976 0.0444,-0.0592 0.0228,-0.0304 0.008,-0.0112 0.001,-0.002 0.001,-0.002 0.008,-0.0112 0.0228,-0.0304 0.0444,-0.0592 0.0732,-0.0976 0.1092,-0.1456 0.1524,-0.2032 0.2028,-0.2704 0.2604,-0.3472 L 150,118.4 l 0.3972,-0.5296 0.4764,-0.6352 0.5628,-0.7504 0.6564,-0.8752 0.7572,-1.0096 0.8652,-1.1536 0.9804,-1.3072 1.1028,-1.4704 1.2324,-1.6432 1.3692,-1.8256 1.5132,-2.0176 1.6644,-2.2192 1.8228,-2.4304 1.9884,-2.6512 L 167.55,95 l 2.3412,-3.1216 2.5284,-3.3712 2.7228,-3.6304 2.9244,-3.8992 3.1332,-4.1776 3.3492,-4.4656 3.5724,-4.7632 3.8028,-5.0704 4.0404,-5.3872 4.2852,-5.7136 4.5372,-6.0496 4.7964,-6.3952 5.0628,-6.7504 5.3364,-7.1152 5.6172,-7.4896 5.9052,-7.8736 6.2004,-8.2672 6.5028,-8.6704 6.8124,-9.0832 7.1292,-9.5056 7.4532,-9.9376 7.7844,-10.3792 8.1228,-10.8304 8.4684,-11.2912 L 298.8,-80"
         id="path6189" />
      <path
         style="fill:none;stroke:#000000;stroke-width:1.73989916;stroke-miterlimit:4;stroke-dasharray:none"
         inkscape:connector-curvature="0"
         class="grid-line"
         d="m 0,350 8.8212,-11.7616 8.4684,-11.2912 8.1228,-10.8304 7.7844,-10.3792 7.4532,-9.9376 7.1292,-9.5056 6.8124,-9.0832 6.5028,-8.6704 6.2004,-8.2672 5.9052,-7.8736 5.6172,-7.4896 5.3364,-7.1152 5.0628,-6.7504 4.7964,-6.3952 4.5372,-6.0496 4.2852,-5.7136 4.0404,-5.3872 3.8028,-5.0704 3.5724,-4.7632 3.3492,-4.4656 3.1332,-4.1776 2.9244,-3.8992 2.7228,-3.6304 2.5284,-3.3712 2.3412,-3.1216 2.1612,-2.8816 1.9884,-2.6512 1.8228,-2.4304 1.6644,-2.2192 1.5132,-2.0176 1.3692,-1.8256 1.2324,-1.6432 1.1028,-1.4704 0.9804,-1.3072 0.8652,-1.1536 0.7572,-1.0096 0.6564,-0.8752 0.5628,-0.7504 0.4764,-0.6352 0.3972,-0.5296 0.3252,-0.4336 0.2604,-0.3472 0.2028,-0.2704 0.1524,-0.2032 0.1092,-0.1456 0.0732,-0.0976 0.0444,-0.0592 0.0228,-0.0304 0.008,-0.0112 L 150,150 l 0.001,-0.002 0.008,-0.0112 0.0228,-0.0304 0.0444,-0.0592 0.0732,-0.0976 0.1092,-0.1456 0.1524,-0.2032 0.2028,-0.2704 0.2604,-0.3472 0.3252,-0.4336 0.3972,-0.5296 0.4764,-0.6352 0.5628,-0.7504 0.6564,-0.8752 0.7572,-1.0096 0.8652,-1.1536 0.9804,-1.3072 1.1028,-1.4704 1.2324,-1.6432 1.3692,-1.8256 1.5132,-2.0176 1.6644,-2.2192 1.8228,-2.4304 1.9884,-2.6512 2.1612,-2.8816 2.3412,-3.1216 2.5284,-3.3712 2.7228,-3.6304 2.9244,-3.8992 3.1332,-4.1776 3.3492,-4.4656 3.5724,-4.7632 3.8028,-5.0704 4.0404,-5.3872 4.2852,-5.7136 4.5372,-6.0496 4.7964,-6.3952 5.0628,-6.7504 5.3364,-7.1152 5.6172,-7.4896 5.9052,-7.8736 6.2004,-8.2672 6.5028,-8.6704 6.8124,-9.0832 7.1292,-9.5056 7.4532,-9.9376 7.7844,-10.3792 8.1228,-10.8304 8.4684,-11.2912 L 300,-50"
         id="path6191" />
      <path
         style="fill:none;stroke:#000000;stroke-width:1.73989916;stroke-miterlimit:4;stroke-dasharray:none"
         inkscape:connector-curvature="0"
         class="grid-line"
         d="m 1.2,380 8.8212,-11.7616 8.4684,-11.2912 8.1228,-10.8304 7.7844,-10.3792 7.4532,-9.9376 7.1292,-9.5056 6.8124,-9.0832 6.5028,-8.6704 6.2004,-8.2672 5.9052,-7.8736 5.6172,-7.4896 5.3364,-7.1152 5.0628,-6.7504 4.7964,-6.3952 4.5372,-6.0496 4.2852,-5.7136 4.0404,-5.3872 3.8028,-5.0704 3.5724,-4.7632 3.3492,-4.4656 3.1332,-4.1776 2.9244,-3.8992 2.7228,-3.6304 2.5284,-3.3712 2.3412,-3.1216 2.1612,-2.8816 1.9884,-2.6512 1.8228,-2.4304 1.6644,-2.2192 1.5132,-2.0176 1.3692,-1.8256 1.2324,-1.6432 1.1028,-1.4704 0.9804,-1.3072 0.8652,-1.1536 0.7572,-1.0096 0.6564,-0.8752 0.5628,-0.7504 0.4764,-0.6352 L 150,181.6 l 0.3252,-0.4336 0.2604,-0.3472 0.2028,-0.2704 0.1524,-0.2032 0.1092,-0.1456 0.0732,-0.0976 0.0444,-0.0592 0.0228,-0.0304 0.008,-0.0112 0.001,-0.002 0.001,-0.002 0.008,-0.0112 0.0228,-0.0304 0.0444,-0.0592 0.0732,-0.0976 0.1092,-0.1456 0.1524,-0.2032 0.2028,-0.2704 0.2604,-0.3472 0.3252,-0.4336 0.3972,-0.5296 0.4764,-0.6352 0.5628,-0.7504 0.6564,-0.8752 0.7572,-1.0096 0.8652,-1.1536 0.9804,-1.3072 1.1028,-1.4704 1.2324,-1.6432 1.3692,-1.8256 1.5132,-2.0176 1.6644,-2.2192 1.8228,-2.4304 1.9884,-2.6512 2.1612,-2.8816 2.3412,-3.1216 2.5284,-3.3712 2.7228,-3.6304 2.9244,-3.8992 3.1332,-4.1776 3.3492,-4.4656 3.5724,-4.7632 3.8028,-5.0704 4.0404,-5.3872 4.2852,-5.7136 4.5372,-6.0496 4.7964,-6.3952 5.0628,-6.7504 5.3364,-7.1152 L 228,77.6 l 5.9052,-7.8736 6.2004,-8.2672 6.5028,-8.6704 6.8124,-9.0832 7.1292,-9.5056 7.4532,-9.9376 7.7844,-10.3792 8.1228,-10.8304 8.4684,-11.2912 L 301.2,-20"
         id="path6193" />
      <path
         style="fill:none;stroke:#000000;stroke-width:1.73989916;stroke-miterlimit:4;stroke-dasharray:none"
         inkscape:connector-curvature="0"
         class="grid-line"
         d="m 9.6,410 8.8212,-11.7616 8.4684,-11.2912 8.1228,-10.8304 7.7844,-10.3792 7.4532,-9.9376 7.1292,-9.5056 6.8124,-9.0832 6.5028,-8.6704 6.2004,-8.2672 5.9052,-7.8736 5.6172,-7.4896 5.3364,-7.1152 5.0628,-6.7504 4.7964,-6.3952 4.5372,-6.0496 4.2852,-5.7136 4.0404,-5.3872 3.8028,-5.0704 3.5724,-4.7632 3.3492,-4.4656 3.1332,-4.1776 2.9244,-3.8992 2.7228,-3.6304 2.5284,-3.3712 2.3412,-3.1216 2.1612,-2.8816 1.9884,-2.6512 1.8228,-2.4304 1.6644,-2.2192 L 150,222.8 l 1.3692,-1.8256 1.2324,-1.6432 1.1028,-1.4704 0.9804,-1.3072 0.8652,-1.1536 0.7572,-1.0096 0.6564,-0.8752 0.5628,-0.7504 0.4764,-0.6352 0.3972,-0.5296 0.3252,-0.4336 0.2604,-0.3472 0.2028,-0.2704 0.1524,-0.2032 0.1092,-0.1456 0.0732,-0.0976 0.0444,-0.0592 0.0228,-0.0304 0.008,-0.0112 0.001,-0.002 0.001,-0.002 0.008,-0.0112 0.0228,-0.0304 0.0444,-0.0592 0.0732,-0.0976 0.1092,-0.1456 0.1524,-0.2032 0.2028,-0.2704 0.2604,-0.3472 0.3252,-0.4336 0.3972,-0.5296 0.4764,-0.6352 0.5628,-0.7504 0.6564,-0.8752 0.7572,-1.0096 0.8652,-1.1536 0.9804,-1.3072 1.1028,-1.4704 1.2324,-1.6432 1.3692,-1.8256 1.5132,-2.0176 1.6644,-2.2192 1.8228,-2.4304 1.9884,-2.6512 2.1612,-2.8816 2.3412,-3.1216 2.5284,-3.3712 2.7228,-3.6304 2.9244,-3.8992 L 192,166.8 l 3.3492,-4.4656 3.5724,-4.7632 3.8028,-5.0704 4.0404,-5.3872 4.2852,-5.7136 4.5372,-6.0496 4.7964,-6.3952 5.0628,-6.7504 5.3364,-7.1152 5.6172,-7.4896 5.9052,-7.8736 6.2004,-8.2672 6.5028,-8.6704 6.8124,-9.0832 7.1292,-9.5056 7.4532,-9.9376 7.7844,-10.3792 8.1228,-10.8304 8.4684,-11.2912 L 309.6,10"
         id="path6195" />
      <path
         style="fill:none;stroke:#000000;stroke-width:1.73989916;stroke-miterlimit:4;stroke-dasharray:none"
         inkscape:connector-curvature="0"
         class="grid-line"
         d="m 32.4,440 8.8212,-11.7616 8.4684,-11.2912 8.1228,-10.8304 7.7844,-10.3792 7.4532,-9.9376 7.1292,-9.5056 6.8124,-9.0832 6.5028,-8.6704 6.2004,-8.2672 5.9052,-7.8736 5.6172,-7.4896 5.3364,-7.1152 5.0628,-6.7504 4.7964,-6.3952 4.5372,-6.0496 4.2852,-5.7136 4.0404,-5.3872 3.8028,-5.0704 3.5724,-4.7632 L 150,283.2 l 3.1332,-4.1776 2.9244,-3.8992 2.7228,-3.6304 2.5284,-3.3712 2.3412,-3.1216 2.1612,-2.8816 1.9884,-2.6512 1.8228,-2.4304 1.6644,-2.2192 1.5132,-2.0176 1.3692,-1.8256 1.2324,-1.6432 1.1028,-1.4704 0.9804,-1.3072 0.8652,-1.1536 0.7572,-1.0096 0.6564,-0.8752 0.5628,-0.7504 0.4764,-0.6352 0.3972,-0.5296 0.3252,-0.4336 0.2604,-0.3472 0.2028,-0.2704 0.1524,-0.2032 0.1092,-0.1456 0.0732,-0.0976 0.0444,-0.0592 0.0228,-0.0304 0.008,-0.0112 0.001,-0.002 10e-4,-0.002 0.008,-0.0112 0.0228,-0.0304 0.0444,-0.0592 0.0732,-0.0976 0.1092,-0.1456 0.1524,-0.2032 0.2028,-0.2704 0.2604,-0.3472 0.3252,-0.4336 0.3972,-0.5296 0.4764,-0.6352 0.5628,-0.7504 0.6564,-0.8752 0.7572,-1.0096 0.8652,-1.1536 0.9804,-1.3072 1.1028,-1.4704 1.2324,-1.6432 L 192,227.2 l 1.5132,-2.0176 1.6644,-2.2192 1.8228,-2.4304 1.9884,-2.6512 2.1612,-2.8816 2.3412,-3.1216 2.5284,-3.3712 2.7228,-3.6304 2.9244,-3.8992 3.1332,-4.1776 3.3492,-4.4656 3.5724,-4.7632 3.8028,-5.0704 4.0404,-5.3872 4.2852,-5.7136 4.5372,-6.0496 4.7964,-6.3952 5.0628,-6.7504 5.3364,-7.1152 5.6172,-7.4896 5.9052,-7.8736 6.2004,-8.2672 6.5028,-8.6704 6.8124,-9.0832 7.1292,-9.5056 7.4532,-9.9376 7.7844,-10.3792 8.1228,-10.8304 8.4684,-11.2912 L 332.4,40"
         id="path6197" />
      <path
         style="fill:none;stroke:#000000;stroke-width:1.73989916;stroke-miterlimit:4;stroke-dasharray:none"
         inkscape:connector-curvature="0"
         class="grid-line"
         d="m 76.8,470 8.8212,-11.7616 8.4684,-11.2912 8.1228,-10.8304 7.7844,-10.3792 7.4532,-9.9376 7.1292,-9.5056 6.8124,-9.0832 6.5028,-8.6704 6.2004,-8.2672 L 150,372.4 l 5.6172,-7.4896 5.3364,-7.1152 5.0628,-6.7504 4.7964,-6.3952 4.5372,-6.0496 4.2852,-5.7136 4.0404,-5.3872 3.8028,-5.0704 3.5724,-4.7632 3.3492,-4.4656 3.1332,-4.1776 2.9244,-3.8992 2.7228,-3.6304 2.5284,-3.3712 2.3412,-3.1216 2.1612,-2.8816 1.9884,-2.6512 1.8228,-2.4304 1.6644,-2.2192 1.5132,-2.0176 1.3692,-1.8256 1.2324,-1.6432 1.1028,-1.4704 0.9804,-1.3072 0.8652,-1.1536 0.7572,-1.0096 0.6564,-0.8752 0.5628,-0.7504 0.4764,-0.6352 0.3972,-0.5296 0.3252,-0.4336 0.2604,-0.3472 0.2028,-0.2704 0.1524,-0.2032 0.1092,-0.1456 0.0732,-0.0976 0.0444,-0.0592 0.0228,-0.0304 0.008,-0.0112 0.001,-0.002 0.001,-0.002 0.008,-0.0112 0.0228,-0.0304 0.0444,-0.0592 0.0732,-0.0976 0.1092,-0.1456 0.1524,-0.2032 0.2028,-0.2704 0.2604,-0.3472 L 228,268.4 l 0.3972,-0.5296 0.4764,-0.6352 0.5628,-0.7504 0.6564,-0.8752 0.7572,-1.0096 0.8652,-1.1536 0.9804,-1.3072 1.1028,-1.4704 1.2324,-1.6432 1.3692,-1.8256 1.5132,-2.0176 1.6644,-2.2192 1.8228,-2.4304 1.9884,-2.6512 2.1612,-2.8816 2.3412,-3.1216 2.5284,-3.3712 2.7228,-3.6304 2.9244,-3.8992 3.1332,-4.1776 3.3492,-4.4656 3.5724,-4.7632 3.8028,-5.0704 4.0404,-5.3872 4.2852,-5.7136 4.5372,-6.0496 4.7964,-6.3952 5.0628,-6.7504 5.3364,-7.1152 5.6172,-7.4896 5.9052,-7.8736 6.2004,-8.2672 6.5028,-8.6704 6.8124,-9.0832 7.1292,-9.5056 7.4532,-9.9376 7.7844,-10.3792 8.1228,-10.8304 8.4684,-11.2912 L 376.8,70"
         id="path6199" />
      <path
         style="fill:none;stroke:#000000;stroke-width:1.73989916;stroke-miterlimit:4;stroke-dasharray:none"
         inkscape:connector-curvature="0"
         class="grid-line"
         d="m 150,500 8.8212,-11.7616 8.4684,-11.2912 8.1228,-10.8304 7.7844,-10.3792 7.4532,-9.9376 7.1292,-9.5056 6.8124,-9.0832 6.5028,-8.6704 6.2004,-8.2672 5.9052,-7.8736 5.6172,-7.4896 5.3364,-7.1152 5.0628,-6.7504 4.7964,-6.3952 4.5372,-6.0496 4.2852,-5.7136 4.0404,-5.3872 3.8028,-5.0704 3.5724,-4.7632 3.3492,-4.4656 3.1332,-4.1776 2.9244,-3.8992 2.7228,-3.6304 2.5284,-3.3712 2.3412,-3.1216 2.1612,-2.8816 1.9884,-2.6512 1.8228,-2.4304 1.6644,-2.2192 1.5132,-2.0176 1.3692,-1.8256 1.2324,-1.6432 1.1028,-1.4704 0.9804,-1.3072 0.8652,-1.1536 0.7572,-1.0096 0.6564,-0.8752 0.5628,-0.7504 0.4764,-0.6352 0.3972,-0.5296 0.3252,-0.4336 0.2604,-0.3472 0.2028,-0.2704 0.1524,-0.2032 0.1092,-0.1456 0.0732,-0.0976 0.0444,-0.0592 0.0228,-0.0304 0.008,-0.0112 L 300,300 l 10e-4,-0.002 0.008,-0.0112 0.0228,-0.0304 0.0444,-0.0592 0.0732,-0.0976 0.1092,-0.1456 0.1524,-0.2032 0.2028,-0.2704 0.2604,-0.3472 0.3252,-0.4336 0.3972,-0.5296 0.4764,-0.6352 0.5628,-0.7504 0.6564,-0.8752 0.7572,-1.0096 0.8652,-1.1536 0.9804,-1.3072 1.1028,-1.4704 1.2324,-1.6432 1.3692,-1.8256 1.5132,-2.0176 1.6644,-2.2192 1.8228,-2.4304 1.9884,-2.6512 2.1612,-2.8816 2.3412,-3.1216 2.5284,-3.3712 2.7228,-3.6304 2.9244,-3.8992 3.1332,-4.1776 3.3492,-4.4656 3.5724,-4.7632 3.8028,-5.0704 4.0404,-5.3872 4.2852,-5.7136 4.5372,-6.0496 4.7964,-6.3952 5.0628,-6.7504 5.3364,-7.1152 5.6172,-7.4896 5.9052,-7.8736 6.2004,-8.2672 6.5028,-8.6704 6.8124,-9.0832 7.1292,-9.5056 7.4532,-9.9376 7.7844,-10.3792 8.1228,-10.8304 8.4684,-11.2912 L 450,100"
         id="path6201" />
    </g>
    <g
       id="g7546"
       transform="matrix(0.15686171,0,0,0.15686171,1.5592503,232.12886)">
      <path
         id="path7472"
         d="m 0,300 v -3 -3 -3 -3 -3 -3 -3 -3 -3 -3 -3 -3 -3 -3 -3 -3 -3 -3 -3 -3 -3 -3 -3 -3 -3 -3 -3 -3 -3 -3 -3 -3 -3 -3 -3 -3 -3 -3 -3 -3 -3 -3 -3 -3 -3 -3 -3 -3 -3 -3 -3 -3 -3 -3 -3 -3 -3 -3 -3 -3 -3 -3 -3 -3 -3 -3 V 99 96 93 90 87 84 81 78 75 72 69 66 63 60 57 54 51 48 45 42 39 36 33 30 27 24 21 18 15 12 9 6 3 0"
         class="grid-line"
         inkscape:connector-curvature="0"
         style="fill:none;stroke:#000000;stroke-width:1" />
      <path
         id="path7474"
         d="m 30,300 v -3 -3 -3 -3 -3 -3 -3 -3 -3 -3 -3 -3 -3 -3 -3 -3 -3 -3 -3 -3 -3 -3 -3 -3 -3 -3 -3 -3 -3 -3 -3 -3 -3 -3 -3 -3 -3 -3 -3 -3 -3 -3 -3 -3 -3 -3 -3 -3 -3 -3 -3 -3 -3 -3 -3 -3 -3 -3 -3 -3 -3 -3 -3 -3 -3 -3 V 99 96 93 90 87 84 81 78 75 72 69 66 63 60 57 54 51 48 45 42 39 36 33 30 27 24 21 18 15 12 9 6 3 0"
         class="grid-line"
         inkscape:connector-curvature="0"
         style="fill:none;stroke:#000000;stroke-width:1" />
      <path
         id="path7476"
         d="m 60,300 v -3 -3 -3 -3 -3 -3 -3 -3 -3 -3 -3 -3 -3 -3 -3 -3 -3 -3 -3 -3 -3 -3 -3 -3 -3 -3 -3 -3 -3 -3 -3 -3 -3 -3 -3 -3 -3 -3 -3 -3 -3 -3 -3 -3 -3 -3 -3 -3 -3 -3 -3 -3 -3 -3 -3 -3 -3 -3 -3 -3 -3 -3 -3 -3 -3 -3 V 99 96 93 90 87 84 81 78 75 72 69 66 63 60 57 54 51 48 45 42 39 36 33 30 27 24 21 18 15 12 9 6 3 0"
         class="grid-line"
         inkscape:connector-curvature="0"
         style="fill:none;stroke:#000000;stroke-width:1" />
      <path
         id="path7478"
         d="m 90,300 v -3 -3 -3 -3 -3 -3 -3 -3 -3 -3 -3 -3 -3 -3 -3 -3 -3 -3 -3 -3 -3 -3 -3 -3 -3 -3 -3 -3 -3 -3 -3 -3 -3 -3 -3 -3 -3 -3 -3 -3 -3 -3 -3 -3 -3 -3 -3 -3 -3 -3 -3 -3 -3 -3 -3 -3 -3 -3 -3 -3 -3 -3 -3 -3 -3 -3 V 99 96 93 90 87 84 81 78 75 72 69 66 63 60 57 54 51 48 45 42 39 36 33 30 27 24 21 18 15 12 9 6 3 0"
         class="grid-line"
         inkscape:connector-curvature="0"
         style="fill:none;stroke:#000000;stroke-width:1" />
      <path
         id="path7480"
         d="m 120,300 v -3 -3 -3 -3 -3 -3 -3 -3 -3 -3 -3 -3 -3 -3 -3 -3 -3 -3 -3 -3 -3 -3 -3 -3 -3 -3 -3 -3 -3 -3 -3 -3 -3 -3 -3 -3 -3 -3 -3 -3 -3 -3 -3 -3 -3 -3 -3 -3 -3 -3 -3 -3 -3 -3 -3 -3 -3 -3 -3 -3 -3 -3 -3 -3 -3 -3 V 99 96 93 90 87 84 81 78 75 72 69 66 63 60 57 54 51 48 45 42 39 36 33 30 27 24 21 18 15 12 9 6 3 0"
         class="grid-line"
         inkscape:connector-curvature="0"
         style="fill:none;stroke:#000000;stroke-width:1" />
      <path
         id="path7482"
         d="m 150,300 v -3 -3 -3 -3 -3 -3 -3 -3 -3 -3 -3 -3 -3 -3 -3 -3 -3 -3 -3 -3 -3 -3 -3 -3 -3 -3 -3 -3 -3 -3 -3 -3 -3 -3 -3 -3 -3 -3 -3 -3 -3 -3 -3 -3 -3 -3 -3 -3 -3 -3 -3 -3 -3 -3 -3 -3 -3 -3 -3 -3 -3 -3 -3 -3 -3 -3 V 99 96 93 90 87 84 81 78 75 72 69 66 63 60 57 54 51 48 45 42 39 36 33 30 27 24 21 18 15 12 9 6 3 0"
         class="grid-line"
         inkscape:connector-curvature="0"
         style="fill:none;stroke:#000000;stroke-width:1" />
      <path
         id="path7484"
         d="m 180,300 v -3 -3 -3 -3 -3 -3 -3 -3 -3 -3 -3 -3 -3 -3 -3 -3 -3 -3 -3 -3 -3 -3 -3 -3 -3 -3 -3 -3 -3 -3 -3 -3 -3 -3 -3 -3 -3 -3 -3 -3 -3 -3 -3 -3 -3 -3 -3 -3 -3 -3 -3 -3 -3 -3 -3 -3 -3 -3 -3 -3 -3 -3 -3 -3 -3 -3 V 99 96 93 90 87 84 81 78 75 72 69 66 63 60 57 54 51 48 45 42 39 36 33 30 27 24 21 18 15 12 9 6 3 0"
         class="grid-line"
         inkscape:connector-curvature="0"
         style="fill:none;stroke:#000000;stroke-width:1" />
      <path
         id="path7486"
         d="m 210,300 v -3 -3 -3 -3 -3 -3 -3 -3 -3 -3 -3 -3 -3 -3 -3 -3 -3 -3 -3 -3 -3 -3 -3 -3 -3 -3 -3 -3 -3 -3 -3 -3 -3 -3 -3 -3 -3 -3 -3 -3 -3 -3 -3 -3 -3 -3 -3 -3 -3 -3 -3 -3 -3 -3 -3 -3 -3 -3 -3 -3 -3 -3 -3 -3 -3 -3 V 99 96 93 90 87 84 81 78 75 72 69 66 63 60 57 54 51 48 45 42 39 36 33 30 27 24 21 18 15 12 9 6 3 0"
         class="grid-line"
         inkscape:connector-curvature="0"
         style="fill:none;stroke:#000000;stroke-width:1" />
      <path
         id="path7488"
         d="m 240,300 v -3 -3 -3 -3 -3 -3 -3 -3 -3 -3 -3 -3 -3 -3 -3 -3 -3 -3 -3 -3 -3 -3 -3 -3 -3 -3 -3 -3 -3 -3 -3 -3 -3 -3 -3 -3 -3 -3 -3 -3 -3 -3 -3 -3 -3 -3 -3 -3 -3 -3 -3 -3 -3 -3 -3 -3 -3 -3 -3 -3 -3 -3 -3 -3 -3 -3 V 99 96 93 90 87 84 81 78 75 72 69 66 63 60 57 54 51 48 45 42 39 36 33 30 27 24 21 18 15 12 9 6 3 0"
         class="grid-line"
         inkscape:connector-curvature="0"
         style="fill:none;stroke:#000000;stroke-width:1" />
      <path
         id="path7490"
         d="m 270,300 v -3 -3 -3 -3 -3 -3 -3 -3 -3 -3 -3 -3 -3 -3 -3 -3 -3 -3 -3 -3 -3 -3 -3 -3 -3 -3 -3 -3 -3 -3 -3 -3 -3 -3 -3 -3 -3 -3 -3 -3 -3 -3 -3 -3 -3 -3 -3 -3 -3 -3 -3 -3 -3 -3 -3 -3 -3 -3 -3 -3 -3 -3 -3 -3 -3 -3 V 99 96 93 90 87 84 81 78 75 72 69 66 63 60 57 54 51 48 45 42 39 36 33 30 27 24 21 18 15 12 9 6 3 0"
         class="grid-line"
         inkscape:connector-curvature="0"
         style="fill:none;stroke:#000000;stroke-width:1" />
      <path
         id="path7492"
         d="m 300,300 v -3 -3 -3 -3 -3 -3 -3 -3 -3 -3 -3 -3 -3 -3 -3 -3 -3 -3 -3 -3 -3 -3 -3 -3 -3 -3 -3 -3 -3 -3 -3 -3 -3 -3 -3 -3 -3 -3 -3 -3 -3 -3 -3 -3 -3 -3 -3 -3 -3 -3 -3 -3 -3 -3 -3 -3 -3 -3 -3 -3 -3 -3 -3 -3 -3 -3 V 99 96 93 90 87 84 81 78 75 72 69 66 63 60 57 54 51 48 45 42 39 36 33 30 27 24 21 18 15 12 9 6 3 0"
         class="grid-line"
         inkscape:connector-curvature="0"
         style="fill:none;stroke:#000000;stroke-width:1" />
      <path
         id="path7494"
         d="m 0,300 h 3 3 3 3 3 3 3 3 3 3 3 3 3 3 3 3 3 3 3 3 3 3 3 3 3 3 3 3 3 3 3 3 3 3 3 3 3 3 3 3 3 3 3 3 3 3 3 3 3 3 3 3 3 3 3 3 3 3 3 3 3 3 3 3 3 3 3 3 3 3 3 3 3 3 3 3 3 3 3 3 3 3 3 3 3 3 3 3 3 3 3 3 3 3 3 3 3 3 3 3"
         class="grid-line"
         inkscape:connector-curvature="0"
         style="fill:none;stroke:#000000;stroke-width:1" />
      <path
         id="path7496"
         d="m 0,270 h 3 3 3 3 3 3 3 3 3 3 3 3 3 3 3 3 3 3 3 3 3 3 3 3 3 3 3 3 3 3 3 3 3 3 3 3 3 3 3 3 3 3 3 3 3 3 3 3 3 3 3 3 3 3 3 3 3 3 3 3 3 3 3 3 3 3 3 3 3 3 3 3 3 3 3 3 3 3 3 3 3 3 3 3 3 3 3 3 3 3 3 3 3 3 3 3 3 3 3 3"
         class="grid-line"
         inkscape:connector-curvature="0"
         style="fill:none;stroke:#000000;stroke-width:1" />
      <path
         id="path7498"
         d="m 0,240 h 3 3 3 3 3 3 3 3 3 3 3 3 3 3 3 3 3 3 3 3 3 3 3 3 3 3 3 3 3 3 3 3 3 3 3 3 3 3 3 3 3 3 3 3 3 3 3 3 3 3 3 3 3 3 3 3 3 3 3 3 3 3 3 3 3 3 3 3 3 3 3 3 3 3 3 3 3 3 3 3 3 3 3 3 3 3 3 3 3 3 3 3 3 3 3 3 3 3 3 3"
         class="grid-line"
         inkscape:connector-curvature="0"
         style="fill:none;stroke:#000000;stroke-width:1" />
      <path
         id="path7500"
         d="m 0,210 h 3 3 3 3 3 3 3 3 3 3 3 3 3 3 3 3 3 3 3 3 3 3 3 3 3 3 3 3 3 3 3 3 3 3 3 3 3 3 3 3 3 3 3 3 3 3 3 3 3 3 3 3 3 3 3 3 3 3 3 3 3 3 3 3 3 3 3 3 3 3 3 3 3 3 3 3 3 3 3 3 3 3 3 3 3 3 3 3 3 3 3 3 3 3 3 3 3 3 3 3"
         class="grid-line"
         inkscape:connector-curvature="0"
         style="fill:none;stroke:#000000;stroke-width:1" />
      <path
         id="path7502"
         d="m 0,180 h 3 3 3 3 3 3 3 3 3 3 3 3 3 3 3 3 3 3 3 3 3 3 3 3 3 3 3 3 3 3 3 3 3 3 3 3 3 3 3 3 3 3 3 3 3 3 3 3 3 3 3 3 3 3 3 3 3 3 3 3 3 3 3 3 3 3 3 3 3 3 3 3 3 3 3 3 3 3 3 3 3 3 3 3 3 3 3 3 3 3 3 3 3 3 3 3 3 3 3 3"
         class="grid-line"
         inkscape:connector-curvature="0"
         style="fill:none;stroke:#000000;stroke-width:1" />
      <path
         id="path7504"
         d="m 0,150 h 3 3 3 3 3 3 3 3 3 3 3 3 3 3 3 3 3 3 3 3 3 3 3 3 3 3 3 3 3 3 3 3 3 3 3 3 3 3 3 3 3 3 3 3 3 3 3 3 3 3 3 3 3 3 3 3 3 3 3 3 3 3 3 3 3 3 3 3 3 3 3 3 3 3 3 3 3 3 3 3 3 3 3 3 3 3 3 3 3 3 3 3 3 3 3 3 3 3 3 3"
         class="grid-line"
         inkscape:connector-curvature="0"
         style="fill:none;stroke:#000000;stroke-width:1" />
      <path
         id="path7506"
         d="m 0,120 h 3 3 3 3 3 3 3 3 3 3 3 3 3 3 3 3 3 3 3 3 3 3 3 3 3 3 3 3 3 3 3 3 3 3 3 3 3 3 3 3 3 3 3 3 3 3 3 3 3 3 3 3 3 3 3 3 3 3 3 3 3 3 3 3 3 3 3 3 3 3 3 3 3 3 3 3 3 3 3 3 3 3 3 3 3 3 3 3 3 3 3 3 3 3 3 3 3 3 3 3"
         class="grid-line"
         inkscape:connector-curvature="0"
         style="fill:none;stroke:#000000;stroke-width:1" />
      <path
         id="path7508"
         d="m 0,90 h 3 3 3 3 3 3 3 3 3 3 3 3 3 3 3 3 3 3 3 3 3 3 3 3 3 3 3 3 3 3 3 3 3 3 3 3 3 3 3 3 3 3 3 3 3 3 3 3 3 3 3 3 3 3 3 3 3 3 3 3 3 3 3 3 3 3 3 3 3 3 3 3 3 3 3 3 3 3 3 3 3 3 3 3 3 3 3 3 3 3 3 3 3 3 3 3 3 3 3 3"
         class="grid-line"
         inkscape:connector-curvature="0"
         style="fill:none;stroke:#000000;stroke-width:1" />
      <path
         id="path7510"
         d="m 0,60 h 3 3 3 3 3 3 3 3 3 3 3 3 3 3 3 3 3 3 3 3 3 3 3 3 3 3 3 3 3 3 3 3 3 3 3 3 3 3 3 3 3 3 3 3 3 3 3 3 3 3 3 3 3 3 3 3 3 3 3 3 3 3 3 3 3 3 3 3 3 3 3 3 3 3 3 3 3 3 3 3 3 3 3 3 3 3 3 3 3 3 3 3 3 3 3 3 3 3 3 3"
         class="grid-line"
         inkscape:connector-curvature="0"
         style="fill:none;stroke:#000000;stroke-width:1" />
      <path
         id="path7512"
         d="m 0,30 h 3 3 3 3 3 3 3 3 3 3 3 3 3 3 3 3 3 3 3 3 3 3 3 3 3 3 3 3 3 3 3 3 3 3 3 3 3 3 3 3 3 3 3 3 3 3 3 3 3 3 3 3 3 3 3 3 3 3 3 3 3 3 3 3 3 3 3 3 3 3 3 3 3 3 3 3 3 3 3 3 3 3 3 3 3 3 3 3 3 3 3 3 3 3 3 3 3 3 3 3"
         class="grid-line"
         inkscape:connector-curvature="0"
         style="fill:none;stroke:#000000;stroke-width:1" />
      <path
         id="path7514"
         d="m 0,0 h 3 3 3 3 3 3 3 3 3 3 3 3 3 3 3 3 3 3 3 3 3 3 3 3 3 3 3 3 3 3 3 3 3 3 3 3 3 3 3 3 3 3 3 3 3 3 3 3 3 3 3 3 3 3 3 3 3 3 3 3 3 3 3 3 3 3 3 3 3 3 3 3 3 3 3 3 3 3 3 3 3 3 3 3 3 3 3 3 3 3 3 3 3 3 3 3 3 3 3 3"
         class="grid-line"
         inkscape:connector-curvature="0"
         style="fill:none;stroke:#000000;stroke-width:1" />
    </g>
    <path
       style="fill:none;stroke:#000000;stroke-width:0.26499999;stroke-linecap:square;stroke-linejoin:miter;stroke-miterlimit:4;stroke-dasharray:none;stroke-opacity:1;marker-end:url(#TriangleOutL)"
       d="m 59.422744,251.9842 c 0,0 6.236605,-4.91369 12.284221,0"
       id="path7548"
       inkscape:connector-curvature="0" />
    <text
       xml:space="preserve"
       style="font-style:italic;font-variant:normal;font-weight:normal;font-stretch:normal;font-size:5.64444447px;line-height:1.25;font-family:serif;-inkscape-font-specification:'serif Italic';letter-spacing:0px;word-spacing:0px;fill:#000000;fill-opacity:1;stroke:none;stroke-width:0.26458332"
       x="65.054588"
       y="246.69252"
       id="text7866"><tspan
         sodipodi:role="line"
         id="tspan7864"
         x="65.054588"
         y="246.69252"
         style="font-style:italic;font-variant:normal;font-weight:normal;font-stretch:normal;font-size:5.64444447px;font-family:serif;-inkscape-font-specification:'serif Italic';stroke-width:0.26458332">f</tspan></text>
  </g>
</svg>
