<?xml version="1.0" encoding="UTF-8" standalone="no"?>
<svg
   xmlns:dc="http://purl.org/dc/elements/1.1/"
   xmlns:cc="http://creativecommons.org/ns#"
   xmlns:rdf="http://www.w3.org/1999/02/22-rdf-syntax-ns#"
   xmlns:svg="http://www.w3.org/2000/svg"
   xmlns="http://www.w3.org/2000/svg"
   xmlns:sodipodi="http://sodipodi.sourceforge.net/DTD/sodipodi-0.dtd"
   xmlns:inkscape="http://www.inkscape.org/namespaces/inkscape"
   version="1.1"
   id="svg4652"
   sodipodi:docname="grid-transformed-linear.svg"
   width="500"
   height="178"
   inkscape:version="0.92.1 r15371">
  <metadata
     id="metadata4658">
    <rdf:RDF>
      <cc:Work
         rdf:about="">
        <dc:format>image/svg+xml</dc:format>
        <dc:type
           rdf:resource="http://purl.org/dc/dcmitype/StillImage" />
        <dc:title></dc:title>
      </cc:Work>
    </rdf:RDF>
  </metadata>
  <defs
     id="defs4656" />
  <sodipodi:namedview
     pagecolor="#ffffff"
     bordercolor="#666666"
     borderopacity="1"
     objecttolerance="10"
     gridtolerance="10"
     guidetolerance="10"
     inkscape:pageopacity="0"
     inkscape:pageshadow="2"
     inkscape:window-width="2554"
     inkscape:window-height="1409"
     id="namedview4654"
     showgrid="false"
     inkscape:zoom="2.1973343"
     inkscape:cx="249.30794"
     inkscape:cy="53.419835"
     inkscape:window-x="0"
     inkscape:window-y="0"
     inkscape:window-maximized="0"
     inkscape:current-layer="svg4652" />
  <path
     class="grid-line"
     d="m 3.4660338,174.94322 1.6478186,-1.70778 1.64776,-1.70772 1.6478187,-1.70777 1.6477599,-1.70773 1.647818,-1.70777 1.647759,-1.70772 1.647819,-1.70778 1.647761,-1.70772 1.647817,-1.70773 1.64776,-1.70777 1.64776,-1.70772 1.647817,-1.70778 1.64776,-1.70772 1.647817,-1.70777 1.64776,-1.70773 1.64782,-1.70777 1.64776,-1.70772 1.647818,-1.70778 1.64776,-1.70772 1.647817,-1.70778 1.64776,-1.70772 1.64782,-1.70777 1.647761,-1.70773 1.647817,-1.70777 1.64776,-1.70772 1.64782,-1.70773 1.647756,-1.70777 1.64782,-1.70772 1.647762,-1.70778 1.647761,-1.70772 1.647813,-1.70778 1.647761,-1.70772 1.647818,-1.70777 1.647762,-1.70773 1.647817,-1.70772 1.647762,-1.70777 1.647817,-1.70778 1.647762,-1.70772 1.647817,-1.70772 1.647757,-1.70778 1.647823,-1.70772 1.647756,-1.70778 1.647818,-1.70772 1.647761,-1.70777 1.647823,-1.70773 1.647757,-1.70777 1.647817,-1.70772 1.647762,-1.70773 1.647817,-1.70777 1.647757,-1.70772 1.647823,-1.70778 1.647761,-1.70772 1.647818,-1.70778 1.647756,-1.70772 1.647818,-1.70777 1.647762,-1.70773 1.647817,-1.70772 1.647762,-1.70777 1.647815,-1.70778 1.64776,-1.70772 1.64782,-1.70778 1.64775,-1.70772 1.64783,-1.70772 1.64776,-1.70778 1.64781,-1.70772 1.64776,-1.70777 1.64783,-1.70773 1.64775,-1.70777 1.64782,-1.70772 1.64776,-1.70778 1.64782,-1.70772 1.64776,-1.70773 1.64782,-1.70777 1.64776,-1.70772 1.64776,-1.70778 1.64781,-1.70777 1.64777,-1.70772 1.64781,-1.70773 1.64776,-1.70777 1.64782,-1.70772 1.64776,-1.70778 1.64782,-1.70772 1.64776,-1.70778 1.64782,-1.70772 1.64776,-1.70777 1.64782,-1.70773 1.64776,-1.70772 1.64781,-1.70777 1.64777,-1.70773 1.64781,-1.70777 1.64776,-1.70772 1.64776,-1.70778 1.64782,-1.70772 1.64776,-1.70778 1.64782,-1.70772 1.64776,-1.70772 1.64782,-1.70778 1.64776,-1.70772 1.64782,-1.70777 1.64776,-1.70778"
     id="path4608"
     inkscape:connector-curvature="0"
     style="fill:none;stroke:#000000;stroke-width:0.75590551;stroke-miterlimit:4;stroke-dasharray:none" />
  <path
     class="grid-line"
     d="m 36.421814,174.94322 1.64776,-1.70778 1.64782,-1.70772 1.647761,-1.70777 1.647817,-1.70773 1.64776,-1.70777 1.64782,-1.70772 1.647756,-1.70778 1.64782,-1.70772 1.647762,-1.70773 1.647761,-1.70777 1.647813,-1.70772 1.647761,-1.70778 1.647818,-1.70772 1.647762,-1.70777 1.647817,-1.70773 1.647762,-1.70777 1.647817,-1.70772 1.647762,-1.70778 1.647817,-1.70772 1.647757,-1.70778 1.647823,-1.70772 1.647756,-1.70777 1.647818,-1.70773 1.647761,-1.70777 1.647823,-1.70772 1.647757,-1.70773 1.647817,-1.70777 1.647762,-1.70772 1.647817,-1.70778 1.647757,-1.70772 1.647823,-1.70778 1.647761,-1.70772 1.647818,-1.70777 1.647756,-1.70773 1.647818,-1.70772 1.647762,-1.70777 1.647817,-1.70778 1.647762,-1.70772 1.647815,-1.70772 1.64776,-1.70778 1.64782,-1.70772 1.64775,-1.70778 1.64783,-1.70772 1.64776,-1.70777 1.64781,-1.70773 1.64776,-1.70777 1.64783,-1.70772 1.64775,-1.70773 1.64782,-1.70777 1.64776,-1.70772 1.64782,-1.70778 1.64776,-1.70772 1.64782,-1.70778 1.64776,-1.70772 1.64776,-1.70777 1.64781,-1.70773 1.64777,-1.70772 1.64781,-1.70777 1.64776,-1.70778 1.64782,-1.70772 1.64776,-1.70778 1.64782,-1.70772 1.64776,-1.70772 1.64782,-1.70778 1.64776,-1.70772 1.64782,-1.70777 1.64776,-1.70773 1.64781,-1.70777 1.64777,-1.70772 1.64781,-1.70778 1.64776,-1.70772 1.64776,-1.70773 1.64782,-1.70777 1.64776,-1.70772 1.64782,-1.70778 1.64776,-1.70777 1.64782,-1.70772 1.64776,-1.70773 1.64782,-1.70777 1.64776,-1.70772 1.64782,-1.70778 1.64776,-1.70772 1.64781,-1.70778 1.64776,-1.70772 1.64782,-1.70777 1.64776,-1.70773 1.64782,-1.70772 1.64776,-1.70777 1.64782,-1.70773 1.64776,-1.70777 1.64782,-1.70772 1.64776,-1.70778 1.64782,-1.70772 1.64775,-1.70778 1.64782,-1.70772 1.64776,-1.70772 1.64782,-1.70778 1.64776,-1.70772 1.64782,-1.70777 1.64776,-1.70778"
     id="path4610"
     inkscape:connector-curvature="0"
     style="fill:none;stroke:#000000;stroke-width:0.75590551;stroke-miterlimit:4;stroke-dasharray:none" />
  <path
     class="grid-line"
     d="m 69.377537,174.94322 1.647823,-1.70778 1.647756,-1.70772 1.647818,-1.70777 1.647761,-1.70773 1.647823,-1.70777 1.647757,-1.70772 1.647817,-1.70778 1.647762,-1.70772 1.647817,-1.70773 1.647757,-1.70777 1.647823,-1.70772 1.647761,-1.70778 1.647818,-1.70772 1.647756,-1.70777 1.647818,-1.70773 1.647762,-1.70777 1.647817,-1.70772 1.647762,-1.70778 1.647815,-1.70772 1.64776,-1.70778 1.64782,-1.70772 1.64775,-1.70777 1.64783,-1.70773 1.64776,-1.70777 1.64781,-1.70772 1.64776,-1.70773 1.64783,-1.70777 1.64775,-1.70772 1.64782,-1.70778 1.64776,-1.70772 1.64782,-1.70778 1.64776,-1.70772 1.64782,-1.70777 1.64776,-1.70773 1.64776,-1.70772 1.64781,-1.70777 1.64777,-1.70778 1.64781,-1.70772 1.64776,-1.70772 1.64782,-1.70778 1.64776,-1.70772 1.64782,-1.70778 1.64776,-1.70772 1.64782,-1.70777 1.64776,-1.70773 1.64782,-1.70777 1.64776,-1.70772 1.64781,-1.70773 1.64777,-1.70777 1.64781,-1.70772 1.64776,-1.70778 1.64776,-1.70772 1.64782,-1.70778 1.64776,-1.70772 1.64782,-1.70777 1.64776,-1.70773 1.64782,-1.70772 1.64776,-1.70777 1.64782,-1.70778 1.64776,-1.70772 1.64782,-1.70778 1.64776,-1.70772 1.64781,-1.70772 1.64776,-1.70778 1.64782,-1.70772 1.64776,-1.70777 1.64782,-1.70773 1.64776,-1.70777 1.64782,-1.70772 1.64776,-1.70778 1.64782,-1.70772 1.64776,-1.70773 1.64782,-1.70777 1.64775,-1.70772 1.64782,-1.70778 1.64776,-1.70777 1.64782,-1.70772 1.64776,-1.70773 1.64782,-1.70777 1.64776,-1.70772 1.64782,-1.70778 1.64776,-1.70772 1.64782,-1.70778 1.64776,-1.70772 1.64781,-1.70777 1.64776,-1.70773 1.64782,-1.70772 1.64776,-1.70777 1.64779,-1.70773 1.64779,-1.70777 1.64779,-1.70772 1.64779,-1.70778 1.64779,-1.70772 1.64779,-1.70778 1.64779,-1.70772 1.64778,-1.70772 1.64779,-1.70778 1.64779,-1.70772 1.64779,-1.70777 1.64779,-1.70778"
     id="path4612"
     inkscape:connector-curvature="0"
     style="fill:none;stroke:#000000;stroke-width:0.75590551;stroke-miterlimit:4;stroke-dasharray:none" />
  <path
     class="grid-line"
     d="m 102.33332,174.94322 1.64782,-1.70778 1.64775,-1.70772 1.64783,-1.70777 1.64776,-1.70773 1.64781,-1.70777 1.64776,-1.70772 1.64783,-1.70778 1.64775,-1.70772 1.64782,-1.70773 1.64776,-1.70777 1.64782,-1.70772 1.64776,-1.70778 1.64782,-1.70772 1.64776,-1.70777 1.64776,-1.70773 1.64781,-1.70777 1.64777,-1.70772 1.64781,-1.70778 1.64776,-1.70772 1.64782,-1.70778 1.64776,-1.70772 1.64782,-1.70777 1.64776,-1.70773 1.64782,-1.70777 1.64776,-1.70772 1.64782,-1.70773 1.64776,-1.70777 1.64781,-1.70772 1.64777,-1.70778 1.64781,-1.70772 1.64776,-1.70778 1.64776,-1.70772 1.64782,-1.70777 1.64776,-1.70773 1.64782,-1.70772 1.64776,-1.70777 1.64782,-1.70778 1.64776,-1.70772 1.64782,-1.70772 1.64776,-1.70778 1.64782,-1.70772 1.64776,-1.70778 1.64781,-1.70772 1.64776,-1.70777 1.64782,-1.70773 1.64776,-1.70777 1.64782,-1.70772 1.64776,-1.70773 1.64782,-1.70777 1.64776,-1.70772 1.64782,-1.70778 1.64776,-1.70772 1.64782,-1.70778 1.64775,-1.70772 1.64782,-1.70777 1.64776,-1.70773 1.64782,-1.70772 1.64776,-1.70777 1.64782,-1.70778 1.64776,-1.70772 1.64782,-1.70778 1.64776,-1.70772 1.64782,-1.70772 1.64776,-1.70778 1.64781,-1.70772 1.64776,-1.70777 1.64782,-1.70773 1.64776,-1.70777 1.64779,-1.70772 1.64779,-1.70778 1.64779,-1.70772 1.64779,-1.70773 1.64779,-1.70777 1.64779,-1.70772 1.64779,-1.70778 1.64778,-1.70777 1.64779,-1.70772 1.64779,-1.70773 1.64779,-1.70777 1.64779,-1.70772 1.64778,-1.70778 1.6478,-1.70772 1.64778,-1.70778 1.64779,-1.70772 1.64779,-1.70777 1.64779,-1.70773 1.64779,-1.70772 1.64778,-1.70777 1.6478,-1.70773 1.64778,-1.70777 1.64779,-1.70772 1.64777,-1.70778 1.64778,-1.70772 1.6478,-1.70778 1.64779,-1.70772 1.64778,-1.70772 1.64779,-1.70778 1.64779,-1.70772 1.64779,-1.70777 1.64778,-1.70778"
     id="path4614"
     inkscape:connector-curvature="0"
     style="fill:none;stroke:#000000;stroke-width:0.75590551;stroke-miterlimit:4;stroke-dasharray:none" />
  <path
     class="grid-line"
     d="m 135.2891,174.94322 1.64776,-1.70778 1.64782,-1.70772 1.64776,-1.70777 1.64782,-1.70773 1.64776,-1.70777 1.64782,-1.70772 1.64776,-1.70778 1.64781,-1.70772 1.64777,-1.70773 1.64781,-1.70777 1.64776,-1.70772 1.64776,-1.70778 1.64782,-1.70772 1.64776,-1.70777 1.64782,-1.70773 1.64776,-1.70777 1.64782,-1.70772 1.64776,-1.70778 1.64782,-1.70772 1.64776,-1.70778 1.64782,-1.70772 1.64776,-1.70777 1.64781,-1.70773 1.64776,-1.70777 1.64782,-1.70772 1.64776,-1.70773 1.64782,-1.70777 1.64776,-1.70772 1.64782,-1.70778 1.64776,-1.70772 1.64782,-1.70778 1.64776,-1.70772 1.64782,-1.70777 1.64775,-1.70773 1.64782,-1.70772 1.64776,-1.70777 1.64782,-1.70778 1.64776,-1.70772 1.64782,-1.70772 1.64776,-1.70778 1.64782,-1.70772 1.64776,-1.70778 1.64782,-1.70772 1.64776,-1.70777 1.64781,-1.70773 1.64776,-1.70777 1.64782,-1.70772 1.64776,-1.70773 1.64779,-1.70777 1.64779,-1.70772 1.64779,-1.70778 1.64779,-1.70772 1.64779,-1.70778 1.64779,-1.70772 1.64779,-1.70777 1.64778,-1.70773 1.64779,-1.70772 1.64779,-1.70777 1.64779,-1.70778 1.64779,-1.70772 1.64778,-1.70778 1.6478,-1.70772 1.64778,-1.70772 1.64779,-1.70778 1.64779,-1.70772 1.64779,-1.70777 1.64779,-1.70773 1.64778,-1.70777 1.6478,-1.70772 1.64778,-1.70778 1.64779,-1.70772 1.64777,-1.70773 1.64778,-1.70777 1.6478,-1.70772 1.64779,-1.70778 1.64778,-1.70777 1.64779,-1.70772 1.64779,-1.70773 1.64779,-1.70777 1.64778,-1.70772 1.64779,-1.70778 1.64779,-1.70772 1.64779,-1.70778 1.64779,-1.70772 1.64779,-1.70777 1.64779,-1.70773 1.64779,-1.70772 1.64778,-1.70777 1.64779,-1.70773 1.64779,-1.70777 1.64779,-1.70772 1.64779,-1.70778 1.64778,-1.70772 1.6478,-1.70778 1.64778,-1.70772 1.6478,-1.70772 1.64778,-1.70778 1.64779,-1.70772 1.64779,-1.70777 1.64778,-1.70778"
     id="path4616"
     inkscape:connector-curvature="0"
     style="fill:none;stroke:#000000;stroke-width:0.75590551;stroke-miterlimit:4;stroke-dasharray:none" />
  <path
     class="grid-line"
     d="m 168.24483,174.94322 1.64782,-1.70778 1.64776,-1.70772 1.64781,-1.70777 1.64776,-1.70773 1.64782,-1.70777 1.64776,-1.70772 1.64782,-1.70778 1.64776,-1.70772 1.64782,-1.70773 1.64776,-1.70777 1.64782,-1.70772 1.64776,-1.70778 1.64782,-1.70772 1.64775,-1.70777 1.64782,-1.70773 1.64776,-1.70777 1.64782,-1.70772 1.64776,-1.70778 1.64782,-1.70772 1.64776,-1.70778 1.64782,-1.70772 1.64776,-1.70777 1.64782,-1.70773 1.64776,-1.70777 1.64781,-1.70772 1.64776,-1.70773 1.64782,-1.70777 1.64776,-1.70772 1.64779,-1.70778 1.64779,-1.70772 1.64779,-1.70778 1.64779,-1.70772 1.64779,-1.70777 1.64779,-1.70773 1.64779,-1.70772 1.64778,-1.70777 1.64779,-1.70778 1.64779,-1.70772 1.64779,-1.70772 1.64779,-1.70778 1.64778,-1.70772 1.6478,-1.70778 1.64778,-1.70772 1.64779,-1.70777 1.64779,-1.70773 1.64779,-1.70777 1.64779,-1.70772 1.64778,-1.70773 1.6478,-1.70777 1.64778,-1.70772 1.64779,-1.70778 1.64777,-1.70772 1.64778,-1.70778 1.6478,-1.70772 1.64779,-1.70777 1.64778,-1.70773 1.64779,-1.70772 1.64779,-1.70777 1.64779,-1.70778 1.64778,-1.70772 1.64779,-1.70778 1.64779,-1.70772 1.64779,-1.70772 1.64779,-1.70778 1.64779,-1.70772 1.64779,-1.70777 1.64779,-1.70773 1.64778,-1.70777 1.64779,-1.70772 1.64779,-1.70778 1.64779,-1.70772 1.64779,-1.70773 1.64778,-1.70777 1.6478,-1.70772 1.64778,-1.70778 1.6478,-1.70777 1.64778,-1.70772 1.64779,-1.70773 1.64779,-1.70777 1.64778,-1.70772 1.6478,-1.70778 1.64778,-1.70772 1.6478,-1.70778 1.64778,-1.70772 1.64779,-1.70777 1.64779,-1.70773 1.64778,-1.70772 1.6478,-1.70777 1.64778,-1.70773 1.64779,-1.70777 1.64779,-1.70772 1.64779,-1.70778 1.64779,-1.70772 1.64779,-1.70778 1.64778,-1.70772 1.64779,-1.70772 1.64779,-1.70778 1.64779,-1.70772 1.64779,-1.70777 1.64779,-1.70778"
     id="path4618"
     inkscape:connector-curvature="0"
     style="fill:none;stroke:#000000;stroke-width:0.75590551;stroke-miterlimit:4;stroke-dasharray:none" />
  <path
     class="grid-line"
     d="m 201.20061,174.94322 1.64782,-1.70778 1.64776,-1.70772 1.64782,-1.70777 1.64776,-1.70773 1.64781,-1.70777 1.64776,-1.70772 1.64782,-1.70778 1.64776,-1.70772 1.64779,-1.70773 1.64779,-1.70777 1.64779,-1.70772 1.64779,-1.70778 1.64779,-1.70772 1.64779,-1.70777 1.64779,-1.70773 1.64778,-1.70777 1.64779,-1.70772 1.64779,-1.70778 1.64779,-1.70772 1.64779,-1.70778 1.64778,-1.70772 1.6478,-1.70777 1.64778,-1.70773 1.64779,-1.70777 1.64779,-1.70772 1.64779,-1.70773 1.64779,-1.70777 1.64778,-1.70772 1.6478,-1.70778 1.64778,-1.70772 1.64779,-1.70778 1.64777,-1.70772 1.64778,-1.70777 1.6478,-1.70773 1.64779,-1.70772 1.64778,-1.70777 1.64779,-1.70778 1.64779,-1.70772 1.64779,-1.70772 1.64778,-1.70778 1.64779,-1.70772 1.64779,-1.70778 1.64779,-1.70772 1.64779,-1.70777 1.64779,-1.70773 1.64779,-1.70777 1.64779,-1.70772 1.64778,-1.70773 1.64779,-1.70777 1.64779,-1.70772 1.64779,-1.70778 1.64779,-1.70772 1.64778,-1.70778 1.6478,-1.70772 1.64778,-1.70777 1.6478,-1.70773 1.64778,-1.70772 1.64779,-1.70777 1.64779,-1.70778 1.64778,-1.70772 1.6478,-1.70778 1.64778,-1.70772 1.6478,-1.70772 1.64778,-1.70778 1.64779,-1.70772 1.64779,-1.70777 1.64778,-1.70773 1.6478,-1.70777 1.64778,-1.70772 1.64779,-1.70778 1.64779,-1.70772 1.64779,-1.70773 1.64779,-1.70777 1.64779,-1.70772 1.64778,-1.70778 1.64779,-1.70777 1.64779,-1.70772 1.64779,-1.70773 1.64779,-1.70777 1.64779,-1.70772 1.64779,-1.70778 1.64779,-1.70772 1.64777,-1.70778 1.6478,-1.70772 1.6478,-1.70777 1.64777,-1.70773 1.6478,-1.70772 1.64777,-1.70777 1.6478,-1.70773 1.64781,-1.70777 1.64776,-1.70772 1.64781,-1.70778 1.64778,-1.70772 1.64776,-1.70778 1.64781,-1.70772 1.6478,-1.70772 1.64777,-1.70778 1.6478,-1.70772 1.64777,-1.70777 1.6478,-1.70778"
     id="path4620"
     inkscape:connector-curvature="0"
     style="fill:none;stroke:#000000;stroke-width:0.75590551;stroke-miterlimit:4;stroke-dasharray:none" />
  <path
     class="grid-line"
     d="m 234.15639,174.94322 1.64778,-1.70778 1.6478,-1.70772 1.64778,-1.70777 1.64779,-1.70773 1.64779,-1.70777 1.64779,-1.70772 1.64779,-1.70778 1.64778,-1.70772 1.6478,-1.70773 1.64778,-1.70777 1.64779,-1.70772 1.64777,-1.70778 1.64778,-1.70772 1.6478,-1.70777 1.64779,-1.70773 1.64778,-1.70777 1.64779,-1.70772 1.64779,-1.70778 1.64779,-1.70772 1.64778,-1.70778 1.64779,-1.70772 1.64779,-1.70777 1.64779,-1.70773 1.64779,-1.70777 1.64779,-1.70772 1.64779,-1.70773 1.64779,-1.70777 1.64778,-1.70772 1.64779,-1.70778 1.64779,-1.70772 1.64779,-1.70778 1.64779,-1.70772 1.64778,-1.70777 1.6478,-1.70773 1.64778,-1.70772 1.6478,-1.70777 1.64778,-1.70778 1.64779,-1.70772 1.64779,-1.70772 1.64778,-1.70778 1.6478,-1.70772 1.64778,-1.70778 1.6478,-1.70772 1.64778,-1.70777 1.64779,-1.70773 1.64779,-1.70777 1.64778,-1.70772 1.6478,-1.70773 1.64778,-1.70777 1.64779,-1.70772 1.64779,-1.70778 1.64779,-1.70772 1.64779,-1.70778 1.64779,-1.70772 1.64778,-1.70777 1.64779,-1.70773 1.64779,-1.70772 1.64779,-1.70777 1.64779,-1.70778 1.64779,-1.70772 1.64779,-1.70778 1.64779,-1.70772 1.64777,-1.70772 1.6478,-1.70778 1.6478,-1.70772 1.64777,-1.70777 1.6478,-1.70773 1.64777,-1.70777 1.6478,-1.70772 1.64781,-1.70778 1.64776,-1.70772 1.64781,-1.70773 1.64778,-1.70777 1.64776,-1.70772 1.64781,-1.70778 1.6478,-1.70777 1.64777,-1.70772 1.6478,-1.70773 1.64777,-1.70777 1.6478,-1.70772 1.6478,-1.70778 1.64777,-1.70772 1.6478,-1.70778 1.64777,-1.70772 1.6478,-1.70777 1.64781,-1.70773 1.64776,-1.70772 1.6478,-1.70777 1.64777,-1.70773 1.6478,-1.70777 1.64781,-1.70772 1.64776,-1.70778 1.6478,-1.70772 1.64778,-1.70778 1.6478,-1.70772 1.6478,-1.70772 1.64777,-1.70778 1.6478,-1.70772 1.64777,-1.70777 1.6478,-1.70778"
     id="path4622"
     inkscape:connector-curvature="0"
     style="fill:none;stroke:#000000;stroke-width:0.75590551;stroke-miterlimit:4;stroke-dasharray:none" />
  <path
     class="grid-line"
     d="m 267.11213,174.94322 1.64779,-1.70778 1.64779,-1.70772 1.64779,-1.70777 1.64779,-1.70773 1.64779,-1.70777 1.64779,-1.70772 1.64779,-1.70778 1.64778,-1.70772 1.64779,-1.70773 1.64779,-1.70777 1.64779,-1.70772 1.64779,-1.70778 1.64778,-1.70772 1.6478,-1.70777 1.64778,-1.70773 1.6478,-1.70777 1.64778,-1.70772 1.64779,-1.70778 1.64779,-1.70772 1.64778,-1.70778 1.6478,-1.70772 1.64778,-1.70777 1.6478,-1.70773 1.64778,-1.70777 1.64779,-1.70772 1.64779,-1.70773 1.64778,-1.70777 1.6478,-1.70772 1.64778,-1.70778 1.64779,-1.70772 1.64779,-1.70778 1.64779,-1.70772 1.64779,-1.70777 1.64779,-1.70773 1.64778,-1.70772 1.64779,-1.70777 1.64779,-1.70778 1.64779,-1.70772 1.64779,-1.70772 1.64779,-1.70778 1.64779,-1.70772 1.64779,-1.70778 1.64777,-1.70772 1.6478,-1.70777 1.6478,-1.70773 1.64777,-1.70777 1.6478,-1.70772 1.64777,-1.70773 1.6478,-1.70777 1.64781,-1.70772 1.64776,-1.70778 1.64781,-1.70772 1.64778,-1.70778 1.64776,-1.70772 1.64781,-1.70777 1.6478,-1.70773 1.64777,-1.70772 1.6478,-1.70777 1.64777,-1.70778 1.6478,-1.70772 1.6478,-1.70778 1.64777,-1.70772 1.6478,-1.70772 1.64777,-1.70778 1.6478,-1.70772 1.64781,-1.70777 1.64776,-1.70773 1.6478,-1.70777 1.64777,-1.70772 1.6478,-1.70778 1.64781,-1.70772 1.64776,-1.70773 1.6478,-1.70777 1.64778,-1.70772 1.6478,-1.70778 1.6478,-1.70777 1.64777,-1.70772 1.6478,-1.70773 1.64777,-1.70777 1.6478,-1.70772 1.6478,-1.70778 1.64777,-1.70772 1.6478,-1.70778 1.64777,-1.70772 1.6478,-1.70777 1.64781,-1.70773 1.64776,-1.70772 1.64781,-1.70777 1.64776,-1.70773 1.6478,-1.70777 1.64781,-1.70772 1.64776,-1.70778 1.64781,-1.70772 1.64776,-1.70778 1.64781,-1.70772 1.6478,-1.70772 1.64777,-1.70778 1.6478,-1.70772 1.64777,-1.70777 1.6478,-1.70778"
     id="path4624"
     inkscape:connector-curvature="0"
     style="fill:none;stroke:#000000;stroke-width:0.75590551;stroke-miterlimit:4;stroke-dasharray:none" />
  <path
     class="grid-line"
     d="m 300.0679,174.94322 1.6478,-1.70778 1.64778,-1.70772 1.6478,-1.70777 1.64778,-1.70773 1.64779,-1.70777 1.64779,-1.70772 1.64778,-1.70778 1.6478,-1.70772 1.64778,-1.70773 1.64779,-1.70777 1.64779,-1.70772 1.64779,-1.70778 1.64779,-1.70772 1.64779,-1.70777 1.64778,-1.70773 1.64779,-1.70777 1.64779,-1.70772 1.64779,-1.70778 1.64779,-1.70772 1.64779,-1.70778 1.64779,-1.70772 1.64779,-1.70777 1.64777,-1.70773 1.6478,-1.70777 1.6478,-1.70772 1.64777,-1.70773 1.6478,-1.70777 1.64777,-1.70772 1.6478,-1.70778 1.64781,-1.70772 1.64776,-1.70778 1.64781,-1.70772 1.64778,-1.70777 1.64776,-1.70773 1.64781,-1.70772 1.6478,-1.70777 1.64777,-1.70778 1.6478,-1.70772 1.64777,-1.70772 1.6478,-1.70778 1.6478,-1.70772 1.64777,-1.70778 1.6478,-1.70772 1.64777,-1.70777 1.6478,-1.70773 1.64781,-1.70777 1.64776,-1.70772 1.6478,-1.70773 1.64777,-1.70777 1.6478,-1.70772 1.64781,-1.70778 1.64776,-1.70772 1.6478,-1.70778 1.64778,-1.70772 1.6478,-1.70777 1.6478,-1.70773 1.64777,-1.70772 1.6478,-1.70777 1.64777,-1.70778 1.6478,-1.70772 1.6478,-1.70778 1.64777,-1.70772 1.6478,-1.70772 1.64777,-1.70778 1.6478,-1.70772 1.64781,-1.70777 1.64776,-1.70773 1.64781,-1.70777 1.64776,-1.70772 1.6478,-1.70778 1.64781,-1.70772 1.64776,-1.70773 1.64781,-1.70777 1.64776,-1.70772 1.64781,-1.70778 1.6478,-1.70777 1.64777,-1.70772 1.6478,-1.70773 1.64777,-1.70777 1.6478,-1.70772 1.6478,-1.70778 1.64777,-1.70772 1.6478,-1.70778 1.64777,-1.70772 1.6478,-1.70777 1.6478,-1.70773 1.64777,-1.70772 1.64781,-1.70777 1.64776,-1.70773 1.64781,-1.70777 1.6478,-1.70772 1.64777,-1.70778 1.6478,-1.70772 1.64776,-1.70778 1.64777,-1.70772 1.6478,-1.70772 1.64781,-1.70778 1.64776,-1.70772 1.64781,-1.70777 1.64777,-1.70778"
     id="path4626"
     inkscape:connector-curvature="0"
     style="fill:none;stroke:#000000;stroke-width:0.75590551;stroke-miterlimit:4;stroke-dasharray:none" />
  <path
     class="grid-line"
     d="m 333.02368,174.94322 1.64779,-1.70778 1.64779,-1.70772 1.64777,-1.70777 1.6478,-1.70773 1.6478,-1.70777 1.64777,-1.70772 1.6478,-1.70778 1.64777,-1.70772 1.6478,-1.70773 1.64781,-1.70777 1.64776,-1.70772 1.64781,-1.70778 1.64778,-1.70772 1.64776,-1.70777 1.64781,-1.70773 1.6478,-1.70777 1.64777,-1.70772 1.6478,-1.70778 1.64777,-1.70772 1.6478,-1.70778 1.6478,-1.70772 1.64777,-1.70777 1.6478,-1.70773 1.64777,-1.70777 1.6478,-1.70772 1.64781,-1.70773 1.64776,-1.70777 1.6478,-1.70772 1.64777,-1.70778 1.6478,-1.70772 1.64781,-1.70778 1.64776,-1.70772 1.6478,-1.70777 1.64778,-1.70773 1.6478,-1.70772 1.6478,-1.70777 1.64777,-1.70778 1.6478,-1.70772 1.64777,-1.70772 1.6478,-1.70778 1.6478,-1.70772 1.64777,-1.70778 1.6478,-1.70772 1.64777,-1.70777 1.6478,-1.70773 1.64781,-1.70777 1.64776,-1.70772 1.64781,-1.70773 1.64776,-1.70777 1.6478,-1.70772 1.64781,-1.70778 1.64776,-1.70772 1.64781,-1.70778 1.64776,-1.70772 1.64781,-1.70777 1.6478,-1.70773 1.64777,-1.70772 1.6478,-1.70777 1.64777,-1.70778 1.6478,-1.70772 1.6478,-1.70778 1.64777,-1.70772 1.6478,-1.70772 1.64777,-1.70778 1.6478,-1.70772 1.6478,-1.70777 1.64777,-1.70773 1.64781,-1.70777 1.64776,-1.70772 1.64781,-1.70778 1.6478,-1.70772 1.64777,-1.70773 1.6478,-1.70777 1.64776,-1.70772 1.64777,-1.70778 1.6478,-1.70777 1.64781,-1.70772 1.64776,-1.70773 1.64781,-1.70777 1.64777,-1.70772 1.6478,-1.70778 1.6478,-1.70772 1.64777,-1.70778 1.6478,-1.70772 1.64777,-1.70777 1.6478,-1.70773 1.6478,-1.70772 1.64777,-1.70777 1.6478,-1.70773 1.64777,-1.70777 1.6478,-1.70772 1.64781,-1.70778 1.64776,-1.70772 1.64781,-1.70778 1.64776,-1.70772 1.64781,-1.70772 1.64776,-1.70778 1.6478,-1.70772 1.64781,-1.70777 1.64776,-1.70778"
     id="path4628"
     inkscape:connector-curvature="0"
     style="fill:none;stroke:#000000;stroke-width:0.75590551;stroke-miterlimit:4;stroke-dasharray:none" />
  <path
     class="grid-line"
     d="m 3.4660338,174.94322 h 3.2955786 3.2955786 3.295577 3.29558 3.295577 3.295577 3.295577 3.29558 3.295578 3.295577 3.29558 3.295578 3.29558 3.295576 3.295523 3.295574 3.29558 3.295579 3.295579 3.295574 3.295579 3.295579 3.29558 3.295579 3.295574 3.295584 3.295574 3.29558 3.295579 3.295575 3.29557 3.29559 3.29557 3.29558 3.29558 3.29558 3.29558 3.29557 3.29558 3.29558 3.29558 3.29558 3.29558 3.29557 3.29558 3.29552 3.29558 3.29558 3.29558 3.29558 3.29558 3.29557 3.29558 3.29558 3.29558 3.29558 3.29557 3.29558 3.29558 3.29558 3.29558 3.29558 3.29557 3.29558 3.29558 3.29558 3.29558 3.29557 3.29558 3.29558 3.29558 3.29557 3.29558 3.29557 3.29558 3.29556 3.29558 3.29557 3.29558 3.29557 3.29558 3.29558 3.29558 3.29557 3.29558 3.29558 3.29558 3.29558 3.29557 3.29557 3.29558 3.29558 3.29558 3.29558 3.29557 3.29558 3.29558 3.29557 3.29558 3.29558"
     id="path4630"
     inkscape:connector-curvature="0"
     style="fill:none;stroke:#000000;stroke-width:0.75590551;stroke-miterlimit:4;stroke-dasharray:none" />
  <path
     class="grid-line"
     d="m 19.943925,157.86573 h 3.295577 3.295577 3.29558 3.295578 3.295577 3.29558 3.295578 3.29558 3.295576 3.295523 3.295574 3.29558 3.295579 3.295579 3.295574 3.295579 3.295579 3.29558 3.295579 3.295574 3.295584 3.295574 3.29558 3.295579 3.295575 3.29557 3.29559 3.29557 3.29558 3.29558 3.29558 3.29558 3.29557 3.29558 3.29558 3.29558 3.29558 3.29558 3.29557 3.29558 3.29552 3.29558 3.29558 3.29558 3.29558 3.29558 3.29557 3.29558 3.29558 3.29558 3.29558 3.29557 3.29558 3.29558 3.29558 3.29558 3.29558 3.29557 3.29558 3.29558 3.29558 3.29558 3.29557 3.29558 3.29558 3.29558 3.29557 3.29558 3.29557 3.29558 3.29556 3.29558 3.29557 3.29558 3.29557 3.29558 3.29558 3.29558 3.29557 3.29558 3.29558 3.29558 3.29558 3.29557 3.29557 3.29558 3.29558 3.29558 3.29558 3.29557 3.29558 3.29558 3.29557 3.29558 3.29558 3.29558 3.29557 3.29557 3.29557 3.29561"
     id="path4632"
     inkscape:connector-curvature="0"
     style="fill:none;stroke:#000000;stroke-width:0.75590551;stroke-miterlimit:4;stroke-dasharray:none" />
  <path
     class="grid-line"
     d="m 36.421814,140.78824 h 3.29558 3.295578 3.29558 3.295576 3.295523 3.295574 3.29558 3.295579 3.295579 3.295574 3.295579 3.295579 3.29558 3.295579 3.295574 3.295584 3.295574 3.29558 3.295579 3.295575 3.29557 3.29559 3.29557 3.29558 3.29558 3.29558 3.29558 3.29557 3.29558 3.29558 3.29558 3.29558 3.29558 3.29557 3.29558 3.29552 3.29558 3.29558 3.29558 3.29558 3.29558 3.29557 3.29558 3.29558 3.29558 3.29558 3.29557 3.29558 3.29558 3.29558 3.29558 3.29558 3.29557 3.29558 3.29558 3.29558 3.29558 3.29557 3.29558 3.29558 3.29558 3.29557 3.29558 3.29557 3.29558 3.29556 3.29558 3.29557 3.29558 3.29557 3.29558 3.29558 3.29558 3.29557 3.29558 3.29558 3.29558 3.29558 3.29557 3.29557 3.29558 3.29558 3.29558 3.29558 3.29557 3.29558 3.29558 3.29557 3.29558 3.29558 3.29558 3.29557 3.29557 3.29557 3.29561 3.29557 3.29554 3.29561 3.29557 3.29557"
     id="path4634"
     inkscape:connector-curvature="0"
     style="fill:none;stroke:#000000;stroke-width:0.75590551;stroke-miterlimit:4;stroke-dasharray:none" />
  <path
     class="grid-line"
     d="m 52.899651,123.71081 h 3.295574 3.29558 3.295579 3.295579 3.295574 3.295579 3.295579 3.29558 3.295579 3.295574 3.295584 3.295574 3.29558 3.295579 3.295575 3.29557 3.29559 3.29557 3.29558 3.29558 3.29558 3.29558 3.29557 3.29558 3.29558 3.29558 3.29558 3.29558 3.29557 3.29558 3.29552 3.29558 3.29558 3.29558 3.29558 3.29558 3.29557 3.29558 3.29558 3.29558 3.29558 3.29557 3.29558 3.29558 3.29558 3.29558 3.29558 3.29557 3.29558 3.29558 3.29558 3.29558 3.29557 3.29558 3.29558 3.29558 3.29557 3.29558 3.29557 3.29558 3.29556 3.29558 3.29557 3.29558 3.29557 3.29558 3.29558 3.29558 3.29557 3.29558 3.29558 3.29558 3.29558 3.29557 3.29557 3.29558 3.29558 3.29558 3.29558 3.29557 3.29558 3.29558 3.29557 3.29558 3.29558 3.29558 3.29557 3.29557 3.29557 3.29561 3.29557 3.29554 3.29561 3.29557 3.29557 3.29557 3.29557 3.29561 3.29556 3.29557"
     id="path4636"
     inkscape:connector-curvature="0"
     style="fill:none;stroke:#000000;stroke-width:0.75590551;stroke-miterlimit:4;stroke-dasharray:none" />
  <path
     class="grid-line"
     d="m 69.377537,106.63332 h 3.295579 3.295579 3.29558 3.295579 3.295574 3.295584 3.295574 3.29558 3.295579 3.295575 3.29557 3.29559 3.29557 3.29558 3.29558 3.29558 3.29558 3.29557 3.29558 3.29558 3.29558 3.29558 3.29558 3.29557 3.29558 3.29552 3.29558 3.29558 3.29558 3.29558 3.29558 3.29557 3.29558 3.29558 3.29558 3.29558 3.29557 3.29558 3.29558 3.29558 3.29558 3.29558 3.29557 3.29558 3.29558 3.29558 3.29558 3.29557 3.29558 3.29558 3.29558 3.29557 3.29558 3.29557 3.29558 3.29556 3.29558 3.29557 3.29558 3.29557 3.29558 3.29558 3.29558 3.29557 3.29558 3.29558 3.29558 3.29558 3.29557 3.29557 3.29558 3.29558 3.29558 3.29558 3.29557 3.29558 3.29558 3.29557 3.29558 3.29558 3.29558 3.29557 3.29557 3.29557 3.29561 3.29557 3.29554 3.29561 3.29557 3.29557 3.29557 3.29557 3.29561 3.29556 3.29557 3.29557 3.29558 3.2956 3.29557 3.29557"
     id="path4638"
     inkscape:connector-curvature="0"
     style="fill:none;stroke:#000000;stroke-width:0.75590551;stroke-miterlimit:4;stroke-dasharray:none" />
  <path
     class="grid-line"
     d="m 85.855428,89.55589 h 3.295584 3.295574 3.29558 3.295579 3.295575 3.29557 3.29559 3.29557 3.29558 3.29558 3.29558 3.29558 3.29557 3.29558 3.29558 3.29558 3.29558 3.29558 3.29557 3.29558 3.29552 3.29558 3.29558 3.29558 3.29558 3.29558 3.29557 3.29558 3.29558 3.29558 3.29558 3.29557 3.29558 3.29558 3.29558 3.29558 3.29558 3.29557 3.29558 3.29558 3.29558 3.29558 3.29557 3.29558 3.29558 3.29558 3.29557 3.29558 3.29557 3.29558 3.29556 3.29558 3.29557 3.29558 3.29557 3.29558 3.29558 3.29558 3.29557 3.29558 3.29558 3.29558 3.29558 3.29557 3.29557 3.29558 3.29558 3.29558 3.29558 3.29557 3.29558 3.29558 3.29557 3.29558 3.29558 3.29558 3.29557 3.29557 3.29557 3.29561 3.29557 3.29554 3.29561 3.29557 3.29557 3.29557 3.29557 3.29561 3.29556 3.29557 3.29557 3.29558 3.2956 3.29557 3.29557 3.29557 3.29557 3.29561 3.29557 3.29556"
     id="path4640"
     inkscape:connector-curvature="0"
     style="fill:none;stroke:#000000;stroke-width:0.75590551;stroke-miterlimit:4;stroke-dasharray:none" />
  <path
     class="grid-line"
     d="m 102.33332,72.4784 h 3.29557 3.29559 3.29557 3.29558 3.29558 3.29558 3.29558 3.29557 3.29558 3.29558 3.29558 3.29558 3.29558 3.29557 3.29558 3.29552 3.29558 3.29558 3.29558 3.29558 3.29558 3.29557 3.29558 3.29558 3.29558 3.29558 3.29557 3.29558 3.29558 3.29558 3.29558 3.29558 3.29557 3.29558 3.29558 3.29558 3.29558 3.29557 3.29558 3.29558 3.29558 3.29557 3.29558 3.29557 3.29558 3.29556 3.29558 3.29557 3.29558 3.29557 3.29558 3.29558 3.29558 3.29557 3.29558 3.29558 3.29558 3.29558 3.29557 3.29557 3.29558 3.29558 3.29558 3.29558 3.29557 3.29558 3.29558 3.29557 3.29558 3.29558 3.29558 3.29557 3.29557 3.29557 3.29561 3.29557 3.29554 3.29561 3.29557 3.29557 3.29557 3.29557 3.29561 3.29556 3.29557 3.29557 3.29558 3.2956 3.29557 3.29557 3.29557 3.29557 3.29561 3.29557 3.29556 3.29557 3.29557 3.29561 3.29557 3.29557"
     id="path4642"
     inkscape:connector-curvature="0"
     style="fill:none;stroke:#000000;stroke-width:0.75590551;stroke-miterlimit:4;stroke-dasharray:none" />
  <path
     class="grid-line"
     d="m 118.81121,55.40091 h 3.29558 3.29558 3.29557 3.29558 3.29558 3.29558 3.29558 3.29558 3.29557 3.29558 3.29552 3.29558 3.29558 3.29558 3.29558 3.29558 3.29557 3.29558 3.29558 3.29558 3.29558 3.29557 3.29558 3.29558 3.29558 3.29558 3.29558 3.29557 3.29558 3.29558 3.29558 3.29558 3.29557 3.29558 3.29558 3.29558 3.29557 3.29558 3.29557 3.29558 3.29556 3.29558 3.29557 3.29558 3.29557 3.29558 3.29558 3.29558 3.29557 3.29558 3.29558 3.29558 3.29558 3.29557 3.29557 3.29558 3.29558 3.29558 3.29558 3.29557 3.29558 3.29558 3.29557 3.29558 3.29558 3.29558 3.29557 3.29557 3.29557 3.29561 3.29557 3.29554 3.29561 3.29557 3.29557 3.29557 3.29557 3.29561 3.29556 3.29557 3.29557 3.29558 3.2956 3.29557 3.29557 3.29557 3.29557 3.29561 3.29557 3.29556 3.29557 3.29557 3.29561 3.29557 3.29557 3.29557 3.29557 3.2956 3.29558 3.29557"
     id="path4644"
     inkscape:connector-curvature="0"
     style="fill:none;stroke:#000000;stroke-width:0.75590551;stroke-miterlimit:4;stroke-dasharray:none" />
  <path
     class="grid-line"
     d="m 135.2891,38.32348 h 3.29558 3.29558 3.29558 3.29557 3.29558 3.29552 3.29558 3.29558 3.29558 3.29558 3.29558 3.29557 3.29558 3.29558 3.29558 3.29558 3.29557 3.29558 3.29558 3.29558 3.29558 3.29558 3.29557 3.29558 3.29558 3.29558 3.29558 3.29557 3.29558 3.29558 3.29558 3.29557 3.29558 3.29557 3.29558 3.29556 3.29558 3.29557 3.29558 3.29557 3.29558 3.29558 3.29558 3.29557 3.29558 3.29558 3.29558 3.29558 3.29557 3.29557 3.29558 3.29558 3.29558 3.29558 3.29557 3.29558 3.29558 3.29557 3.29558 3.29558 3.29558 3.29557 3.29557 3.29557 3.29561 3.29557 3.29554 3.29561 3.29557 3.29557 3.29557 3.29557 3.29561 3.29556 3.29557 3.29557 3.29558 3.2956 3.29557 3.29557 3.29557 3.29557 3.29561 3.29557 3.29556 3.29557 3.29557 3.29561 3.29557 3.29557 3.29557 3.29557 3.2956 3.29558 3.29557 3.29557 3.29556 3.29557 3.29557 3.29558"
     id="path4646"
     inkscape:connector-curvature="0"
     style="fill:none;stroke:#000000;stroke-width:0.75590551;stroke-miterlimit:4;stroke-dasharray:none" />
  <path
     class="grid-line"
     d="m 151.76699,21.24599 h 3.29552 3.29558 3.29558 3.29558 3.29558 3.29558 3.29557 3.29558 3.29558 3.29558 3.29558 3.29557 3.29558 3.29558 3.29558 3.29558 3.29558 3.29557 3.29558 3.29558 3.29558 3.29558 3.29557 3.29558 3.29558 3.29558 3.29557 3.29558 3.29557 3.29558 3.29556 3.29558 3.29557 3.29558 3.29557 3.29558 3.29558 3.29558 3.29557 3.29558 3.29558 3.29558 3.29558 3.29557 3.29557 3.29558 3.29558 3.29558 3.29558 3.29557 3.29558 3.29558 3.29557 3.29558 3.29558 3.29558 3.29557 3.29557 3.29557 3.29561 3.29557 3.29554 3.29561 3.29557 3.29557 3.29557 3.29557 3.29561 3.29556 3.29557 3.29557 3.29558 3.2956 3.29557 3.29557 3.29557 3.29557 3.29561 3.29557 3.29556 3.29557 3.29557 3.29561 3.29557 3.29557 3.29557 3.29557 3.2956 3.29558 3.29557 3.29557 3.29556 3.29557 3.29557 3.29558 3.2956 3.29557 3.29557 3.29557 3.29557"
     id="path4648"
     inkscape:connector-curvature="0"
     style="fill:none;stroke:#000000;stroke-width:0.75590551;stroke-miterlimit:4;stroke-dasharray:none" />
  <path
     class="grid-line"
     d="m 168.24483,4.1685 h 3.29558 3.29557 3.29558 3.29558 3.29558 3.29558 3.29557 3.29558 3.29558 3.29558 3.29558 3.29558 3.29557 3.29558 3.29558 3.29558 3.29558 3.29557 3.29558 3.29558 3.29558 3.29557 3.29558 3.29557 3.29558 3.29556 3.29558 3.29557 3.29558 3.29557 3.29558 3.29558 3.29558 3.29557 3.29558 3.29558 3.29558 3.29558 3.29557 3.29557 3.29558 3.29558 3.29558 3.29558 3.29557 3.29558 3.29558 3.29557 3.29558 3.29558 3.29558 3.29557 3.29557 3.29557 3.29561 3.29557 3.29554 3.29561 3.29557 3.29557 3.29557 3.29557 3.29561 3.29556 3.29557 3.29557 3.29558 3.2956 3.29557 3.29557 3.29557 3.29557 3.29561 3.29557 3.29556 3.29557 3.29557 3.29561 3.29557 3.29557 3.29557 3.29557 3.2956 3.29558 3.29557 3.29557 3.29556 3.29557 3.29557 3.29558 3.2956 3.29557 3.29557 3.29557 3.29557 3.29561 3.29557 3.29557 3.29556 3.29557"
     id="path4650"
     inkscape:connector-curvature="0"
     style="fill:none;stroke:#000000;stroke-width:0.75590551;stroke-miterlimit:4;stroke-dasharray:none" />
</svg>
