<?xml version="1.0" encoding="UTF-8" standalone="no"?>
<svg
   xmlns:dc="http://purl.org/dc/elements/1.1/"
   xmlns:cc="http://creativecommons.org/ns#"
   xmlns:rdf="http://www.w3.org/1999/02/22-rdf-syntax-ns#"
   xmlns:svg="http://www.w3.org/2000/svg"
   xmlns="http://www.w3.org/2000/svg"
   xmlns:sodipodi="http://sodipodi.sourceforge.net/DTD/sodipodi-0.dtd"
   xmlns:inkscape="http://www.inkscape.org/namespaces/inkscape"
   id="svg8"
   version="1.1"
   viewBox="0 0 158.75 132.29167"
   height="500"
   width="600"
   sodipodi:docname="transformed-grids-overlaid.svg"
   inkscape:version="0.92.1 r15371">
  <sodipodi:namedview
     pagecolor="#ffffff"
     bordercolor="#666666"
     borderopacity="1"
     objecttolerance="10"
     gridtolerance="10"
     guidetolerance="10"
     inkscape:pageopacity="0"
     inkscape:pageshadow="2"
     inkscape:window-width="1914"
     inkscape:window-height="1049"
     id="namedview4990"
     showgrid="false"
     inkscape:zoom="1.888"
     inkscape:cx="288.47788"
     inkscape:cy="301.75832"
     inkscape:window-x="0"
     inkscape:window-y="0"
     inkscape:window-maximized="0"
     inkscape:current-layer="g5095" />
  <defs
     id="defs2" />
  <metadata
     id="metadata5">
    <rdf:RDF>
      <cc:Work
         rdf:about="">
        <dc:format>image/svg+xml</dc:format>
        <dc:type
           rdf:resource="http://purl.org/dc/dcmitype/StillImage" />
        <dc:title />
      </cc:Work>
    </rdf:RDF>
  </metadata>
  <g
     transform="translate(0,-164.70831)"
     id="layer1">
    <g
       transform="matrix(0.18520833,0,0,0.18520833,59.325803,202.85556)"
       id="g4733"
       style="stroke-width:1.71428577;stroke-miterlimit:4;stroke-dasharray:none">
      <path
         style="fill:none;stroke:#000000;stroke-width:1.71428577;stroke-miterlimit:4;stroke-dasharray:none"
         class="grid-line"
         d="m -150,200 8.8212,3 8.4684,3 8.1228,3 7.7844,3 7.4532,3 7.1292,3 6.8124,3 6.5028,3 6.2004,3 5.9052,3 5.6172,3 5.3364,3 5.0628,3 4.7964,3 4.5372,3 4.2852,3 4.0404,3 3.8028,3 3.5724,3 3.3492,3 3.1332,3 2.9244,3 2.7228,3 2.5284,3 2.3412,3 2.1612,3 1.9884,3 1.8228,3 1.6644,3 1.5132,3 1.3692,3 1.2324,3 1.1028,3 0.9804,3 0.8652,3 0.7572,3 0.6564,3 0.5628,3 0.4764,3 0.3972,3 0.3252,3 0.2604,3 0.2028,3 0.1524,3 0.1092,3 0.0732,3 0.0444,3 0.0228,3 0.0084,3 0.0012,3 0.0012,3 0.0084,3 0.0228,3 0.0444,3 0.0732,3 0.1092,3 0.1524,3 0.2028,3 0.2604,3 0.3252,3 0.3972,3 0.4764,3 0.5628,3 0.6564,3 0.7572,3 0.8652,3 0.9804,3 1.1028,3 1.2324,3 1.3692,3 1.5132,3 1.6644,3 1.8228,3 1.9884,3 2.1612,3 2.3412,3 2.5284,3 2.7228,3 2.9244,3 3.1332,3 3.3492,3 3.5724,3 3.8028,3 4.0404,3 4.2852,3 4.5372,3 4.7964,3 5.0628,3 5.3364,3 5.6172,3 5.9052,3 6.2004,3 6.5028,3 6.8124,3 7.1292,3 7.4532,3 7.7844,3 8.1228,3 8.4684,3 8.8212,3"
         id="path4687" />
      <path
         style="fill:none;stroke:#000000;stroke-width:1.71428577;stroke-miterlimit:4;stroke-dasharray:none"
         class="grid-line"
         d="m -76.8,102.4 8.8212,3 8.4684,3 8.1228,3 7.7844,3 7.4532,3 7.1292,3 6.8124,3 6.5028,3 6.2004,3 5.9052,3 5.6172,3 5.3364,3 5.0628,3 4.7964,3 4.5372,3 4.2852,3 4.0404,3 3.8028,3 3.5724,3 3.3492,3 3.1332,3 2.9244,3 2.7228,3 2.5284,3 2.3412,3 2.1612,3 1.9884,3 1.8228,3 1.6644,3 1.5132,3 1.3692,3 1.2324,3 1.1028,3 0.9804,3 0.8652,3 0.7572,3 0.6564,3 0.5628,3 0.4764,3 0.3972,3 0.3252,3 0.2604,3 0.2028,3 0.1524,3 0.1092,3 0.0732,3 0.0444,3 0.0228,3 0.0084,3 0.0012,3 0.0012,3 0.0084,3 0.0228,3 0.0444,3 0.0732,3 0.1092,3 0.1524,3 0.2028,3 0.2604,3 0.3252,3 0.3972,3 0.4764,3 0.5628,3 0.6564,3 0.7572,3 0.8652,3 0.9804,3 1.1028,3 1.2324,3 1.3692,3 1.5132,3 1.6644,3 1.8228,3 1.9884,3 2.1612,3 2.3412,3 2.5284,3 2.7228,3 2.9244,3 3.1332,3 3.3492,3 3.5724,3 3.8028,3 4.0404,3 4.2852,3 4.5372,3 4.7964,3 5.0628,3 5.3364,3 5.6172,3 5.9052,3 6.2004,3 6.5028,3 6.8124,3 7.1292,3 7.4532,3 7.7844,3 8.1228,3 8.4684,3 8.8212,3"
         id="path4689" />
      <path
         style="fill:none;stroke:#000000;stroke-width:1.71428577;stroke-miterlimit:4;stroke-dasharray:none"
         class="grid-line"
         d="m -32.4,43.2 8.8212,3 8.4684,3 8.1228,3 7.7844,3 7.4532,3 7.1292,3 6.8124,3 6.5028,3 6.2004,3 5.9052,3 5.6172,3 5.3364,3 5.0628,3 4.7964,3 4.5372,3 4.2852,3 4.0404,3 3.8028,3 3.5724,3 3.3492,3 3.1332,3 2.9244,3 2.7228,3 2.5284,3 2.3412,3 2.1612,3 1.9884,3 1.8228,3 1.6644,3 1.5132,3 1.3692,3 1.2324,3 1.1028,3 0.9804,3 0.8652,3 0.7572,3 0.6564,3 0.5628,3 0.4764,3 0.3972,3 0.3252,3 0.2604,3 0.2028,3 0.1524,3 0.1092,3 0.0732,3 0.0444,3 0.0228,3 0.008,3 0.001,3 10e-4,3 0.008,3 0.0228,3 0.0444,3 0.0732,3 0.1092,3 0.1524,3 0.2028,3 0.2604,3 0.3252,3 0.3972,3 0.4764,3 0.5628,3 0.6564,3 0.7572,3 0.8652,3 0.9804,3 1.1028,3 1.2324,3 1.3692,3 1.5132,3 1.6644,3 1.8228,3 1.9884,3 2.1612,3 2.3412,3 2.5284,3 2.7228,3 2.9244,3 3.1332,3 3.3492,3 3.5724,3 3.8028,3 4.0404,3 4.2852,3 4.5372,3 4.7964,3 5.0628,3 5.3364,3 5.6172,3 5.9052,3 6.2004,3 6.5028,3 6.8124,3 7.1292,3 7.4532,3 7.7844,3 8.1228,3 8.4684,3 8.8212,3"
         id="path4691" />
      <path
         style="fill:none;stroke:#000000;stroke-width:1.71428577;stroke-miterlimit:4;stroke-dasharray:none"
         class="grid-line"
         d="m -9.6,12.8 8.8212,3 8.4684,3 8.1228,3 7.7844,3 7.4532,3 7.1292,3 6.8124,3 6.5028,3 6.2004,3 5.9052,3 5.6172,3 5.3364,3 5.0628,3 4.7964,3 4.5372,3 4.2852,3 4.0404,3 3.8028,3 3.5724,3 3.3492,3 3.1332,3 2.9244,3 2.7228,3 2.5284,3 2.3412,3 2.1612,3 1.9884,3 1.8228,3 1.6644,3 1.5132,3 1.3692,3 1.2324,3 1.1028,3 0.9804,3 0.8652,3 0.7572,3 0.6564,3 0.5628,3 0.4764,3 0.3972,3 0.3252,3 0.2604,3 0.2028,3 0.1524,3 0.1092,3 0.0732,3 0.0444,3 0.0228,3 0.008,3 0.001,3 10e-4,3 0.008,3 0.0228,3 0.0444,3 0.0732,3 0.1092,3 0.1524,3 0.2028,3 0.2604,3 0.3252,3 0.3972,3 0.4764,3 0.5628,3 0.6564,3 0.7572,3 0.8652,3 0.9804,3 1.1028,3 1.2324,3 1.3692,3 1.5132,3 1.6644,3 1.8228,3 1.9884,3 2.1612,3 2.3412,3 2.5284,3 2.7228,3 2.9244,3 3.1332,3 3.3492,3 3.5724,3 3.8028,3 4.0404,3 4.2852,3 4.5372,3 4.7964,3 5.0628,3 5.3364,3 5.6172,3 5.9052,3 6.2004,3 6.5028,3 6.8124,3 7.1292,3 7.4532,3 7.7844,3 8.1228,3 8.4684,3 8.8212,3"
         id="path4693" />
      <path
         style="fill:none;stroke:#000000;stroke-width:1.71428577;stroke-miterlimit:4;stroke-dasharray:none"
         class="grid-line"
         d="m -1.2,1.6 8.8212,3 8.4684,3 8.1228,3 7.7844,3 7.4532,3 7.1292,3 6.8124,3 6.5028,3 6.2004,3 5.9052,3 5.6172,3 5.3364,3 5.0628,3 4.7964,3 4.5372,3 4.2852,3 4.0404,3 3.8028,3 3.5724,3 3.3492,3 3.1332,3 2.9244,3 2.7228,3 2.5284,3 2.3412,3 2.1612,3 1.9884,3 1.8228,3 1.6644,3 1.5132,3 1.3692,3 1.2324,3 1.1028,3 0.9804,3 0.8652,3 0.7572,3 0.6564,3 0.5628,3 0.4764,3 0.3972,3 0.3252,3 0.2604,3 0.2028,3 0.1524,3 0.1092,3 0.0732,3 0.0444,3 0.0228,3 0.008,3 0.001,3 0.001,3 0.008,3 0.0228,3 0.0444,3 0.0732,3 0.1092,3 0.1524,3 0.2028,3 0.2604,3 0.3252,3 0.3972,3 0.4764,3 0.5628,3 0.6564,3 0.7572,3 0.8652,3 0.9804,3 1.1028,3 1.2324,3 1.3692,3 1.5132,3 1.6644,3 1.8228,3 1.9884,3 2.1612,3 2.3412,3 2.5284,3 2.7228,3 2.9244,3 3.1332,3 3.3492,3 3.5724,3 3.8028,3 4.0404,3 4.2852,3 4.5372,3 4.7964,3 5.0628,3 5.3364,3 5.6172,3 5.9052,3 6.2004,3 6.5028,3 6.8124,3 7.1292,3 7.4532,3 7.7844,3 8.1228,3 8.4684,3 8.8212,3"
         id="path4695" />
      <path
         style="fill:none;stroke:#000000;stroke-width:1.71428577;stroke-miterlimit:4;stroke-dasharray:none"
         class="grid-line"
         d="m 0,0 8.8212,3 8.4684,3 8.1228,3 7.7844,3 7.4532,3 7.1292,3 6.8124,3 6.5028,3 6.2004,3 5.9052,3 5.6172,3 5.3364,3 5.0628,3 4.7964,3 4.5372,3 4.2852,3 4.0404,3 3.8028,3 3.5724,3 3.3492,3 3.1332,3 2.9244,3 2.7228,3 2.5284,3 2.3412,3 2.1612,3 1.9884,3 1.8228,3 1.6644,3 1.5132,3 1.3692,3 1.2324,3 1.1028,3 0.9804,3 0.8652,3 0.7572,3 0.6564,3 0.5628,3 0.4764,3 0.3972,3 0.3252,3 0.2604,3 0.2028,3 0.1524,3 0.1092,3 0.0732,3 0.0444,3 0.0228,3 0.008,3 0.001,3 0.001,3 0.008,3 0.0228,3 0.0444,3 0.0732,3 0.1092,3 0.1524,3 0.2028,3 0.2604,3 0.3252,3 0.3972,3 0.4764,3 0.5628,3 0.6564,3 0.7572,3 0.8652,3 0.9804,3 1.1028,3 1.2324,3 1.3692,3 1.5132,3 1.6644,3 1.8228,3 1.9884,3 2.1612,3 2.3412,3 2.5284,3 2.7228,3 2.9244,3 3.1332,3 3.3492,3 3.5724,3 3.8028,3 4.0404,3 4.2852,3 4.5372,3 4.7964,3 5.0628,3 5.3364,3 5.6172,3 5.9052,3 6.2004,3 6.5028,3 6.8124,3 7.1292,3 7.4532,3 7.7844,3 8.1228,3 8.4684,3 8.8212,3"
         id="path4697" />
      <path
         style="fill:none;stroke:#000000;stroke-width:1.71428577;stroke-miterlimit:4;stroke-dasharray:none"
         class="grid-line"
         d="m 1.2,-1.6 8.8212,3 8.4684,3 8.1228,3 7.7844,3 7.4532,3 7.1292,3 6.8124,3 6.5028,3 6.2004,3 5.9052,3 5.6172,3 5.3364,3 5.0628,3 4.7964,3 4.5372,3 4.2852,3 4.0404,3 3.8028,3 3.5724,3 3.3492,3 3.1332,3 2.9244,3 2.7228,3 2.5284,3 2.3412,3 2.1612,3 1.9884,3 1.8228,3 1.6644,3 1.5132,3 1.3692,3 1.2324,3 1.1028,3 0.9804,3 0.8652,3 0.7572,3 0.6564,3 0.5628,3 0.4764,3 0.3972,3 0.3252,3 0.2604,3 0.2028,3 0.1524,3 0.1092,3 0.0732,3 0.0444,3 0.0228,3 0.008,3 0.001,3 0.001,3 0.008,3 0.0228,3 0.0444,3 0.0732,3 0.1092,3 0.1524,3 0.2028,3 0.2604,3 0.3252,3 0.3972,3 0.4764,3 0.5628,3 0.6564,3 0.7572,3 0.8652,3 0.9804,3 1.1028,3 1.2324,3 1.3692,3 1.5132,3 1.6644,3 1.8228,3 1.9884,3 2.1612,3 2.3412,3 2.5284,3 2.7228,3 2.9244,3 3.1332,3 3.3492,3 3.5724,3 3.8028,3 4.0404,3 4.2852,3 4.5372,3 4.7964,3 5.0628,3 5.3364,3 5.6172,3 5.9052,3 6.2004,3 6.5028,3 6.8124,3 7.1292,3 7.4532,3 7.7844,3 8.1228,3 8.4684,3 8.8212,3"
         id="path4699" />
      <path
         style="fill:none;stroke:#000000;stroke-width:1.71428577;stroke-miterlimit:4;stroke-dasharray:none"
         class="grid-line"
         d="m 9.6,-12.8 8.8212,3 8.4684,3 8.1228,3 7.7844,3 7.4532,3 7.1292,3 6.8124,3 6.5028,3 6.2004,3 5.9052,3 5.6172,3 5.3364,3 5.0628,3 4.7964,3 4.5372,3 4.2852,3 4.0404,3 3.8028,3 3.5724,3 3.3492,3 3.1332,3 2.9244,3 2.7228,3 2.5284,3 2.3412,3 2.1612,3 1.9884,3 1.8228,3 1.6644,3 1.5132,3 1.3692,3 1.2324,3 1.1028,3 0.9804,3 0.8652,3 0.7572,3 0.6564,3 0.5628,3 0.4764,3 0.3972,3 0.3252,3 0.2604,3 0.2028,3 0.1524,3 0.1092,3 0.0732,3 0.0444,3 0.0228,3 0.008,3 0.001,3 0.001,3 0.008,3 0.0228,3 0.0444,3 0.0732,3 0.1092,3 0.1524,3 0.2028,3 0.2604,3 0.3252,3 0.3972,3 0.4764,3 0.5628,3 0.6564,3 0.7572,3 0.8652,3 0.9804,3 1.1028,3 1.2324,3 1.3692,3 1.5132,3 1.6644,3 1.8228,3 1.9884,3 2.1612,3 2.3412,3 2.5284,3 2.7228,3 2.9244,3 3.1332,3 3.3492,3 3.5724,3 3.8028,3 4.0404,3 4.2852,3 4.5372,3 4.7964,3 5.0628,3 5.3364,3 5.6172,3 5.9052,3 6.2004,3 6.5028,3 6.8124,3 7.1292,3 7.4532,3 7.7844,3 8.1228,3 8.4684,3 8.8212,3"
         id="path4701" />
      <path
         style="fill:none;stroke:#000000;stroke-width:1.71428577;stroke-miterlimit:4;stroke-dasharray:none"
         class="grid-line"
         d="m 32.4,-43.2 8.8212,3 8.4684,3 8.1228,3 7.7844,3 7.4532,3 7.1292,3 6.8124,3 6.5028,3 6.2004,3 5.9052,3 5.6172,3 5.3364,3 5.0628,3 4.7964,3 4.5372,3 4.2852,3 4.0404,3 3.8028,3 3.5724,3 3.3492,3 3.1332,3 2.9244,3 2.7228,3 2.5284,3 2.3412,3 2.1612,3 1.9884,3 1.8228,3 1.6644,3 1.5132,3 1.3692,3 1.2324,3 1.1028,3 0.9804,3 0.8652,3 0.7572,3 0.6564,3 0.5628,3 0.4764,3 0.3972,3 0.3252,3 0.2604,3 0.2028,3 0.1524,3 0.1092,3 0.0732,3 0.0444,3 0.0228,3 0.008,3 0.001,3 10e-4,3 0.008,3 0.0228,3 0.0444,3 0.0732,3 0.1092,3 0.1524,3 0.2028,3 0.2604,3 0.3252,3 0.3972,3 0.4764,3 0.5628,3 0.6564,3 0.7572,3 0.8652,3 0.9804,3 1.1028,3 1.2324,3 1.3692,3 1.5132,3 1.6644,3 1.8228,3 1.9884,3 2.1612,3 2.3412,3 2.5284,3 2.7228,3 2.9244,3 3.1332,3 3.3492,3 3.5724,3 3.8028,3 4.0404,3 4.2852,3 4.5372,3 4.7964,3 5.0628,3 5.3364,3 5.6172,3 5.9052,3 6.2004,3 6.5028,3 6.8124,3 7.1292,3 7.4532,3 7.7844,3 8.1228,3 8.4684,3 8.8212,3"
         id="path4703" />
      <path
         style="fill:none;stroke:#000000;stroke-width:1.71428577;stroke-miterlimit:4;stroke-dasharray:none"
         class="grid-line"
         d="m 76.8,-102.4 8.8212,3 8.4684,3 8.1228,3 7.7844,3 7.4532,3 7.1292,3 6.8124,3 6.5028,3 6.2004,3 5.9052,3 5.6172,3 5.3364,3 5.0628,3 4.7964,3 4.5372,3 4.2852,3 4.0404,3 3.8028,3 3.5724,3 3.3492,3 3.1332,3 2.9244,3 2.7228,3 2.5284,3 2.3412,3 2.1612,3 1.9884,3 1.8228,3 1.6644,3 1.5132,3 1.3692,3 1.2324,3 1.1028,3 0.9804,3 0.8652,3 0.7572,3 0.6564,3 0.5628,3 0.4764,3 0.3972,3 0.3252,3 0.2604,3 0.2028,3 0.1524,3 0.1092,3 0.0732,3 0.0444,3 0.0228,3 0.008,3 0.001,3 0.001,3 0.008,3 0.0228,3 0.0444,3 0.0732,3 0.1092,3 0.1524,3 0.2028,3 0.2604,3 0.3252,3 0.3972,3 0.4764,3 0.5628,3 0.6564,3 0.7572,3 0.8652,3 0.9804,3 1.1028,3 1.2324,3 1.3692,3 1.5132,3 1.6644,3 1.8228,3 1.9884,3 2.1612,3 2.3412,3 2.5284,3 2.7228,3 2.9244,3 3.1332,3 3.3492,3 3.5724,3 3.8028,3 4.0404,3 4.2852,3 4.5372,3 4.7964,3 5.0628,3 5.3364,3 5.6172,3 5.9052,3 6.2004,3 6.5028,3 6.8124,3 7.1292,3 7.4532,3 7.7844,3 8.1228,3 8.4684,3 8.8212,3"
         id="path4705" />
      <path
         style="fill:none;stroke:#000000;stroke-width:1.71428577;stroke-miterlimit:4;stroke-dasharray:none"
         class="grid-line"
         d="m 150,-200 8.8212,3 8.4684,3 8.1228,3 7.7844,3 7.4532,3 7.1292,3 6.8124,3 6.5028,3 6.2004,3 5.9052,3 5.6172,3 5.3364,3 5.0628,3 4.7964,3 4.5372,3 4.2852,3 4.0404,3 3.8028,3 3.5724,3 3.3492,3 3.1332,3 2.9244,3 2.7228,3 2.5284,3 2.3412,3 2.1612,3 1.9884,3 1.8228,3 1.6644,3 1.5132,3 1.3692,3 1.2324,3 1.1028,3 0.9804,3 0.8652,3 0.7572,3 0.6564,3 0.5628,3 0.4764,3 0.3972,3 0.3252,3 0.2604,3 0.2028,3 0.1524,3 0.1092,3 0.0732,3 0.0444,3 0.0228,3 0.008,3 10e-4,3 0.001,3 0.008,3 0.0228,3 0.0444,3 0.0732,3 0.1092,3 0.1524,3 0.2028,3 0.2604,3 0.3252,3 0.3972,3 0.4764,3 0.5628,3 0.6564,3 0.7572,3 0.8652,3 0.9804,3 1.1028,3 1.2324,3 1.3692,3 1.5132,3 1.6644,3 1.8228,3 1.9884,3 2.1612,3 2.3412,3 2.5284,3 2.7228,3 2.9244,3 3.1332,3 3.3492,3 3.5724,3 3.8028,3 4.0404,3 4.2852,3 4.5372,3 4.7964,3 5.0628,3 5.3364,3 5.6172,3 5.9052,3 6.2004,3 6.5028,3 6.8124,3 7.1292,3 7.4532,3 7.7844,3 8.1228,3 8.4684,3 8.8212,3"
         id="path4707" />
      <path
         style="fill:none;stroke:#000000;stroke-width:1.71428577;stroke-miterlimit:4;stroke-dasharray:none"
         class="grid-line"
         d="m -150,200 8.8212,-11.7616 8.4684,-11.2912 8.1228,-10.8304 7.7844,-10.3792 7.4532,-9.9376 7.1292,-9.5056 6.8124,-9.0832 6.5028,-8.6704 6.2004,-8.2672 5.9052,-7.8736 5.6172,-7.4896 5.3364,-7.1152 5.0628,-6.7504 4.7964,-6.3952 4.5372,-6.0496 4.2852,-5.7136 4.0404,-5.3872 3.8028,-5.0704 3.5724,-4.7632 3.3492,-4.4656 3.1332,-4.1776 2.9244,-3.8992 2.7228,-3.6304 2.5284,-3.3712 L -18.75,25 l 2.1612,-2.8816 1.9884,-2.6512 1.8228,-2.4304 1.6644,-2.2192 L -9.6,12.8 -8.2308,10.9744 -6.9984,9.3312 -5.8956,7.8608 -4.9152,6.5536 -4.05,5.4 -3.2928,4.3904 -2.6364,3.5152 -2.0736,2.7648 -1.5972,2.1296 -1.2,1.6 -0.8748,1.1664 -0.6144,0.8192 -0.4116,0.5488 -0.2592,0.3456 -0.15,0.2 -0.0768,0.1024 -0.0324,0.0432 -0.0096,0.0128 -0.0012,0.0016 0,0 0.0012,-0.0016 0.0096,-0.0128 0.0324,-0.0432 0.0768,-0.1024 0.15,-0.2 0.2592,-0.3456 0.4116,-0.5488 0.6144,-0.8192 0.8748,-1.1664 1.2,-1.6 1.5972,-2.1296 2.0736,-2.7648 2.6364,-3.5152 3.2928,-4.3904 4.05,-5.4 4.9152,-6.5536 5.8956,-7.8608 6.9984,-9.3312 8.2308,-10.9744 9.6,-12.8 l 1.5132,-2.0176 1.6644,-2.2192 1.8228,-2.4304 1.9884,-2.6512 L 18.75,-25 l 2.3412,-3.1216 2.5284,-3.3712 2.7228,-3.6304 2.9244,-3.8992 3.1332,-4.1776 3.3492,-4.4656 3.5724,-4.7632 3.8028,-5.0704 4.0404,-5.3872 4.2852,-5.7136 4.5372,-6.0496 4.7964,-6.3952 5.0628,-6.7504 5.3364,-7.1152 5.6172,-7.4896 5.9052,-7.8736 6.2004,-8.2672 6.5028,-8.6704 6.8124,-9.0832 7.1292,-9.5056 7.4532,-9.9376 7.7844,-10.3792 8.1228,-10.8304 8.4684,-11.2912 L 150,-200"
         id="path4709" />
      <path
         style="fill:none;stroke:#000000;stroke-width:1.71428577;stroke-miterlimit:4;stroke-dasharray:none"
         class="grid-line"
         d="m -76.8,230 8.8212,-11.7616 8.4684,-11.2912 8.1228,-10.8304 7.7844,-10.3792 7.4532,-9.9376 7.1292,-9.5056 6.8124,-9.0832 6.5028,-8.6704 6.2004,-8.2672 5.9052,-7.8736 5.6172,-7.4896 5.3364,-7.1152 5.0628,-6.7504 4.7964,-6.3952 L 21.75,98.6 26.0352,92.8864 30.0756,87.4992 33.8784,82.4288 37.4508,77.6656 40.8,73.2 43.9332,69.0224 46.8576,65.1232 49.5804,61.4928 52.1088,58.1216 54.45,55 56.6112,52.1184 58.5996,49.4672 60.4224,47.0368 62.0868,44.8176 63.6,42.8 64.9692,40.9744 66.2016,39.3312 67.3044,37.8608 68.2848,36.5536 69.15,35.4 69.9072,34.3904 70.5636,33.5152 71.1264,32.7648 71.6028,32.1296 72,31.6 72.3252,31.1664 72.5856,30.8192 72.7884,30.5488 72.9408,30.3456 73.05,30.2 73.1232,30.1024 73.1676,30.0432 73.1904,30.0128 73.1988,30.0016 73.2,30 73.2012,29.9984 73.2096,29.9872 73.2324,29.9568 73.2768,29.8976 73.35,29.8 73.4592,29.6544 73.6116,29.4512 73.8144,29.1808 74.0748,28.8336 74.4,28.4 74.7972,27.8704 75.2736,27.2352 75.8364,26.4848 76.4928,25.6096 77.25,24.6 78.1152,23.4464 79.0956,22.1392 80.1984,20.6688 81.4308,19.0256 82.8,17.2 84.3132,15.1824 85.9776,12.9632 87.8004,10.5328 89.7888,7.8816 91.95,5 l 2.3412,-3.1216 2.5284,-3.3712 2.7228,-3.6304 2.9244,-3.8992 3.1332,-4.1776 3.3492,-4.4656 3.5724,-4.7632 3.8028,-5.0704 4.0404,-5.3872 4.2852,-5.7136 4.5372,-6.0496 4.7964,-6.3952 5.0628,-6.7504 5.3364,-7.1152 L 150,-72.4 l 5.9052,-7.8736 6.2004,-8.2672 6.5028,-8.6704 6.8124,-9.0832 7.1292,-9.5056 7.4532,-9.9376 7.7844,-10.3792 8.1228,-10.8304 8.4684,-11.2912 L 223.2,-170"
         id="path4711" />
      <path
         style="fill:none;stroke:#000000;stroke-width:1.71428577;stroke-miterlimit:4;stroke-dasharray:none"
         class="grid-line"
         d="m -32.4,260 8.8212,-11.7616 8.4684,-11.2912 8.1228,-10.8304 7.7844,-10.3792 7.4532,-9.9376 7.1292,-9.5056 6.8124,-9.0832 6.5028,-8.6704 6.2004,-8.2672 5.9052,-7.8736 5.6172,-7.4896 5.3364,-7.1152 5.0628,-6.7504 4.7964,-6.3952 4.5372,-6.0496 4.2852,-5.7136 4.0404,-5.3872 3.8028,-5.0704 3.5724,-4.7632 L 85.2,103.2 88.3332,99.0224 91.2576,95.1232 93.9804,91.4928 96.5088,88.1216 98.85,85 l 2.1612,-2.8816 1.9884,-2.6512 1.8228,-2.4304 1.6644,-2.2192 L 108,72.8 l 1.3692,-1.8256 1.2324,-1.6432 1.1028,-1.4704 0.9804,-1.3072 0.8652,-1.1536 0.7572,-1.0096 0.6564,-0.8752 0.5628,-0.7504 0.4764,-0.6352 0.3972,-0.5296 0.3252,-0.4336 0.2604,-0.3472 0.2028,-0.2704 0.1524,-0.2032 0.1092,-0.1456 0.0732,-0.0976 0.0444,-0.0592 0.0228,-0.0304 0.008,-0.0112 L 117.6,60 l 0.001,-0.0016 0.008,-0.0112 0.0228,-0.0304 0.0444,-0.0592 0.0732,-0.0976 0.1092,-0.1456 0.1524,-0.2032 0.2028,-0.2704 0.2604,-0.3472 0.3252,-0.4336 0.3972,-0.5296 0.4764,-0.6352 0.5628,-0.7504 0.6564,-0.8752 0.7572,-1.0096 0.8652,-1.1536 0.9804,-1.3072 1.1028,-1.4704 1.2324,-1.6432 1.3692,-1.8256 1.5132,-2.0176 1.6644,-2.2192 1.8228,-2.4304 1.9884,-2.6512 L 136.35,35 l 2.3412,-3.1216 2.5284,-3.3712 2.7228,-3.6304 2.9244,-3.8992 L 150,16.8 l 3.3492,-4.4656 3.5724,-4.7632 3.8028,-5.0704 4.0404,-5.3872 4.2852,-5.7136 4.5372,-6.0496 4.7964,-6.3952 5.0628,-6.7504 5.3364,-7.1152 5.6172,-7.4896 5.9052,-7.8736 6.2004,-8.2672 6.5028,-8.6704 6.8124,-9.0832 7.1292,-9.5056 7.4532,-9.9376 7.7844,-10.3792 8.1228,-10.8304 8.4684,-11.2912 L 267.6,-140"
         id="path4713" />
      <path
         style="fill:none;stroke:#000000;stroke-width:1.71428577;stroke-miterlimit:4;stroke-dasharray:none"
         class="grid-line"
         d="m -9.6,290 8.8212,-11.7616 8.4684,-11.2912 8.1228,-10.8304 7.7844,-10.3792 7.4532,-9.9376 7.1292,-9.5056 6.8124,-9.0832 6.5028,-8.6704 6.2004,-8.2672 5.9052,-7.8736 5.6172,-7.4896 5.3364,-7.1152 5.0628,-6.7504 4.7964,-6.3952 4.5372,-6.0496 4.2852,-5.7136 4.0404,-5.3872 3.8028,-5.0704 3.5724,-4.7632 L 108,133.2 l 3.1332,-4.1776 2.9244,-3.8992 2.7228,-3.6304 2.5284,-3.3712 2.3412,-3.1216 2.1612,-2.8816 1.9884,-2.6512 1.8228,-2.4304 1.6644,-2.2192 1.5132,-2.0176 1.3692,-1.8256 1.2324,-1.6432 1.1028,-1.4704 0.9804,-1.3072 0.8652,-1.1536 0.7572,-1.0096 0.6564,-0.8752 0.5628,-0.7504 0.4764,-0.6352 0.3972,-0.5296 0.3252,-0.4336 0.2604,-0.3472 0.2028,-0.2704 0.1524,-0.2032 0.1092,-0.1456 0.0732,-0.0976 0.0444,-0.0592 0.0228,-0.0304 0.008,-0.0112 L 140.4,90 l 0.001,-0.0016 0.008,-0.0112 0.0228,-0.0304 0.0444,-0.0592 0.0732,-0.0976 0.1092,-0.1456 0.1524,-0.2032 0.2028,-0.2704 0.2604,-0.3472 0.3252,-0.4336 0.3972,-0.5296 0.4764,-0.6352 0.5628,-0.7504 0.6564,-0.8752 0.7572,-1.0096 0.8652,-1.1536 0.9804,-1.3072 1.1028,-1.4704 1.2324,-1.6432 L 150,77.2 l 1.5132,-2.0176 1.6644,-2.2192 1.8228,-2.4304 1.9884,-2.6512 L 159.15,65 l 2.3412,-3.1216 2.5284,-3.3712 2.7228,-3.6304 2.9244,-3.8992 3.1332,-4.1776 3.3492,-4.4656 3.5724,-4.7632 3.8028,-5.0704 4.0404,-5.3872 4.2852,-5.7136 4.5372,-6.0496 4.7964,-6.3952 5.0628,-6.7504 5.3364,-7.1152 5.6172,-7.4896 5.9052,-7.8736 6.2004,-8.2672 6.5028,-8.6704 6.8124,-9.0832 7.1292,-9.5056 7.4532,-9.9376 7.7844,-10.3792 8.1228,-10.8304 8.4684,-11.2912 L 290.4,-110"
         id="path4715" />
      <path
         style="fill:none;stroke:#000000;stroke-width:1.71428577;stroke-miterlimit:4;stroke-dasharray:none"
         class="grid-line"
         d="m -1.2,320 8.8212,-11.7616 8.4684,-11.2912 8.1228,-10.8304 7.7844,-10.3792 7.4532,-9.9376 7.1292,-9.5056 6.8124,-9.0832 6.5028,-8.6704 6.2004,-8.2672 L 72,222.4 l 5.6172,-7.4896 5.3364,-7.1152 5.0628,-6.7504 4.7964,-6.3952 4.5372,-6.0496 4.2852,-5.7136 4.0404,-5.3872 3.8028,-5.0704 3.5724,-4.7632 3.3492,-4.4656 3.1332,-4.1776 2.9244,-3.8992 2.7228,-3.6304 2.5284,-3.3712 2.3412,-3.1216 2.1612,-2.8816 1.9884,-2.6512 1.8228,-2.4304 1.6644,-2.2192 1.5132,-2.0176 1.3692,-1.8256 1.2324,-1.6432 1.1028,-1.4704 0.9804,-1.3072 0.8652,-1.1536 0.7572,-1.0096 0.6564,-0.8752 0.5628,-0.7504 0.4764,-0.6352 0.3972,-0.5296 0.3252,-0.4336 0.2604,-0.3472 0.2028,-0.2704 0.1524,-0.2032 0.1092,-0.1456 0.0732,-0.0976 0.0444,-0.0592 0.0228,-0.0304 0.008,-0.0112 0.001,-0.002 0.001,-0.002 0.008,-0.0112 0.0228,-0.0304 0.0444,-0.0592 0.0732,-0.0976 0.1092,-0.1456 0.1524,-0.2032 0.2028,-0.2704 0.2604,-0.3472 L 150,118.4 l 0.3972,-0.5296 0.4764,-0.6352 0.5628,-0.7504 0.6564,-0.8752 0.7572,-1.0096 0.8652,-1.1536 0.9804,-1.3072 1.1028,-1.4704 1.2324,-1.6432 1.3692,-1.8256 1.5132,-2.0176 1.6644,-2.2192 1.8228,-2.4304 1.9884,-2.6512 L 167.55,95 l 2.3412,-3.1216 2.5284,-3.3712 2.7228,-3.6304 2.9244,-3.8992 3.1332,-4.1776 3.3492,-4.4656 3.5724,-4.7632 3.8028,-5.0704 4.0404,-5.3872 4.2852,-5.7136 4.5372,-6.0496 4.7964,-6.3952 5.0628,-6.7504 5.3364,-7.1152 5.6172,-7.4896 5.9052,-7.8736 6.2004,-8.2672 6.5028,-8.6704 6.8124,-9.0832 7.1292,-9.5056 7.4532,-9.9376 7.7844,-10.3792 8.1228,-10.8304 8.4684,-11.2912 L 298.8,-80"
         id="path4717" />
      <path
         style="fill:none;stroke:#000000;stroke-width:1.71428577;stroke-miterlimit:4;stroke-dasharray:none"
         class="grid-line"
         d="m 0,350 8.8212,-11.7616 8.4684,-11.2912 8.1228,-10.8304 7.7844,-10.3792 7.4532,-9.9376 7.1292,-9.5056 6.8124,-9.0832 6.5028,-8.6704 6.2004,-8.2672 5.9052,-7.8736 5.6172,-7.4896 5.3364,-7.1152 5.0628,-6.7504 4.7964,-6.3952 4.5372,-6.0496 4.2852,-5.7136 4.0404,-5.3872 3.8028,-5.0704 3.5724,-4.7632 3.3492,-4.4656 3.1332,-4.1776 2.9244,-3.8992 2.7228,-3.6304 2.5284,-3.3712 2.3412,-3.1216 2.1612,-2.8816 1.9884,-2.6512 1.8228,-2.4304 1.6644,-2.2192 1.5132,-2.0176 1.3692,-1.8256 1.2324,-1.6432 1.1028,-1.4704 0.9804,-1.3072 0.8652,-1.1536 0.7572,-1.0096 0.6564,-0.8752 0.5628,-0.7504 0.4764,-0.6352 0.3972,-0.5296 0.3252,-0.4336 0.2604,-0.3472 0.2028,-0.2704 0.1524,-0.2032 0.1092,-0.1456 0.0732,-0.0976 0.0444,-0.0592 0.0228,-0.0304 0.008,-0.0112 L 150,150 l 0.001,-0.002 0.008,-0.0112 0.0228,-0.0304 0.0444,-0.0592 0.0732,-0.0976 0.1092,-0.1456 0.1524,-0.2032 0.2028,-0.2704 0.2604,-0.3472 0.3252,-0.4336 0.3972,-0.5296 0.4764,-0.6352 0.5628,-0.7504 0.6564,-0.8752 0.7572,-1.0096 0.8652,-1.1536 0.9804,-1.3072 1.1028,-1.4704 1.2324,-1.6432 1.3692,-1.8256 1.5132,-2.0176 1.6644,-2.2192 1.8228,-2.4304 1.9884,-2.6512 2.1612,-2.8816 2.3412,-3.1216 2.5284,-3.3712 2.7228,-3.6304 2.9244,-3.8992 3.1332,-4.1776 3.3492,-4.4656 3.5724,-4.7632 3.8028,-5.0704 4.0404,-5.3872 4.2852,-5.7136 4.5372,-6.0496 4.7964,-6.3952 5.0628,-6.7504 5.3364,-7.1152 5.6172,-7.4896 5.9052,-7.8736 6.2004,-8.2672 6.5028,-8.6704 6.8124,-9.0832 7.1292,-9.5056 7.4532,-9.9376 7.7844,-10.3792 8.1228,-10.8304 8.4684,-11.2912 L 300,-50"
         id="path4719" />
      <path
         style="fill:none;stroke:#000000;stroke-width:1.71428577;stroke-miterlimit:4;stroke-dasharray:none"
         class="grid-line"
         d="m 1.2,380 8.8212,-11.7616 8.4684,-11.2912 8.1228,-10.8304 7.7844,-10.3792 7.4532,-9.9376 7.1292,-9.5056 6.8124,-9.0832 6.5028,-8.6704 6.2004,-8.2672 5.9052,-7.8736 5.6172,-7.4896 5.3364,-7.1152 5.0628,-6.7504 4.7964,-6.3952 4.5372,-6.0496 4.2852,-5.7136 4.0404,-5.3872 3.8028,-5.0704 3.5724,-4.7632 3.3492,-4.4656 3.1332,-4.1776 2.9244,-3.8992 2.7228,-3.6304 2.5284,-3.3712 2.3412,-3.1216 2.1612,-2.8816 1.9884,-2.6512 1.8228,-2.4304 1.6644,-2.2192 1.5132,-2.0176 1.3692,-1.8256 1.2324,-1.6432 1.1028,-1.4704 0.9804,-1.3072 0.8652,-1.1536 0.7572,-1.0096 0.6564,-0.8752 0.5628,-0.7504 0.4764,-0.6352 L 150,181.6 l 0.3252,-0.4336 0.2604,-0.3472 0.2028,-0.2704 0.1524,-0.2032 0.1092,-0.1456 0.0732,-0.0976 0.0444,-0.0592 0.0228,-0.0304 0.008,-0.0112 0.001,-0.002 0.001,-0.002 0.008,-0.0112 0.0228,-0.0304 0.0444,-0.0592 0.0732,-0.0976 0.1092,-0.1456 0.1524,-0.2032 0.2028,-0.2704 0.2604,-0.3472 0.3252,-0.4336 0.3972,-0.5296 0.4764,-0.6352 0.5628,-0.7504 0.6564,-0.8752 0.7572,-1.0096 0.8652,-1.1536 0.9804,-1.3072 1.1028,-1.4704 1.2324,-1.6432 1.3692,-1.8256 1.5132,-2.0176 1.6644,-2.2192 1.8228,-2.4304 1.9884,-2.6512 2.1612,-2.8816 2.3412,-3.1216 2.5284,-3.3712 2.7228,-3.6304 2.9244,-3.8992 3.1332,-4.1776 3.3492,-4.4656 3.5724,-4.7632 3.8028,-5.0704 4.0404,-5.3872 4.2852,-5.7136 4.5372,-6.0496 4.7964,-6.3952 5.0628,-6.7504 5.3364,-7.1152 L 228,77.6 l 5.9052,-7.8736 6.2004,-8.2672 6.5028,-8.6704 6.8124,-9.0832 7.1292,-9.5056 7.4532,-9.9376 7.7844,-10.3792 8.1228,-10.8304 8.4684,-11.2912 L 301.2,-20"
         id="path4721" />
      <path
         style="fill:none;stroke:#000000;stroke-width:1.71428577;stroke-miterlimit:4;stroke-dasharray:none"
         class="grid-line"
         d="m 9.6,410 8.8212,-11.7616 8.4684,-11.2912 8.1228,-10.8304 7.7844,-10.3792 7.4532,-9.9376 7.1292,-9.5056 6.8124,-9.0832 6.5028,-8.6704 6.2004,-8.2672 5.9052,-7.8736 5.6172,-7.4896 5.3364,-7.1152 5.0628,-6.7504 4.7964,-6.3952 4.5372,-6.0496 4.2852,-5.7136 4.0404,-5.3872 3.8028,-5.0704 3.5724,-4.7632 3.3492,-4.4656 3.1332,-4.1776 2.9244,-3.8992 2.7228,-3.6304 2.5284,-3.3712 2.3412,-3.1216 2.1612,-2.8816 1.9884,-2.6512 1.8228,-2.4304 1.6644,-2.2192 L 150,222.8 l 1.3692,-1.8256 1.2324,-1.6432 1.1028,-1.4704 0.9804,-1.3072 0.8652,-1.1536 0.7572,-1.0096 0.6564,-0.8752 0.5628,-0.7504 0.4764,-0.6352 0.3972,-0.5296 0.3252,-0.4336 0.2604,-0.3472 0.2028,-0.2704 0.1524,-0.2032 0.1092,-0.1456 0.0732,-0.0976 0.0444,-0.0592 0.0228,-0.0304 0.008,-0.0112 0.001,-0.002 0.001,-0.002 0.008,-0.0112 0.0228,-0.0304 0.0444,-0.0592 0.0732,-0.0976 0.1092,-0.1456 0.1524,-0.2032 0.2028,-0.2704 0.2604,-0.3472 0.3252,-0.4336 0.3972,-0.5296 0.4764,-0.6352 0.5628,-0.7504 0.6564,-0.8752 0.7572,-1.0096 0.8652,-1.1536 0.9804,-1.3072 1.1028,-1.4704 1.2324,-1.6432 1.3692,-1.8256 1.5132,-2.0176 1.6644,-2.2192 1.8228,-2.4304 1.9884,-2.6512 2.1612,-2.8816 2.3412,-3.1216 2.5284,-3.3712 2.7228,-3.6304 2.9244,-3.8992 L 192,166.8 l 3.3492,-4.4656 3.5724,-4.7632 3.8028,-5.0704 4.0404,-5.3872 4.2852,-5.7136 4.5372,-6.0496 4.7964,-6.3952 5.0628,-6.7504 5.3364,-7.1152 5.6172,-7.4896 5.9052,-7.8736 6.2004,-8.2672 6.5028,-8.6704 6.8124,-9.0832 7.1292,-9.5056 7.4532,-9.9376 7.7844,-10.3792 8.1228,-10.8304 8.4684,-11.2912 L 309.6,10"
         id="path4723" />
      <path
         style="fill:none;stroke:#000000;stroke-width:1.71428577;stroke-miterlimit:4;stroke-dasharray:none"
         class="grid-line"
         d="m 32.4,440 8.8212,-11.7616 8.4684,-11.2912 8.1228,-10.8304 7.7844,-10.3792 7.4532,-9.9376 7.1292,-9.5056 6.8124,-9.0832 6.5028,-8.6704 6.2004,-8.2672 5.9052,-7.8736 5.6172,-7.4896 5.3364,-7.1152 5.0628,-6.7504 4.7964,-6.3952 4.5372,-6.0496 4.2852,-5.7136 4.0404,-5.3872 3.8028,-5.0704 3.5724,-4.7632 L 150,283.2 l 3.1332,-4.1776 2.9244,-3.8992 2.7228,-3.6304 2.5284,-3.3712 2.3412,-3.1216 2.1612,-2.8816 1.9884,-2.6512 1.8228,-2.4304 1.6644,-2.2192 1.5132,-2.0176 1.3692,-1.8256 1.2324,-1.6432 1.1028,-1.4704 0.9804,-1.3072 0.8652,-1.1536 0.7572,-1.0096 0.6564,-0.8752 0.5628,-0.7504 0.4764,-0.6352 0.3972,-0.5296 0.3252,-0.4336 0.2604,-0.3472 0.2028,-0.2704 0.1524,-0.2032 0.1092,-0.1456 0.0732,-0.0976 0.0444,-0.0592 0.0228,-0.0304 0.008,-0.0112 0.001,-0.002 10e-4,-0.002 0.008,-0.0112 0.0228,-0.0304 0.0444,-0.0592 0.0732,-0.0976 0.1092,-0.1456 0.1524,-0.2032 0.2028,-0.2704 0.2604,-0.3472 0.3252,-0.4336 0.3972,-0.5296 0.4764,-0.6352 0.5628,-0.7504 0.6564,-0.8752 0.7572,-1.0096 0.8652,-1.1536 0.9804,-1.3072 1.1028,-1.4704 1.2324,-1.6432 L 192,227.2 l 1.5132,-2.0176 1.6644,-2.2192 1.8228,-2.4304 1.9884,-2.6512 2.1612,-2.8816 2.3412,-3.1216 2.5284,-3.3712 2.7228,-3.6304 2.9244,-3.8992 3.1332,-4.1776 3.3492,-4.4656 3.5724,-4.7632 3.8028,-5.0704 4.0404,-5.3872 4.2852,-5.7136 4.5372,-6.0496 4.7964,-6.3952 5.0628,-6.7504 5.3364,-7.1152 5.6172,-7.4896 5.9052,-7.8736 6.2004,-8.2672 6.5028,-8.6704 6.8124,-9.0832 7.1292,-9.5056 7.4532,-9.9376 7.7844,-10.3792 8.1228,-10.8304 8.4684,-11.2912 L 332.4,40"
         id="path4725" />
      <path
         style="fill:none;stroke:#000000;stroke-width:1.71428577;stroke-miterlimit:4;stroke-dasharray:none"
         class="grid-line"
         d="m 76.8,470 8.8212,-11.7616 8.4684,-11.2912 8.1228,-10.8304 7.7844,-10.3792 7.4532,-9.9376 7.1292,-9.5056 6.8124,-9.0832 6.5028,-8.6704 6.2004,-8.2672 L 150,372.4 l 5.6172,-7.4896 5.3364,-7.1152 5.0628,-6.7504 4.7964,-6.3952 4.5372,-6.0496 4.2852,-5.7136 4.0404,-5.3872 3.8028,-5.0704 3.5724,-4.7632 3.3492,-4.4656 3.1332,-4.1776 2.9244,-3.8992 2.7228,-3.6304 2.5284,-3.3712 2.3412,-3.1216 2.1612,-2.8816 1.9884,-2.6512 1.8228,-2.4304 1.6644,-2.2192 1.5132,-2.0176 1.3692,-1.8256 1.2324,-1.6432 1.1028,-1.4704 0.9804,-1.3072 0.8652,-1.1536 0.7572,-1.0096 0.6564,-0.8752 0.5628,-0.7504 0.4764,-0.6352 0.3972,-0.5296 0.3252,-0.4336 0.2604,-0.3472 0.2028,-0.2704 0.1524,-0.2032 0.1092,-0.1456 0.0732,-0.0976 0.0444,-0.0592 0.0228,-0.0304 0.008,-0.0112 0.001,-0.002 0.001,-0.002 0.008,-0.0112 0.0228,-0.0304 0.0444,-0.0592 0.0732,-0.0976 0.1092,-0.1456 0.1524,-0.2032 0.2028,-0.2704 0.2604,-0.3472 L 228,268.4 l 0.3972,-0.5296 0.4764,-0.6352 0.5628,-0.7504 0.6564,-0.8752 0.7572,-1.0096 0.8652,-1.1536 0.9804,-1.3072 1.1028,-1.4704 1.2324,-1.6432 1.3692,-1.8256 1.5132,-2.0176 1.6644,-2.2192 1.8228,-2.4304 1.9884,-2.6512 2.1612,-2.8816 2.3412,-3.1216 2.5284,-3.3712 2.7228,-3.6304 2.9244,-3.8992 3.1332,-4.1776 3.3492,-4.4656 3.5724,-4.7632 3.8028,-5.0704 4.0404,-5.3872 4.2852,-5.7136 4.5372,-6.0496 4.7964,-6.3952 5.0628,-6.7504 5.3364,-7.1152 5.6172,-7.4896 5.9052,-7.8736 6.2004,-8.2672 6.5028,-8.6704 6.8124,-9.0832 7.1292,-9.5056 7.4532,-9.9376 7.7844,-10.3792 8.1228,-10.8304 8.4684,-11.2912 L 376.8,70"
         id="path4727" />
      <path
         style="fill:none;stroke:#000000;stroke-width:1.71428577;stroke-miterlimit:4;stroke-dasharray:none"
         class="grid-line"
         d="m 150,500 8.8212,-11.7616 8.4684,-11.2912 8.1228,-10.8304 7.7844,-10.3792 7.4532,-9.9376 7.1292,-9.5056 6.8124,-9.0832 6.5028,-8.6704 6.2004,-8.2672 5.9052,-7.8736 5.6172,-7.4896 5.3364,-7.1152 5.0628,-6.7504 4.7964,-6.3952 4.5372,-6.0496 4.2852,-5.7136 4.0404,-5.3872 3.8028,-5.0704 3.5724,-4.7632 3.3492,-4.4656 3.1332,-4.1776 2.9244,-3.8992 2.7228,-3.6304 2.5284,-3.3712 2.3412,-3.1216 2.1612,-2.8816 1.9884,-2.6512 1.8228,-2.4304 1.6644,-2.2192 1.5132,-2.0176 1.3692,-1.8256 1.2324,-1.6432 1.1028,-1.4704 0.9804,-1.3072 0.8652,-1.1536 0.7572,-1.0096 0.6564,-0.8752 0.5628,-0.7504 0.4764,-0.6352 0.3972,-0.5296 0.3252,-0.4336 0.2604,-0.3472 0.2028,-0.2704 0.1524,-0.2032 0.1092,-0.1456 0.0732,-0.0976 0.0444,-0.0592 0.0228,-0.0304 0.008,-0.0112 L 300,300 l 10e-4,-0.002 0.008,-0.0112 0.0228,-0.0304 0.0444,-0.0592 0.0732,-0.0976 0.1092,-0.1456 0.1524,-0.2032 0.2028,-0.2704 0.2604,-0.3472 0.3252,-0.4336 0.3972,-0.5296 0.4764,-0.6352 0.5628,-0.7504 0.6564,-0.8752 0.7572,-1.0096 0.8652,-1.1536 0.9804,-1.3072 1.1028,-1.4704 1.2324,-1.6432 1.3692,-1.8256 1.5132,-2.0176 1.6644,-2.2192 1.8228,-2.4304 1.9884,-2.6512 2.1612,-2.8816 2.3412,-3.1216 2.5284,-3.3712 2.7228,-3.6304 2.9244,-3.8992 3.1332,-4.1776 3.3492,-4.4656 3.5724,-4.7632 3.8028,-5.0704 4.0404,-5.3872 4.2852,-5.7136 4.5372,-6.0496 4.7964,-6.3952 5.0628,-6.7504 5.3364,-7.1152 5.6172,-7.4896 5.9052,-7.8736 6.2004,-8.2672 6.5028,-8.6704 6.8124,-9.0832 7.1292,-9.5056 7.4532,-9.9376 7.7844,-10.3792 8.1228,-10.8304 8.4684,-11.2912 L 450,100"
         id="path4729" />
      <circle
         r="3"
         cx="310.79999"
         cy="109.2"
         id="circle4731"
         style="stroke-width:1.71428577;stroke-miterlimit:4;stroke-dasharray:none" />
    </g>
    <g
       transform="matrix(0.18520833,0,0,0.18520833,59.398753,202.85329)"
       id="g5095">
      <path
         style="fill:none;stroke:#2ecc71;stroke-width:1.28571433;stroke-miterlimit:4;stroke-dasharray:none"
         class="grid-line"
         d="m -756.6,777.6 4.41,3 4.41,3 4.41,3 4.41,3 4.41,3 4.41,3 4.41,3 4.41,3 4.41,3 4.41,3 4.41,3 4.41,3 4.41,3 4.41,3 4.41,3 4.41,3 4.41,3 4.41,3 4.41,3 4.41,3 4.41,3 4.41,3 4.41,3 4.41,3 4.41,3 4.41,3 4.41,3 4.41,3 4.41,3 4.41,3 4.41,3 4.41,3 4.41,3 4.41,3 4.41,3 4.41,3 4.41,3 4.41,3 4.41,3 4.41,3 4.41,3 4.41,3 4.41,3 4.41,3 4.41,3 4.41,3 4.41,3 4.41,3 4.41,3 4.41,3 4.41,3 4.41,3 4.41,3 4.41,3 4.41,3 4.41,3 4.41,3 4.41,3 4.41,3 4.41,3 4.41,3 4.41,3 4.41,3 4.41,3 4.41,3 4.41,3 4.41,3 4.41,3 4.41,3 4.41,3 4.41,3 4.41,3 4.41,3 4.41,3 4.41,3 4.41,3 4.41,3 4.41,3 4.41,3 4.41,3 4.41,3 4.41,3 4.41,3 4.41,3 4.41,3 4.41,3 4.41,3 4.41,3 4.41,3 4.41,3 4.41,3 4.41,3 4.41,3 4.41,3 4.41,3 4.41,3 4.41,3 4.41,3 4.41,3 4.41,3"
         id="path5049" />
      <path
         style="fill:none;stroke:#2ecc71;stroke-width:1.28571433;stroke-miterlimit:4;stroke-dasharray:none"
         class="grid-line"
         d="m -683.7,680.4 4.41,3 4.41,3 4.41,3 4.41,3 4.41,3 4.41,3 4.41,3 4.41,3 4.41,3 4.41,3 4.41,3 4.41,3 4.41,3 4.41,3 4.41,3 4.41,3 4.41,3 4.41,3 4.41,3 4.41,3 4.41,3 4.41,3 4.41,3 4.41,3 4.41,3 4.41,3 4.41,3 4.41,3 4.41,3 4.41,3 4.41,3 4.41,3 4.41,3 4.41,3 4.41,3 4.41,3 4.41,3 4.41,3 4.41,3 4.41,3 4.41,3 4.41,3 4.41,3 4.41,3 4.41,3 4.41,3 4.41,3 4.41,3 4.41,3 4.41,3 4.41,3 4.41,3 4.41,3 4.41,3 4.41,3 4.41,3 4.41,3 4.41,3 4.41,3 4.41,3 4.41,3 4.41,3 4.41,3 4.41,3 4.41,3 4.41,3 4.41,3 4.41,3 4.41,3 4.41,3 4.41,3 4.41,3 4.41,3 4.41,3 4.41,3 4.41,3 4.41,3 4.41,3 4.41,3 4.41,3 4.41,3 4.41,3 4.41,3 4.41,3 4.41,3 4.41,3 4.41,3 4.41,3 4.41,3 4.41,3 4.41,3 4.41,3 4.41,3 4.41,3 4.41,3 4.41,3 4.41,3 4.41,3 4.41,3 4.41,3"
         id="path5051" />
      <path
         style="fill:none;stroke:#2ecc71;stroke-width:1.28571433;stroke-miterlimit:4;stroke-dasharray:none"
         class="grid-line"
         d="m -610.8,583.2 4.41,3 4.41,3 4.41,3 4.41,3 4.41,3 4.41,3 4.41,3 4.41,3 4.41,3 4.41,3 4.41,3 4.41,3 4.41,3 4.41,3 4.41,3 4.41,3 4.41,3 4.41,3 4.41,3 4.41,3 4.41,3 4.41,3 4.41,3 4.41,3 4.41,3 4.41,3 4.41,3 4.41,3 4.41,3 4.41,3 4.41,3 4.41,3 4.41,3 4.41,3 4.41,3 4.41,3 4.41,3 4.41,3 4.41,3 4.41,3 4.41,3 4.41,3 4.41,3 4.41,3 4.41,3 4.41,3 4.41,3 4.41,3 4.41,3 4.41,3 4.41,3 4.41,3 4.41,3 4.41,3 4.41,3 4.41,3 4.41,3 4.41,3 4.41,3 4.41,3 4.41,3 4.41,3 4.41,3 4.41,3 4.41,3 4.41,3 4.41,3 4.41,3 4.41,3 4.41,3 4.41,3 4.41,3 4.41,3 4.41,3 4.41,3 4.41,3 4.41,3 4.41,3 4.41,3 4.41,3 4.41,3 4.41,3 4.41,3 4.41,3 4.41,3 4.41,3 4.41,3 4.41,3 4.41,3 4.41,3 4.41,3 4.41,3 4.41,3 4.41,3 4.41,3 4.41,3 4.41,3 4.41,3 4.41,3 4.41,3"
         id="path5053" />
      <path
         style="fill:none;stroke:#2ecc71;stroke-width:1.28571433;stroke-miterlimit:4;stroke-dasharray:none"
         class="grid-line"
         d="m -537.9,486 4.41,3 4.41,3 4.41,3 4.41,3 4.41,3 4.41,3 4.41,3 4.41,3 4.41,3 4.41,3 4.41,3 4.41,3 4.41,3 4.41,3 4.41,3 4.41,3 4.41,3 4.41,3 4.41,3 4.41,3 4.41,3 4.41,3 4.41,3 4.41,3 4.41,3 4.41,3 4.41,3 4.41,3 4.41,3 4.41,3 4.41,3 4.41,3 4.41,3 4.41,3 4.41,3 4.41,3 4.41,3 4.41,3 4.41,3 4.41,3 4.41,3 4.41,3 4.41,3 4.41,3 4.41,3 4.41,3 4.41,3 4.41,3 4.41,3 4.41,3 4.41,3 4.41,3 4.41,3 4.41,3 4.41,3 4.41,3 4.41,3 4.41,3 4.41,3 4.41,3 4.41,3 4.41,3 4.41,3 4.41,3 4.41,3 4.41,3 4.41,3 4.41,3 4.41,3 4.41,3 4.41,3 4.41,3 4.41,3 4.41,3 4.41,3 4.41,3 4.41,3 4.41,3 4.41,3 4.41,3 4.41,3 4.41,3 4.41,3 4.41,3 4.41,3 4.41,3 4.41,3 4.41,3 4.41,3 4.41,3 4.41,3 4.41,3 4.41,3 4.41,3 4.41,3 4.41,3 4.41,3 4.41,3 4.41,3 4.41,3"
         id="path5055" />
      <path
         style="fill:none;stroke:#2ecc71;stroke-width:1.28571433;stroke-miterlimit:4;stroke-dasharray:none"
         class="grid-line"
         d="m -465,388.8 4.41,3 4.41,3 4.41,3 4.41,3 4.41,3 4.41,3 4.41,3 4.41,3 4.41,3 4.41,3 4.41,3 4.41,3 4.41,3 4.41,3 4.41,3 4.41,3 4.41,3 4.41,3 4.41,3 4.41,3 4.41,3 4.41,3 4.41,3 4.41,3 4.41,3 4.41,3 4.41,3 4.41,3 4.41,3 4.41,3 4.41,3 4.41,3 4.41,3 4.41,3 4.41,3 4.41,3 4.41,3 4.41,3 4.41,3 4.41,3 4.41,3 4.41,3 4.41,3 4.41,3 4.41,3 4.41,3 4.41,3 4.41,3 4.41,3 4.41,3 4.41,3 4.41,3 4.41,3 4.41,3 4.41,3 4.41,3 4.41,3 4.41,3 4.41,3 4.41,3 4.41,3 4.41,3 4.41,3 4.41,3 4.41,3 4.41,3 4.41,3 4.41,3 4.41,3 4.41,3 4.41,3 4.41,3 4.41,3 4.41,3 4.41,3 4.41,3 4.41,3 4.41,3 4.41,3 4.41,3 4.41,3 4.41,3 4.41,3 4.41,3 4.41,3 4.41,3 4.41,3 4.41,3 4.41,3 4.41,3 4.41,3 4.41,3 4.41,3 4.41,3 4.41,3 4.41,3 4.41,3 4.41,3 4.41,3 4.41,3"
         id="path5057" />
      <path
         style="fill:none;stroke:#2ecc71;stroke-width:1.28571433;stroke-miterlimit:4;stroke-dasharray:none"
         class="grid-line"
         d="m -392.1,291.6 4.41,3 4.41,3 4.41,3 4.41,3 4.41,3 4.41,3 4.41,3 4.41,3 4.41,3 4.41,3 4.41,3 4.41,3 4.41,3 4.41,3 4.41,3 4.41,3 4.41,3 4.41,3 4.41,3 4.41,3 4.41,3 4.41,3 4.41,3 4.41,3 4.41,3 4.41,3 4.41,3 4.41,3 4.41,3 4.41,3 4.41,3 4.41,3 4.41,3 4.41,3 4.41,3 4.41,3 4.41,3 4.41,3 4.41,3 4.41,3 4.41,3 4.41,3 4.41,3 4.41,3 4.41,3 4.41,3 4.41,3 4.41,3 4.41,3 4.41,3 4.41,3 4.41,3 4.41,3 4.41,3 4.41,3 4.41,3 4.41,3 4.41,3 4.41,3 4.41,3 4.41,3 4.41,3 4.41,3 4.41,3 4.41,3 4.41,3 4.41,3 4.41,3 4.41,3 4.41,3 4.41,3 4.41,3 4.41,3 4.41,3 4.41,3 4.41,3 4.41,3 4.41,3 4.41,3 4.41,3 4.41,3 4.41,3 4.41,3 4.41,3 4.41,3 4.41,3 4.41,3 4.41,3 4.41,3 4.41,3 4.41,3 4.41,3 4.41,3 4.41,3 4.41,3 4.41,3 4.41,3 4.41,3 4.41,3 4.41,3"
         id="path5059" />
      <path
         style="fill:none;stroke:#2ecc71;stroke-width:1.28571433;stroke-miterlimit:4;stroke-dasharray:none"
         class="grid-line"
         d="m -319.2,194.4 4.41,3 4.41,3 4.41,3 4.41,3 4.41,3 4.41,3 4.41,3 4.41,3 4.41,3 4.41,3 4.41,3 4.41,3 4.41,3 4.41,3 4.41,3 4.41,3 4.41,3 4.41,3 4.41,3 4.41,3 4.41,3 4.41,3 4.41,3 4.41,3 4.41,3 4.41,3 4.41,3 4.41,3 4.41,3 4.41,3 4.41,3 4.41,3 4.41,3 4.41,3 4.41,3 4.41,3 4.41,3 4.41,3 4.41,3 4.41,3 4.41,3 4.41,3 4.41,3 4.41,3 4.41,3 4.41,3 4.41,3 4.41,3 4.41,3 4.41,3 4.41,3 4.41,3 4.41,3 4.41,3 4.41,3 4.41,3 4.41,3 4.41,3 4.41,3 4.41,3 4.41,3 4.41,3 4.41,3 4.41,3 4.41,3 4.41,3 4.41,3 4.41,3 4.41,3 4.41,3 4.41,3 4.41,3 4.41,3 4.41,3 4.41,3 4.41,3 4.41,3 4.41,3 4.41,3 4.41,3 4.41,3 4.41,3 4.41,3 4.41,3 4.41,3 4.41,3 4.41,3 4.41,3 4.41,3 4.41,3 4.41,3 4.41,3 4.41,3 4.41,3 4.41,3 4.41,3 4.41,3 4.41,3 4.41,3 4.41,3"
         id="path5061" />
      <path
         style="fill:none;stroke:#2ecc71;stroke-width:1.28571433;stroke-miterlimit:4;stroke-dasharray:none"
         class="grid-line"
         d="m -246.3,97.2 4.41,3 4.41,3 4.41,3 4.41,3 4.41,3 4.41,3 4.41,3 4.41,3 4.41,3 4.41,3 4.41,3 4.41,3 4.41,3 4.41,3 4.41,3 4.41,3 4.41,3 4.41,3 4.41,3 4.41,3 4.41,3 4.41,3 4.41,3 4.41,3 4.41,3 4.41,3 4.41,3 4.41,3 4.41,3 4.41,3 4.41,3 4.41,3 4.41,3 4.41,3 4.41,3 4.41,3 4.41,3 4.41,3 4.41,3 4.41,3 4.41,3 4.41,3 4.41,3 4.41,3 4.41,3 4.41,3 4.41,3 4.41,3 4.41,3 4.41,3 4.41,3 4.41,3 4.41,3 4.41,3 4.41,3 4.41,3 4.41,3 4.41,3 4.41,3 4.41,3 4.41,3 4.41,3 4.41,3 4.41,3 4.41,3 4.41,3 4.41,3 4.41,3 4.41,3 4.41,3 4.41,3 4.41,3 4.41,3 4.41,3 4.41,3 4.41,3 4.41,3 4.41,3 4.41,3 4.41,3 4.41,3 4.41,3 4.41,3 4.41,3 4.41,3 4.41,3 4.41,3 4.41,3 4.41,3 4.41,3 4.41,3 4.41,3 4.41,3 4.41,3 4.41,3 4.41,3 4.41,3 4.41,3 4.41,3 4.41,3"
         id="path5063" />
      <path
         style="fill:none;stroke:#2ecc71;stroke-width:1.28571433;stroke-miterlimit:4;stroke-dasharray:none"
         class="grid-line"
         d="m -173.4,0 4.41,3 4.41,3 4.41,3 4.41,3 4.41,3 4.41,3 4.41,3 4.41,3 4.41,3 4.41,3 4.41,3 4.41,3 4.41,3 4.41,3 4.41,3 4.41,3 4.41,3 4.41,3 4.41,3 4.41,3 4.41,3 4.41,3 4.41,3 4.41,3 4.41,3 4.41,3 4.41,3 4.41,3 4.41,3 4.41,3 4.41,3 4.41,3 4.41,3 4.41,3 4.41,3 4.41,3 4.41,3 4.41,3 4.41,3 4.41,3 4.41,3 4.41,3 4.41,3 4.41,3 4.41,3 4.41,3 4.41,3 4.41,3 4.41,3 4.41,3 4.41,3 4.41,3 4.41,3 4.41,3 4.41,3 4.41,3 4.41,3 4.41,3 4.41,3 4.41,3 4.41,3 4.41,3 4.41,3 4.41,3 4.41,3 4.41,3 4.41,3 4.41,3 4.41,3 4.41,3 4.41,3 4.41,3 4.41,3 4.41,3 4.41,3 4.41,3 4.41,3 4.41,3 4.41,3 4.41,3 4.41,3 4.41,3 4.41,3 4.41,3 4.41,3 4.41,3 4.41,3 4.41,3 4.41,3 4.41,3 4.41,3 4.41,3 4.41,3 4.41,3 4.41,3 4.41,3 4.41,3 4.41,3 4.41,3 4.41,3"
         id="path5065" />
      <path
         style="fill:none;stroke:#2ecc71;stroke-width:1.28571433;stroke-miterlimit:4;stroke-dasharray:none"
         class="grid-line"
         d="m -100.5,-97.2 4.41,3 4.41,3 4.41,3 4.41,3 4.41,3 4.41,3 4.41,3 4.41,3 4.41,3 4.41,3 4.41,3 4.41,3 4.41,3 4.41,3 4.41,3 4.41,3 4.41,3 4.41,3 4.41,3 4.41,3 4.41,3 4.41,3 4.41,3 4.41,3 4.41,3 4.41,3 4.41,3 4.41,3 4.41,3 4.41,3 4.41,3 4.41,3 4.41,3 4.41,3 4.41,3 4.41,3 4.41,3 4.41,3 4.41,3 4.41,3 4.41,3 4.41,3 4.41,3 4.41,3 4.41,3 4.41,3 4.41,3 4.41,3 4.41,3 4.41,3 4.41,3 4.41,3 4.41,3 4.41,3 4.41,3 4.41,3 4.41,3 4.41,3 4.41,3 4.41,3 4.41,3 4.41,3 4.41,3 4.41,3 4.41,3 4.41,3 4.41,3 4.41,3 4.41,3 4.41,3 4.41,3 4.41,3 4.41,3 4.41,3 4.41,3 4.41,3 4.41,3 4.41,3 4.41,3 4.41,3 4.41,3 4.41,3 4.41,3 4.41,3 4.41,3 4.41,3 4.41,3 4.41,3 4.41,3 4.41,3 4.41,3 4.41,3 4.41,3 4.41,3 4.41,3 4.41,3 4.41,3 4.41,3 4.41,3 4.41,3"
         id="path5067" />
      <path
         style="fill:none;stroke:#2ecc71;stroke-width:1.28571433;stroke-miterlimit:4;stroke-dasharray:none"
         class="grid-line"
         d="m -27.6,-194.4 4.41,3 4.41,3 4.41,3 4.41,3 4.41,3 4.41,3 4.41,3 4.41,3 4.41,3 4.41,3 4.41,3 4.41,3 4.41,3 4.41,3 4.41,3 4.41,3 4.41,3 4.41,3 4.41,3 4.41,3 4.41,3 4.41,3 4.41,3 4.41,3 4.41,3 4.41,3 4.41,3 4.41,3 4.41,3 4.41,3 4.41,3 4.41,3 4.41,3 4.41,3 4.41,3 4.41,3 4.41,3 4.41,3 4.41,3 4.41,3 4.41,3 4.41,3 4.41,3 4.41,3 4.41,3 4.41,3 4.41,3 4.41,3 4.41,3 4.41,3 4.41,3 4.41,3 4.41,3 4.41,3 4.41,3 4.41,3 4.41,3 4.41,3 4.41,3 4.41,3 4.41,3 4.41,3 4.41,3 4.41,3 4.41,3 4.41,3 4.41,3 4.41,3 4.41,3 4.41,3 4.41,3 4.41,3 4.41,3 4.41,3 4.41,3 4.41,3 4.41,3 4.41,3 4.41,3 4.41,3 4.41,3 4.41,3 4.41,3 4.41,3 4.41,3 4.41,3 4.41,3 4.41,3 4.41,3 4.41,3 4.41,3 4.41,3 4.41,3 4.41,3 4.41,3 4.41,3 4.41,3 4.41,3 4.41,3 4.41,3"
         id="path5069" />
      <path
         style="fill:none;stroke:#2ecc71;stroke-width:1.28571433;stroke-miterlimit:4;stroke-dasharray:none"
         class="grid-line"
         d="m -756.6,777.6 7.29,-9.72 7.29,-9.72 7.29,-9.72 7.29,-9.72 7.29,-9.72 7.29,-9.72 7.29,-9.72 7.29,-9.72 7.29,-9.72 7.29,-9.72 7.29,-9.72 7.29,-9.72 7.29,-9.72 7.29,-9.72 7.29,-9.72 7.29,-9.72 7.29,-9.72 7.29,-9.72 7.29,-9.72 7.29,-9.72 7.29,-9.72 7.29,-9.72 7.29,-9.72 7.29,-9.72 7.29,-9.72 7.29,-9.72 7.29,-9.72 7.29,-9.72 7.29,-9.72 7.29,-9.72 7.29,-9.72 7.29,-9.72 7.29,-9.72 7.29,-9.72 7.29,-9.72 7.29,-9.72 7.29,-9.72 7.29,-9.72 7.29,-9.72 7.29,-9.72 7.29,-9.72 7.29,-9.72 7.29,-9.72 7.29,-9.72 7.29,-9.72 7.29,-9.72 7.29,-9.72 7.29,-9.72 7.29,-9.72 7.29,-9.72 7.29,-9.72 7.29,-9.72 7.29,-9.72 7.29,-9.72 7.29,-9.72 7.29,-9.72 7.29,-9.72 7.29,-9.72 7.29,-9.72 7.29,-9.72 7.29,-9.72 7.29,-9.72 7.29,-9.72 7.29,-9.72 7.29,-9.72 7.29,-9.72 7.29,-9.72 7.29,-9.72 7.29,-9.72 7.29,-9.72 7.29,-9.72 7.29,-9.72 7.29,-9.72 7.29,-9.72 7.29,-9.72 7.29,-9.72 7.29,-9.72 7.29,-9.72 7.29,-9.72 7.29,-9.72 7.29,-9.72 7.29,-9.72 7.29,-9.72 7.29,-9.72 7.29,-9.72 7.29,-9.72 7.29,-9.72 7.29,-9.72 7.29,-9.72 7.29,-9.72 7.29,-9.72 7.29,-9.72 7.29,-9.72 7.29,-9.72 7.29,-9.72 7.29,-9.72 7.29,-9.72 7.29,-9.72 7.29,-9.72 7.29,-9.72"
         id="path5071" />
      <path
         style="fill:none;stroke:#2ecc71;stroke-width:1.28571433;stroke-miterlimit:4;stroke-dasharray:none"
         class="grid-line"
         d="m -712.5,807.6 7.29,-9.72 7.29,-9.72 7.29,-9.72 7.29,-9.72 7.29,-9.72 7.29,-9.72 7.29,-9.72 7.29,-9.72 7.29,-9.72 7.29,-9.72 7.29,-9.72 7.29,-9.72 7.29,-9.72 7.29,-9.72 7.29,-9.72 7.29,-9.72 7.29,-9.72 7.29,-9.72 7.29,-9.72 7.29,-9.72 7.29,-9.72 7.29,-9.72 7.29,-9.72 7.29,-9.72 7.29,-9.72 7.29,-9.72 7.29,-9.72 7.29,-9.72 7.29,-9.72 7.29,-9.72 7.29,-9.72 7.29,-9.72 7.29,-9.72 7.29,-9.72 7.29,-9.72 7.29,-9.72 7.29,-9.72 7.29,-9.72 7.29,-9.72 7.29,-9.72 7.29,-9.72 7.29,-9.72 7.29,-9.72 7.29,-9.72 7.29,-9.72 7.29,-9.72 7.29,-9.72 7.29,-9.72 7.29,-9.72 7.29,-9.72 7.29,-9.72 7.29,-9.72 7.29,-9.72 7.29,-9.72 7.29,-9.72 7.29,-9.72 7.29,-9.72 7.29,-9.72 7.29,-9.72 7.29,-9.72 7.29,-9.72 7.29,-9.72 7.29,-9.72 7.29,-9.72 7.29,-9.72 7.29,-9.72 7.29,-9.72 7.29,-9.72 7.29,-9.72 7.29,-9.72 7.29,-9.72 7.29,-9.72 7.29,-9.72 7.29,-9.72 7.29,-9.72 7.29,-9.72 7.29,-9.72 7.29,-9.72 7.29,-9.72 7.29,-9.72 7.29,-9.72 7.29,-9.72 7.29,-9.72 7.29,-9.72 7.29,-9.72 7.29,-9.72 7.29,-9.72 7.29,-9.72 7.29,-9.72 7.29,-9.72 7.29,-9.72 7.29,-9.72 7.29,-9.72 7.29,-9.72 7.29,-9.72 7.29,-9.72 7.29,-9.72 7.29,-9.72 7.29,-9.72 7.29,-9.72"
         id="path5073" />
      <path
         style="fill:none;stroke:#2ecc71;stroke-width:1.28571433;stroke-miterlimit:4;stroke-dasharray:none"
         class="grid-line"
         d="m -668.4,837.6 7.29,-9.72 7.29,-9.72 7.29,-9.72 7.29,-9.72 7.29,-9.72 7.29,-9.72 7.29,-9.72 7.29,-9.72 7.29,-9.72 7.29,-9.72 7.29,-9.72 7.29,-9.72 7.29,-9.72 7.29,-9.72 7.29,-9.72 7.29,-9.72 7.29,-9.72 7.29,-9.72 7.29,-9.72 7.29,-9.72 7.29,-9.72 7.29,-9.72 7.29,-9.72 7.29,-9.72 7.29,-9.72 7.29,-9.72 7.29,-9.72 7.29,-9.72 7.29,-9.72 7.29,-9.72 7.29,-9.72 7.29,-9.72 7.29,-9.72 7.29,-9.72 7.29,-9.72 7.29,-9.72 7.29,-9.72 7.29,-9.72 7.29,-9.72 7.29,-9.72 7.29,-9.72 7.29,-9.72 7.29,-9.72 7.29,-9.72 7.29,-9.72 7.29,-9.72 7.29,-9.72 7.29,-9.72 7.29,-9.72 7.29,-9.72 7.29,-9.72 7.29,-9.72 7.29,-9.72 7.29,-9.72 7.29,-9.72 7.29,-9.72 7.29,-9.72 7.29,-9.72 7.29,-9.72 7.29,-9.72 7.29,-9.72 7.29,-9.72 7.29,-9.72 7.29,-9.72 7.29,-9.72 7.29,-9.72 7.29,-9.72 7.29,-9.72 7.29,-9.72 7.29,-9.72 7.29,-9.72 7.29,-9.72 7.29,-9.72 7.29,-9.72 7.29,-9.72 7.29,-9.72 7.29,-9.72 7.29,-9.72 7.29,-9.72 7.29,-9.72 7.29,-9.72 7.29,-9.72 7.29,-9.72 7.29,-9.72 7.29,-9.72 7.29,-9.72 7.29,-9.72 7.29,-9.72 7.29,-9.72 7.29,-9.72 7.29,-9.72 7.29,-9.72 7.29,-9.72 7.29,-9.72 7.29,-9.72 7.29,-9.72 7.29,-9.72 7.29,-9.72 7.29,-9.72 7.29,-9.72"
         id="path5075" />
      <path
         style="fill:none;stroke:#2ecc71;stroke-width:1.28571433;stroke-miterlimit:4;stroke-dasharray:none"
         class="grid-line"
         d="m -624.3,867.6 7.29,-9.72 7.29,-9.72 7.29,-9.72 7.29,-9.72 7.29,-9.72 7.29,-9.72 7.29,-9.72 7.29,-9.72 7.29,-9.72 7.29,-9.72 7.29,-9.72 7.29,-9.72 7.29,-9.72 7.29,-9.72 7.29,-9.72 7.29,-9.72 7.29,-9.72 7.29,-9.72 7.29,-9.72 7.29,-9.72 7.29,-9.72 7.29,-9.72 7.29,-9.72 7.29,-9.72 7.29,-9.72 7.29,-9.72 7.29,-9.72 7.29,-9.72 7.29,-9.72 7.29,-9.72 7.29,-9.72 7.29,-9.72 7.29,-9.72 7.29,-9.72 7.29,-9.72 7.29,-9.72 7.29,-9.72 7.29,-9.72 7.29,-9.72 7.29,-9.72 7.29,-9.72 7.29,-9.72 7.29,-9.72 7.29,-9.72 7.29,-9.72 7.29,-9.72 7.29,-9.72 7.29,-9.72 7.29,-9.72 7.29,-9.72 7.29,-9.72 7.29,-9.72 7.29,-9.72 7.29,-9.72 7.29,-9.72 7.29,-9.72 7.29,-9.72 7.29,-9.72 7.29,-9.72 7.29,-9.72 7.29,-9.72 7.29,-9.72 7.29,-9.72 7.29,-9.72 7.29,-9.72 7.29,-9.72 7.29,-9.72 7.29,-9.72 7.29,-9.72 7.29,-9.72 7.29,-9.72 7.29,-9.72 7.29,-9.72 7.29,-9.72 7.29,-9.72 7.29,-9.72 7.29,-9.72 7.29,-9.72 7.29,-9.72 7.29,-9.72 7.29,-9.72 7.29,-9.72 7.29,-9.72 7.29,-9.72 7.29,-9.72 7.29,-9.72 7.29,-9.72 7.29,-9.72 7.29,-9.72 7.29,-9.72 7.29,-9.72 7.29,-9.72 7.29,-9.72 7.29,-9.72 7.29,-9.72 7.29,-9.72 7.29,-9.72 7.29,-9.72 7.29,-9.72 7.29,-9.72"
         id="path5077" />
      <path
         style="fill:none;stroke:#2ecc71;stroke-width:1.28571433;stroke-miterlimit:4;stroke-dasharray:none"
         class="grid-line"
         d="m -580.2,897.6 7.29,-9.72 7.29,-9.72 7.29,-9.72 7.29,-9.72 7.29,-9.72 7.29,-9.72 7.29,-9.72 7.29,-9.72 7.29,-9.72 7.29,-9.72 7.29,-9.72 7.29,-9.72 7.29,-9.72 7.29,-9.72 7.29,-9.72 7.29,-9.72 7.29,-9.72 7.29,-9.72 7.29,-9.72 7.29,-9.72 7.29,-9.72 7.29,-9.72 7.29,-9.72 7.29,-9.72 7.29,-9.72 7.29,-9.72 7.29,-9.72 7.29,-9.72 7.29,-9.72 7.29,-9.72 7.29,-9.72 7.29,-9.72 7.29,-9.72 7.29,-9.72 7.29,-9.72 7.29,-9.72 7.29,-9.72 7.29,-9.72 7.29,-9.72 7.29,-9.72 7.29,-9.72 7.29,-9.72 7.29,-9.72 7.29,-9.72 7.29,-9.72 7.29,-9.72 7.29,-9.72 7.29,-9.72 7.29,-9.72 7.29,-9.72 7.29,-9.72 7.29,-9.72 7.29,-9.72 7.29,-9.72 7.29,-9.72 7.29,-9.72 7.29,-9.72 7.29,-9.72 7.29,-9.72 7.29,-9.72 7.29,-9.72 7.29,-9.72 7.29,-9.72 7.29,-9.72 7.29,-9.72 7.29,-9.72 7.29,-9.72 7.29,-9.72 7.29,-9.72 7.29,-9.72 7.29,-9.72 7.29,-9.72 7.29,-9.72 7.29,-9.72 7.29,-9.72 7.29,-9.72 7.29,-9.72 7.29,-9.72 7.29,-9.72 L 3,120 l 7.29,-9.72 7.29,-9.72 7.29,-9.72 7.29,-9.72 7.29,-9.72 7.29,-9.72 7.29,-9.72 7.29,-9.72 7.29,-9.72 7.29,-9.72 7.29,-9.72 7.29,-9.72 7.29,-9.72 7.29,-9.72 7.29,-9.72 7.29,-9.72 7.29,-9.72 7.29,-9.72 7.29,-9.72 7.29,-9.72"
         id="path5079" />
      <path
         style="fill:none;stroke:#2ecc71;stroke-width:1.28571433;stroke-miterlimit:4;stroke-dasharray:none"
         class="grid-line"
         d="m -536.1,927.6 7.29,-9.72 7.29,-9.72 7.29,-9.72 7.29,-9.72 7.29,-9.72 7.29,-9.72 7.29,-9.72 7.29,-9.72 7.29,-9.72 7.29,-9.72 7.29,-9.72 7.29,-9.72 7.29,-9.72 7.29,-9.72 7.29,-9.72 7.29,-9.72 7.29,-9.72 7.29,-9.72 7.29,-9.72 7.29,-9.72 7.29,-9.72 7.29,-9.72 7.29,-9.72 7.29,-9.72 7.29,-9.72 7.29,-9.72 7.29,-9.72 7.29,-9.72 7.29,-9.72 7.29,-9.72 7.29,-9.72 7.29,-9.72 7.29,-9.72 7.29,-9.72 7.29,-9.72 7.29,-9.72 7.29,-9.72 7.29,-9.72 7.29,-9.72 7.29,-9.72 7.29,-9.72 7.29,-9.72 7.29,-9.72 7.29,-9.72 7.29,-9.72 7.29,-9.72 7.29,-9.72 7.29,-9.72 7.29,-9.72 7.29,-9.72 7.29,-9.72 7.29,-9.72 7.29,-9.72 7.29,-9.72 7.29,-9.72 7.29,-9.72 7.29,-9.72 7.29,-9.72 7.29,-9.72 7.29,-9.72 7.29,-9.72 7.29,-9.72 7.29,-9.72 7.29,-9.72 7.29,-9.72 7.29,-9.72 7.29,-9.72 7.29,-9.72 7.29,-9.72 7.29,-9.72 7.29,-9.72 7.29,-9.72 7.29,-9.72 7.29,-9.72 7.29,-9.72 7.29,-9.72 7.29,-9.72 7.29,-9.72 7.29,-9.72 7.29,-9.72 7.29,-9.72 7.29,-9.72 7.29,-9.72 7.29,-9.72 7.29,-9.72 7.29,-9.72 7.29,-9.72 7.29,-9.72 7.29,-9.72 7.29,-9.72 7.29,-9.72 7.29,-9.72 7.29,-9.72 7.29,-9.72 7.29,-9.72 7.29,-9.72 7.29,-9.72 7.29,-9.72 7.29,-9.72 7.29,-9.72"
         id="path5081" />
      <path
         style="fill:none;stroke:#2ecc71;stroke-width:1.28571433;stroke-miterlimit:4;stroke-dasharray:none"
         class="grid-line"
         d="m -492,957.6 7.29,-9.72 7.29,-9.72 7.29,-9.72 7.29,-9.72 7.29,-9.72 7.29,-9.72 7.29,-9.72 7.29,-9.72 7.29,-9.72 7.29,-9.72 7.29,-9.72 7.29,-9.72 7.29,-9.72 7.29,-9.72 7.29,-9.72 7.29,-9.72 7.29,-9.72 7.29,-9.72 7.29,-9.72 7.29,-9.72 7.29,-9.72 7.29,-9.72 7.29,-9.72 7.29,-9.72 7.29,-9.72 7.29,-9.72 7.29,-9.72 7.29,-9.72 7.29,-9.72 7.29,-9.72 7.29,-9.72 7.29,-9.72 7.29,-9.72 7.29,-9.72 7.29,-9.72 7.29,-9.72 7.29,-9.72 7.29,-9.72 7.29,-9.72 7.29,-9.72 7.29,-9.72 7.29,-9.72 7.29,-9.72 7.29,-9.72 7.29,-9.72 7.29,-9.72 7.29,-9.72 7.29,-9.72 7.29,-9.72 7.29,-9.72 7.29,-9.72 7.29,-9.72 7.29,-9.72 7.29,-9.72 7.29,-9.72 7.29,-9.72 7.29,-9.72 7.29,-9.72 7.29,-9.72 7.29,-9.72 7.29,-9.72 7.29,-9.72 7.29,-9.72 7.29,-9.72 7.29,-9.72 7.29,-9.72 7.29,-9.72 7.29,-9.72 7.29,-9.72 7.29,-9.72 7.29,-9.72 7.29,-9.72 7.29,-9.72 7.29,-9.72 7.29,-9.72 7.29,-9.72 7.29,-9.72 7.29,-9.72 7.29,-9.72 7.29,-9.72 7.29,-9.72 7.29,-9.72 7.29,-9.72 7.29,-9.72 7.29,-9.72 7.29,-9.72 7.29,-9.72 7.29,-9.72 7.29,-9.72 7.29,-9.72 7.29,-9.72 7.29,-9.72 7.29,-9.72 7.29,-9.72 7.29,-9.72 7.29,-9.72 7.29,-9.72 7.29,-9.72 7.29,-9.72 7.29,-9.72"
         id="path5083" />
      <path
         style="fill:none;stroke:#2ecc71;stroke-width:1.28571433;stroke-miterlimit:4;stroke-dasharray:none"
         class="grid-line"
         d="m -447.9,987.6 7.29,-9.72 7.29,-9.72 7.29,-9.72 7.29,-9.72 7.29,-9.72 7.29,-9.72 7.29,-9.72 7.29,-9.72 7.29,-9.72 7.29,-9.72 7.29,-9.72 7.29,-9.72 7.29,-9.72 7.29,-9.72 7.29,-9.72 7.29,-9.72 7.29,-9.72 7.29,-9.72 7.29,-9.72 7.29,-9.72 7.29,-9.72 7.29,-9.72 7.29,-9.72 7.29,-9.72 7.29,-9.72 7.29,-9.72 7.29,-9.72 7.29,-9.72 7.29,-9.72 7.29,-9.72 7.29,-9.72 7.29,-9.72 7.29,-9.72 7.29,-9.72 7.29,-9.72 7.29,-9.72 7.29,-9.72 7.29,-9.72 7.29,-9.72 7.29,-9.72 7.29,-9.72 7.29,-9.72 7.29,-9.72 7.29,-9.72 7.29,-9.72 7.29,-9.72 7.29,-9.72 7.29,-9.72 7.29,-9.72 7.29,-9.72 7.29,-9.72 7.29,-9.72 7.29,-9.72 7.29,-9.72 7.29,-9.72 7.29,-9.72 7.29,-9.72 7.29,-9.72 7.29,-9.72 7.29,-9.72 7.29,-9.72 7.29,-9.72 7.29,-9.72 7.29,-9.72 7.29,-9.72 7.29,-9.72 7.29,-9.72 7.29,-9.72 7.29,-9.72 7.29,-9.72 7.29,-9.72 7.29,-9.72 7.29,-9.72 7.29,-9.72 7.29,-9.72 7.29,-9.72 7.29,-9.72 7.29,-9.72 7.29,-9.72 7.29,-9.72 7.29,-9.72 7.29,-9.72 7.29,-9.72 7.29,-9.72 7.29,-9.72 7.29,-9.72 7.29,-9.72 7.29,-9.72 7.29,-9.72 7.29,-9.72 7.29,-9.72 7.29,-9.72 7.29,-9.72 7.29,-9.72 7.29,-9.72 7.29,-9.72 7.29,-9.72 7.29,-9.72 7.29,-9.72 7.29,-9.72"
         id="path5085" />
      <path
         style="fill:none;stroke:#2ecc71;stroke-width:1.28571433;stroke-miterlimit:4;stroke-dasharray:none"
         class="grid-line"
         d="m -403.8,1017.6 7.29,-9.72 7.29,-9.72 7.29,-9.72 7.29,-9.72 7.29,-9.72 7.29,-9.72 7.29,-9.72 7.29,-9.72 7.29,-9.72 7.29,-9.72 7.29,-9.72 7.29,-9.72 7.29,-9.72 7.29,-9.72 7.29,-9.72 7.29,-9.72 7.29,-9.72 7.29,-9.72 7.29,-9.72 7.29,-9.72 7.29,-9.72 7.29,-9.72 7.29,-9.72 7.29,-9.72 7.29,-9.72 7.29,-9.72 7.29,-9.72 7.29,-9.72 7.29,-9.72 7.29,-9.72 7.29,-9.72 7.29,-9.72 7.29,-9.72 7.29,-9.72 7.29,-9.72 7.29,-9.72 7.29,-9.72 7.29,-9.72 7.29,-9.72 7.29,-9.72 7.29,-9.72 7.29,-9.72 7.29,-9.72 7.29,-9.72 7.29,-9.72 7.29,-9.72 7.29,-9.72 7.29,-9.72 7.29,-9.72 7.29,-9.72 7.29,-9.72 7.29,-9.72 7.29,-9.72 7.29,-9.72 7.29,-9.72 7.29,-9.72 7.29,-9.72 7.29,-9.72 7.29,-9.72 7.29,-9.72 7.29,-9.72 7.29,-9.72 7.29,-9.72 7.29,-9.72 7.29,-9.72 7.29,-9.72 7.29,-9.72 7.29,-9.72 7.29,-9.72 7.29,-9.72 7.29,-9.72 7.29,-9.72 7.29,-9.72 7.29,-9.72 7.29,-9.72 7.29,-9.72 7.29,-9.72 7.29,-9.72 7.29,-9.72 7.29,-9.72 7.29,-9.72 7.29,-9.72 7.29,-9.72 7.29,-9.72 7.29,-9.72 7.29,-9.72 7.29,-9.72 7.29,-9.72 7.29,-9.72 7.29,-9.72 7.29,-9.72 7.29,-9.72 7.29,-9.72 7.29,-9.72 7.29,-9.72 7.29,-9.72 7.29,-9.72 7.29,-9.72 7.29,-9.72 7.29,-9.72"
         id="path5087" />
      <path
         style="fill:none;stroke:#2ecc71;stroke-width:1.28571433;stroke-miterlimit:4;stroke-dasharray:none"
         class="grid-line"
         d="m -359.7,1047.6 7.29,-9.72 7.29,-9.72 7.29,-9.72 7.29,-9.72 7.29,-9.72 7.29,-9.72 7.29,-9.72 7.29,-9.72 7.29,-9.72 7.29,-9.72 7.29,-9.72 7.29,-9.72 7.29,-9.72 7.29,-9.72 7.29,-9.72 7.29,-9.72 7.29,-9.72 7.29,-9.72 7.29,-9.72 7.29,-9.72 7.29,-9.72 7.29,-9.72 7.29,-9.72 7.29,-9.72 7.29,-9.72 7.29,-9.72 7.29,-9.72 7.29,-9.72 7.29,-9.72 7.29,-9.72 7.29,-9.72 7.29,-9.72 7.29,-9.72 7.29,-9.72 7.29,-9.72 7.29,-9.72 7.29,-9.72 7.29,-9.72 7.29,-9.72 7.29,-9.72 7.29,-9.72 7.29,-9.72 7.29,-9.72 7.29,-9.72 7.29,-9.72 7.29,-9.72 7.29,-9.72 7.29,-9.72 7.29,-9.72 7.29,-9.72 7.29,-9.72 7.29,-9.72 7.29,-9.72 7.29,-9.72 7.29,-9.72 7.29,-9.72 7.29,-9.72 7.29,-9.72 7.29,-9.72 7.29,-9.72 7.29,-9.72 7.29,-9.72 7.29,-9.72 7.29,-9.72 7.29,-9.72 7.29,-9.72 7.29,-9.72 7.29,-9.72 7.29,-9.72 7.29,-9.72 7.29,-9.72 7.29,-9.72 7.29,-9.72 7.29,-9.72 7.29,-9.72 7.29,-9.72 7.29,-9.72 7.29,-9.72 7.29,-9.72 7.29,-9.72 7.29,-9.72 7.29,-9.72 7.29,-9.72 7.29,-9.72 7.29,-9.72 7.29,-9.72 7.29,-9.72 7.29,-9.72 7.29,-9.72 7.29,-9.72 7.29,-9.72 7.29,-9.72 7.29,-9.72 7.29,-9.72 7.29,-9.72 7.29,-9.72 7.29,-9.72 7.29,-9.72 7.29,-9.72 7.29,-9.72"
         id="path5089" />
      <path
         style="fill:none;stroke:#2ecc71;stroke-width:1.28571433;stroke-miterlimit:4;stroke-dasharray:none"
         class="grid-line"
         d="m -315.6,1077.6 7.29,-9.72 7.29,-9.72 7.29,-9.72 7.29,-9.72 7.29,-9.72 7.29,-9.72 7.29,-9.72 7.29,-9.72 7.29,-9.72 7.29,-9.72 7.29,-9.72 7.29,-9.72 7.29,-9.72 7.29,-9.72 7.29,-9.72 7.29,-9.72 7.29,-9.72 7.29,-9.72 7.29,-9.72 7.29,-9.72 7.29,-9.72 7.29,-9.72 7.29,-9.72 7.29,-9.72 7.29,-9.72 7.29,-9.72 7.29,-9.72 7.29,-9.72 7.29,-9.72 7.29,-9.72 7.29,-9.72 7.29,-9.72 7.29,-9.72 7.29,-9.72 7.29,-9.72 7.29,-9.72 7.29,-9.72 7.29,-9.72 7.29,-9.72 7.29,-9.72 7.29,-9.72 7.29,-9.72 7.29,-9.72 7.29,-9.72 7.29,-9.72 7.29,-9.72 7.29,-9.72 7.29,-9.72 7.29,-9.72 7.29,-9.72 7.29,-9.72 7.29,-9.72 7.29,-9.72 7.29,-9.72 7.29,-9.72 7.29,-9.72 7.29,-9.72 7.29,-9.72 7.29,-9.72 7.29,-9.72 7.29,-9.72 7.29,-9.72 7.29,-9.72 7.29,-9.72 7.29,-9.72 7.29,-9.72 7.29,-9.72 7.29,-9.72 7.29,-9.72 7.29,-9.72 7.29,-9.72 7.29,-9.72 7.29,-9.72 7.29,-9.72 7.29,-9.72 7.29,-9.72 7.29,-9.72 7.29,-9.72 7.29,-9.72 7.29,-9.72 7.29,-9.72 7.29,-9.72 7.29,-9.72 7.29,-9.72 7.29,-9.72 7.29,-9.72 7.29,-9.72 7.29,-9.72 7.29,-9.72 7.29,-9.72 7.29,-9.72 7.29,-9.72 7.29,-9.72 7.29,-9.72 7.29,-9.72 7.29,-9.72 7.29,-9.72 7.29,-9.72 7.29,-9.72 7.29,-9.72"
         id="path5091" />
      <circle
         r="3"
         cx="310.79999"
         cy="109.2"
         id="circle5093"
         style="stroke-width:1.28571433;stroke-miterlimit:4;stroke-dasharray:none;fill:#00dc00;fill-opacity:1" />
    </g>
  </g>
</svg>
